<?xml version="1.0" encoding="utf-8"?>
<!-- Generator: Adobe Illustrator 23.0.6, SVG Export Plug-In . SVG Version: 6.00 Build 0)  -->
<svg version="1.1" id="Layer_1" xmlns="http://www.w3.org/2000/svg" xmlns:xlink="http://www.w3.org/1999/xlink" x="0px" y="0px"
	 viewBox="0 0 1080 1080" style="enable-background:new 0 0 1080 1080;" xml:space="preserve">
<style type="text/css">
	.st0{fill:#FFFFFF;}
</style>
<g>
	<path class="st0" d="M409.66,81.07c56.96,0,109.23,0,163.87,0c15.04,171.15,29.92,340.6,44.81,510.05
		c2.01-0.01,4.03-0.03,6.04-0.04c9.95-104.85,19.94-209.7,29.81-314.56c5.4-57.42,11.17-114.81,15.54-172.31
		c1.4-18.39,7.84-25.81,26.94-25.39c46.54,1.03,93.12,0.33,144.59,0.33c16.46,171.01,32.74,340.21,49.03,509.42
		c2.28,0.07,4.55,0.14,6.83,0.21c14.13-169.15,28.26-338.31,42.42-507.89c48.27,0,92.08,0,140.46,0
		c-38.23,306.07-76.18,609.85-114.4,915.9c-51.56,0-101.21,0-154.26,0c-17.64-183.46-35.32-367.31-53-551.16
		c-2.97-0.16-5.95-0.33-8.92-0.49c-18.23,184.71-36.45,369.42-54.87,556.06c-56.5,0-109.84,0-167.54,0
		C487.97,695.06,448.95,389.14,409.66,81.07z"/>
	<path class="st0" d="M356.53,78.91c-83.25,0-163.55,0-245.71,0C73.76,386.75,36.91,692.85,0,999.42c50.1,0,97,0,143.82,0
		c8.27-68.36,16.13-133.38,23.77-196.56c40.25,0,75.09,0,110.85,0c7.61,67.95,14.92,133.17,22.17,197.86c58.47,0,111.97,0,168.3,0
		C431.31,692.33,394.01,386.35,356.53,78.91z M183.13,657.02c12.99-118.49,25.84-235.76,38.7-353.04c2.44-0.52,4.89-1.05,7.33-1.57
		c11.98,117.31,23.97,234.63,36.23,354.61C237.32,657.02,212.34,657.02,183.13,657.02z"/>
</g>
</svg>
