<svg width="80" height="80" viewBox="0 0 80 80" fill="none" xmlns="http://www.w3.org/2000/svg">
<path d="M39.9839 18.2097L41.4516 15.6774C42.3548 14.0968 44.371 13.5645 45.9516 14.4677C47.5323 15.371 48.0645 17.3871 47.1613 18.9677L33.0484 43.4032H43.2581C46.5645 43.4032 48.4194 47.2903 46.9839 49.9839H17.0645C15.2419 49.9839 13.7742 48.5161 13.7742 46.6935C13.7742 44.871 15.2419 43.4032 17.0645 43.4032H25.4516L36.1935 24.7903L32.8387 18.9677C31.9355 17.3871 32.4677 15.3871 34.0484 14.4677C35.629 13.5645 37.629 14.0968 38.5484 15.6774L39.9839 18.2097ZM27.2903 53.371L24.129 58.8548C23.2258 60.4355 21.2097 60.9677 19.629 60.0645C18.0484 59.1613 17.5161 57.1452 18.4194 55.5645L20.7742 51.5C23.4194 50.6774 25.5806 51.3064 27.2903 53.371ZM54.5323 43.4194H63.0968C64.9194 43.4194 66.3871 44.8871 66.3871 46.7097C66.3871 48.5323 64.9194 50 63.0968 50H58.3387L61.5484 55.5645C62.4516 57.1452 61.9194 59.1452 60.3387 60.0645C58.7581 60.9677 56.7581 60.4355 55.8387 58.8548C50.4355 49.4839 46.371 42.4677 43.6774 37.7903C40.9194 33.0323 42.8871 28.2581 44.8387 26.6452C47 30.3548 50.2258 35.9516 54.5323 43.4194ZM40 0C17.9032 0 0 17.9032 0 40C0 62.0968 17.9032 80 40 80C62.0968 80 80 62.0968 80 40C80 17.9032 62.0968 0 40 0ZM74.8387 40C74.8387 59.1452 59.3387 74.8387 40 74.8387C20.8548 74.8387 5.16129 59.3387 5.16129 40C5.16129 20.8548 20.6613 5.16129 40 5.16129C59.1452 5.16129 74.8387 20.6613 74.8387 40Z" fill="white"/>
</svg>
