<?xml version="1.0" encoding="utf-8"?>
<!-- Generator: Adobe Illustrator 23.0.6, SVG Export Plug-In . SVG Version: 6.00 Build 0)  -->
<svg version="1.1" id="Layer_1" xmlns="http://www.w3.org/2000/svg" xmlns:xlink="http://www.w3.org/1999/xlink" x="0px" y="0px"
	 viewBox="0 0 1080 1080" style="enable-background:new 0 0 1080 1080;" xml:space="preserve">
<style type="text/css">
	.st0{fill:#FFFFFF;}
</style>
<path class="st0" d="M542.99,28.31c192.84,131.53,359.34,285,470.28,491.25c46.35,86.17,71.65,178.28,65.54,277.17
	c-4.81,77.91-42.82,138.42-106.06,180.64c-43.15,28.81-91.51,49.83-137.54,74.33c-1.17-2.12-2.35-4.23-3.52-6.35
	c22.75-18.58,48.22-34.69,67.72-56.21c55.45-61.19,51.75-134.18,34.28-207.92c-21.59-91.11-72.41-166.86-130.29-238.25
	c-69.29-85.47-151.85-156.63-242.32-218.66c-7.86-5.39-24.22-8.78-30.61-4.37C393.8,414.4,270.11,522.05,189.11,670.64
	c-31.66,58.08-51.02,119.85-52.92,187.06c-2.12,74.8,31.89,128.95,90.24,170.99c7.12,5.13,14.76,9.55,20.71,18.74
	c-6.52-1.71-13.25-2.88-19.54-5.22c-66.95-24.95-127.63-59.38-173.46-115.95c-61.42-75.82-61.23-162.8-43.76-251.95
	C34.93,549,102.18,445.32,180.42,347.8C282.12,221.02,408.92,122.61,542.99,28.31z"/>
<path class="st0" d="M539.89,920.74c-52.1-34-94.69-73.63-124.47-125.33c-9.73-16.89-17.3-35.91-21.49-54.92
	c-10.59-47.97,5.51-79.27,51.02-96.95c60.31-23.43,122.32-25.44,183.43-3.2c56.07,20.41,74.26,60.7,53.76,118.87
	C656.79,831.16,601.3,877.43,539.89,920.74z"/>
</svg>
