<?xml version="1.0" encoding="utf-8"?>
<!-- Generator: Adobe Illustrator 23.0.6, SVG Export Plug-In . SVG Version: 6.00 Build 0)  -->
<svg version="1.1" id="Layer_1" xmlns="http://www.w3.org/2000/svg" xmlns:xlink="http://www.w3.org/1999/xlink" x="0px" y="0px"
	 viewBox="0 0 1080 1080" style="enable-background:new 0 0 1080 1080;" xml:space="preserve">
<style type="text/css">
	.st0{fill:#FFFFFF;}
</style>
<path class="st0" d="M2.43,508.19c0,24.85,0.36,47.64-0.2,70.41c-0.19,7.5,2.28,11.12,8.9,14.42
	C184.5,679.51,357.8,766.17,531,853.02c7.03,3.53,12.52,3.65,19.63,0.08c169.51-85.05,339.03-170.11,508.97-254.31
	c15.15-7.51,21.87-15.14,20.14-32.44c-1.86-18.6-0.42-37.54-0.42-57.73c-5.56,2.64-9.25,4.31-12.87,6.13
	c-171.63,85.82-343.27,171.6-514.79,257.64c-7.79,3.91-13.84,3.82-21.57-0.06C383.28,698.61,236.34,625.16,89.42,551.67
	C61.1,537.5,32.76,523.35,2.43,508.19z M952.16,491.53c-68.71-136.34-237.17-267.31-458.56-245.93
	c-177.83,17.17-310.94,137.35-360.14,241.36c99.11-118.53,225.16-179.85,380.3-170.62c155.47,9.25,273.37,85.79,357.84,215.47
	C898.78,518.22,925.12,505.05,952.16,491.53z M248.48,574.56c134.64-167.68,387.81-147.49,494.68,21.55
	c26.79-13.46,53.66-26.96,80.52-40.46c-40.13-81.03-141.58-167.41-279.2-168.77C407.35,385.53,295.09,469.04,248.48,574.56z
	 M693.66,620.74c-35.71-64.27-106.31-98.16-181.29-88.13c-61.93,8.28-125.41,61.38-138.65,115.95c0.3-0.01,0.69,0.09,0.88-0.06
	c3.16-2.61,6.29-5.25,9.42-7.89c28.4-24.01,61.2-37.23,98.33-38.19c48.66-1.27,89.56,16.69,123.16,51.89
	c2.62,2.74,8.73,5.6,11.32,4.38C642.43,646.64,667.63,633.75,693.66,620.74z"/>
<path class="st0" d="M2.43,508.19c30.34,15.16,58.67,29.3,86.99,43.47c146.92,73.5,293.86,146.95,440.67,220.66
	c7.73,3.88,13.77,3.97,21.57,0.06c171.51-86.04,343.16-171.82,514.79-257.64c3.62-1.81,7.31-3.48,12.87-6.13
	c0,20.19-1.44,39.12,0.42,57.73c1.73,17.3-4.99,24.93-20.14,32.44C889.66,682.99,720.14,768.05,550.63,853.1
	c-7.11,3.57-12.6,3.45-19.63-0.08c-173.2-86.85-346.49-173.52-519.88-260c-6.61-3.3-9.08-6.93-8.9-14.42
	C2.79,555.83,2.43,533.04,2.43,508.19z"/>
<path class="st0" d="M952.16,491.53c-27.04,13.52-53.38,26.69-80.56,40.28C787.12,402.13,669.23,325.6,513.75,316.34
	c-155.14-9.23-281.19,52.09-380.29,170.63c49.19-104.03,182.31-224.21,360.13-241.38C714.99,224.22,883.45,355.18,952.16,491.53z"/>
<path class="st0" d="M248.48,574.56c46.6-105.53,158.87-189.03,296-187.68c137.62,1.36,239.07,87.74,279.2,168.77
	c-26.86,13.5-53.73,27-80.52,40.46C636.29,427.07,383.12,406.88,248.48,574.56z"/>
<path class="st0" d="M693.66,620.74c-26.03,13.01-51.23,25.9-76.84,37.94c-2.59,1.22-8.71-1.64-11.32-4.38
	c-33.6-35.2-74.5-53.16-123.16-51.89c-37.13,0.97-69.93,14.19-98.33,38.19c-3.13,2.65-6.26,5.28-9.42,7.89
	c-0.18,0.15-0.58,0.05-0.88,0.06c13.24-54.57,76.72-107.66,138.65-115.95C587.35,522.58,657.95,556.47,693.66,620.74z"/>
</svg>
