<?xml version="1.0" encoding="utf-8"?>
<!-- Generator: Adobe Illustrator 23.0.6, SVG Export Plug-In . SVG Version: 6.00 Build 0)  -->
<svg version="1.1" id="Layer_1" xmlns="http://www.w3.org/2000/svg" xmlns:xlink="http://www.w3.org/1999/xlink" x="0px" y="0px"
	 viewBox="0 0 155.44 155.44" style="enable-background:new 0 0 155.44 155.44;" xml:space="preserve">
<style type="text/css">
	.st0{fill:#FFFFFF;}
</style>
<path class="st0" d="M72.34,139.6l9.17,15.81c26.67-0.21,42.3-3.57,50.76-6.37c5.76-1.91,8.92-3.79,10.4-4.83
	c-2.79-7.2-5.82-10.03-9.29-13.27c-3.96-3.7-8.45-7.9-12.97-18.83c-3.69-8.91-4.78-33.87-5.1-47.96c-0.15-6.73-5.74-12.2-12.47-12.2
	c0,0,0,0,0,0l-49.66-0.16c-0.02,0-0.05,0-0.08,0c-6.7,0-12.28,5.42-12.48,12.12c-0.43,14.11-1.7,39.1-5.43,47.93
	c-4.59,10.9-9.1,15.07-13.08,18.74c-3.43,3.17-6.43,5.94-9.24,12.85c5.48,2.7,24.6,10.57,63.07,11.87l-7.92-13.66
	c-0.13-0.22-0.22-0.47-0.27-0.72l-4.48-22.17c-0.04-0.19-0.05-0.38-0.05-0.56l1.16-29.77c0.05-1.31,1.16-2.34,2.47-2.29
	c1.31,0.05,2.34,1.16,2.29,2.47l-1.15,29.49L72.34,139.6z"/>
<path class="st0" d="M78.08,34.87c0,0-0.01,0-0.01,0c-3.07,0-5.57,2.49-5.58,5.55c-0.01,3.07,2.48,5.57,5.55,5.58
	c0.01,0,0.01,0,0.02,0c3.06,0,5.55-2.48,5.56-5.55v-0.01C83.63,37.38,81.15,34.88,78.08,34.87z"/>
<g>
	<polygon class="st0" points="83.73,28.95 93.01,0.23 63.37,0.14 72.46,28.93 	"/>
	<path class="st0" d="M98.01,0.24l-9.28,28.73L104.55,29c6.04,0.01,11.33,3.88,13.19,9.62l5.24,15.86h15.26l0.18-54.12L98.01,0.24z"
		/>
	<path class="st0" d="M58.37,0.13l-5.84-0.02c0,0,0,0,0,0L18.01,0l-0.18,54.14l15.28,0.05l5.31-15.83c1.91-5.66,7.2-9.44,13.16-9.44
		c0.01,0,0.02,0,0.03,0h11.52l4.32,0.01L58.37,0.13z"/>
</g>
</svg>
