<?xml version="1.0" encoding="utf-8"?>
<!-- Generator: Adobe Illustrator 23.0.6, SVG Export Plug-In . SVG Version: 6.00 Build 0)  -->
<svg version="1.1" id="Layer_1" xmlns="http://www.w3.org/2000/svg" xmlns:xlink="http://www.w3.org/1999/xlink" x="0px" y="0px"
	 viewBox="0 0 1080 1080" style="enable-background:new 0 0 1080 1080;" xml:space="preserve">
<style type="text/css">
	.st0{fill:#FFFFFF;}
</style>
<path class="st0" d="M1068.66,581.98c-6.16-0.14-10.72,4.27-10.53,10.31c-0.86,5.97,5.41,11.5,10.49,11.28
	c6.34-0.27,11.15-4.45,11.23-10.54C1079.92,586.88,1075.12,582.13,1068.66,581.98z M1069.15,602.08c-4.96,0.08-9.21-4.33-9.19-9.52
	c0.02-5.19,3.96-9.04,9.15-8.96c4.94,0.08,8.92,4.27,8.9,9.38C1078,597.88,1073.98,602.01,1069.15,602.08z"/>
<path class="st0" d="M447.44,563c1.46-19.48,2.93-38.96,4.39-58.44c0.8-10.75,1.64-21.51,2.35-32.26c0.16-2.43,0.87-3.68,3.54-4.17
	c7.03-1.28,14.02-2.8,20.95-4.53c2.49-0.62,3.05,0.14,3.37,2.35c1.7,11.72,3.49,23.43,5.27,35.14c2.73,17.93,5.48,35.86,8.23,53.79
	c0.08,0.5,0.21,0.98,0.85,1.45c0.4-8.15,0.82-16.29,1.19-24.44c1.06-23.57,2.13-47.13,3.12-70.7c0.08-1.85,0.66-2.48,2.5-2.85
	c7.32-1.46,14.61-3.1,21.88-4.8c2.22-0.52,2.96-0.17,2.74,2.33c-1.27,14.46-2.38,28.94-3.57,43.41c-1.39,16.81-2.81,33.62-4.2,50.43
	c-1.36,16.49-2.71,32.98-3.97,49.48c-0.15,1.91-1,2.49-2.69,2.79c-8.82,1.56-17.65,3.14-26.43,4.88c-2.05,0.41-2.52-0.22-2.84-2.08
	c-4.48-26.29-9.04-52.57-13.58-78.85c-0.16-0.25-0.28-0.53-0.42-0.78c-0.16-0.28,0.12-0.7-0.3-0.88c0.14,0.28,0.15,0.58,0.07,0.87
	c-0.07,0.29-0.23,0.55-0.39,0.8c-2.44,27.44-4.89,54.87-7.29,82.32c-0.2,2.29-0.81,3.47-3.44,3.89c-8.53,1.36-17.01,3.05-25.48,4.74
	c-2.18,0.43-2.89-0.09-3.23-2.37c-3.49-23.43-7.12-46.84-10.71-70.26c-3.07-20.04-6.14-40.08-9.2-60.12
	c-0.16-1.05-0.22-2.13-0.49-3.16c-0.45-1.74,0.14-2.36,1.93-2.72c7.42-1.51,14.81-3.19,22.19-4.85c1.54-0.35,2.22-0.11,2.42,1.73
	c1.36,12.63,2.87,25.24,4.3,37.87c1.87,16.44,3.72,32.89,5.57,49.33c0.17,1.49,0.24,2.98,0.36,4.47c0.27,0.37,0.24,0.78,0.22,1.2
	c0.28-0.14,0.17-0.45,0.29-0.66C447.63,565.95,446.91,564.39,447.44,563z"/>
<path class="st0" d="M643.94,481.26c0.59-3.97,1.2-7.93,1.76-11.9c1.94-13.73,3.86-27.47,5.78-41.2c0.13-0.93-0.01-1.99,1.28-2.27
	c10.07-2.18,20.15-4.36,30.68-6.64c-2.05,9.07-3.98,17.66-5.92,26.25c-5.36,23.71-10.83,47.4-15.98,71.15
	c-1.13,5.2,0.2,10.62,0.45,15.93c0.6,13,1.44,25.99,2.29,38.97c0.13,1.92-0.51,2.57-2.31,2.88c-8.51,1.49-17.01,3.03-25.48,4.72
	c-2.22,0.44-2.75-0.27-2.84-2.3c-0.81-16.84-1.71-33.68-2.54-50.51c-0.08-1.73-0.37-3.36-0.96-4.99
	c-9.85-27.04-19.65-54.09-29.57-81.11c-0.81-2.21-0.64-3.03,1.82-3.51c8.26-1.63,16.52-3.33,24.7-5.32
	c2.53-0.62,3.03,0.21,3.59,2.32c4.07,15.46,8.26,30.89,12.42,46.33c0.1,0.39,0.23,0.77,0.35,1.16
	C643.61,481.24,643.78,481.25,643.94,481.26z"/>
<path class="st0" d="M617.47,579.68c-10.09-45.62-20.12-91.25-30.1-136.89c-0.46-2.1-1.32-2.51-3.28-2.07
	c-12.07,2.7-24.16,5.36-36.27,7.91c-1.95,0.41-2.79,1.03-3.03,3.15c-1.97,17.5-4.1,34.99-6.17,52.48
	c-2.25,19.08-4.49,38.17-6.73,57.25c-1.38,11.77-2.77,23.54-4.19,35.59c-0.43,1.66,0.33,2.18,2.23,1.81
	c8.28-1.59,16.55-3.18,24.86-4.59c2.29-0.39,2.87-1.5,2.99-3.59c0.36-6.18,0.95-12.35,1.32-18.53c0.1-1.7,0.69-2.42,2.37-2.71
	c6.41-1.14,12.8-2.36,19.17-3.67c1.96-0.4,2.6,0.17,2.91,2.11c0.93,6.01,2.17,11.97,3.07,17.98c0.31,2.1,1.09,2.31,2.95,1.95
	c8.48-1.68,16.96-3.34,25.48-4.74C617.48,582.72,617.99,582.01,617.47,579.68z M575.32,541.56c-4.01,0.4-7.97,1.37-11.9,2.31
	c-2.16,0.52-2.47-0.21-2.32-2.14c0.73-9.46,1.32-18.92,2.01-28.38c0.97-13.28,1.98-26.57,2.98-39.85c0.04-0.58-0.17-1.24,0.6-1.89
	c1.99,11.35,3.95,22.54,5.9,33.74c1.85,10.59,3.65,21.2,5.6,31.77C578.67,539.73,578.63,541.23,575.32,541.56z"/>
<path class="st0" d="M408.13,578.03c-0.27-12.38-0.59-24.75-1.01-37.13c-0.39-11.62-0.09-23.28-1.88-34.82
	c-2.39-15.39-12.37-22.93-27.62-20.14c-13.74,2.51-27.35,5.72-41.03,8.52c-1.93,0.4-1.96,1.48-1.92,2.98
	c0.21,8.32,0.47,16.65,0.51,24.97c0.08,16.34,0.02,32.67,0.02,49.01c0.25,0,0.5,0,0.76,0c0.39,20.07,0.81,40.14,1.12,60.2
	c0.03,2.2,0.41,3.05,2.81,2.58c12.46-2.41,24.95-4.64,37.41-7.05c16.08-3.12,26.47-12.23,29.58-28.7
	C408.15,591.71,408.28,584.86,408.13,578.03z M380.34,594.03c-1.15,5.91-3.85,8.72-9.73,10c-7.27,1.59-7.22,1.59-7.37-5.93
	c-0.4-21.13-0.84-42.26-1.28-63.4c-0.13-6.3-0.24-12.59-0.5-18.89c-0.09-2.14,0.29-3.4,2.78-3.57c2.32-0.16,4.6-0.99,6.92-1.16
	c3.87-0.29,5.93,1.23,7.14,4.99c0.92,2.86,1.19,5.84,1.26,8.84c0.43,18.25,0.88,36.49,1.28,52.56
	C380.86,584.45,381.28,589.26,380.34,594.03z"/>
<path class="st0" d="M248.72,585.48c-0.03,0-0.07,0-0.1,0c0-6.84,0.15-13.68-0.04-20.51c-0.25-9.17,0.23-18.36-1.15-27.49
	c-1.58-10.48-7.24-17.67-16.64-19.04c-15.24-2.22-28.55,2.21-39.03,13.75c-7.02,7.73-8.66,17.51-8.77,27.46
	c-0.25,22.96-0.23,45.93-0.18,68.9c0.01,4.03,0.55,8.09,1.18,12.09c1.82,11.49,9.39,18.47,20.62,19.25
	c25.51,1.78,43.7-14.84,44.08-40.44C248.86,608.13,248.72,596.8,248.72,585.48z M222.45,627.6c-0.46,1.55-1.16,2.98-2.26,4.18
	c-2.03,2.22-4.55,3.21-7.5,2.5c-2.77-0.67-3.73-3.02-4.33-5.46c-1.31-5.36-0.62-10.84-0.75-16.26c-0.19-7.68-0.05-15.37-0.05-23.06
	c0-10.78,0.01-21.56-0.01-32.35c0-3.35,0.42-6.61,1.98-9.62c1.63-3.15,5.08-5.21,8.05-4.72c3.46,0.56,4.57,3.26,5.09,6.2
	c0.41,2.3,0.61,4.66,0.62,6.99c0.13,21.13,0.2,42.26,0.3,63.39C223.62,622.2,223.24,624.93,222.45,627.6z"/>
<path class="st0" d="M331.54,634.36c-1.02-5.88-1.98-11.45-2.94-17.03c-5.27-30.37-10.54-60.74-15.81-91.11
	c-1.33-7.67-2.64-15.35-4.02-23.01c-0.2-1.1,0.01-2.74-2.14-2.26c-11.24,2.51-22.5,4.96-33.75,7.4c-1.13,0.24-1.54,0.77-1.69,1.9
	c-1.24,9.31-2.55,18.6-3.85,27.9c-2.89,20.82-5.78,41.64-8.68,62.46c-2.21,15.85-4.41,31.7-6.65,47.55
	c-0.24,1.68,0.07,2.32,1.97,1.94c7.11-1.43,14.22-2.87,21.39-3.96c2.49-0.38,3.09-1.54,3.28-3.66c0.47-5.32,1.12-10.62,1.52-15.94
	c0.18-2.39,0.78-3.79,3.55-4.17c5.06-0.69,10.08-1.78,15.09-2.85c2.16-0.46,2.98,0.01,3.2,2.36c0.5,5.42,1.3,10.81,2.08,16.19
	c0.15,1.04-0.28,2.78,2,2.34c7.96-1.54,15.94-2.97,23.91-4.44C331.05,635.79,331.82,635.35,331.54,634.36z M294.25,596.53
	c-3.24,0.63-6.49,1.21-9.71,1.93c-1.56,0.34-1.8-0.21-1.66-1.61c1.8-18.24,3.55-36.49,5.32-54.73c0.35-3.58,0.69-7.16,1.03-10.74
	c0.22-0.02,0.43-0.05,0.65-0.07c0.59,4.14,1.21,8.28,1.76,12.42c2.11,15.84,4.18,31.69,6.3,47.53
	C298.53,595.7,298.6,595.69,294.25,596.53z"/>
<path class="st0" d="M177.45,661.99c-1.57-2.34-2.4-4.97-2.73-7.78c-0.84-7.14-0.21-14.3-0.39-21.45
	c-0.21-8.11,0.52-16.25-0.67-24.32c-0.9-6.13-2.8-11.57-10.79-12.75c5.36-3.41,8.8-7.47,10.05-12.9c2.71-11.81,3-23.73,0.03-35.52
	c-2.37-9.41-9.01-13.79-18.68-12.6c-13.89,1.72-27.35,5.62-41.05,8.31c-1.82,0.36-1.75,1.39-1.76,2.72
	c-0.1,14.42-0.23,28.84-0.36,43.25c-0.12,13.56-0.23,27.13-0.36,40.69c-0.14,14.74-0.26,29.47-0.48,44.21
	c-0.03,2.28,0.38,2.9,2.84,2.36c6.03-1.34,12.13-2.47,18.25-3.36c2.63-0.38,3.19-1.45,3.18-3.91c-0.04-16.77,0.14-33.55,0.07-50.32
	c-0.01-2.37,0.79-3.26,2.92-3.47c0.85-0.08,1.68-0.27,2.52-0.44c4.42-0.89,7.13,0.6,8.78,4.84c1.02,2.63,1.38,5.38,1.39,8.16
	c0.05,9.5,0.02,19,0.02,28.49c0,3.65,0.51,7.22,1.72,10.69c0.5,1.43,1.12,1.92,2.81,1.58c7.21-1.47,14.45-2.77,21.7-4.01
	C178.44,664.12,178.43,663.45,177.45,661.99z M149.66,582.34c-1.94,6.39-6.13,9.52-12.87,10.21c-1.84,0.19-1.88-0.73-1.87-2.03
	c0.02-4.69,0.01-9.39,0.01-14.08c0.06,0,0.11,0,0.17,0c0-4.48,0.07-8.96-0.04-13.44c-0.04-1.71,0.54-2.3,2.22-2.7
	c10.01-2.38,12.35-0.83,13.64,9.41C151.47,574.01,150.9,578.24,149.66,582.34z"/>
<path class="st0" d="M103.37,626.08c-0.16-2.77-0.63-5.51-1.53-8.15c-1.37-4-4-6.46-8.32-6.91c-0.94-0.1-1.87-0.3-3.59-0.57
	c7.53-3.71,10.62-9.75,11.66-17.08c0.25-1.79,0.49-3.6,0.59-5.41c0.48-9.07,0.91-18.17-2.19-26.93c-3.1-8.78-8.5-12.15-17.75-10.89
	c-12.48,1.7-24.61,5.15-36.95,7.57c-1.92,0.37-2.63,1.01-2.66,3.05c-0.2,14.3-0.57,28.59-0.81,42.89
	c-0.19,10.89-0.21,21.78-0.41,32.67c-0.31,16.96-0.68,33.93-1.08,50.89c-0.04,1.83,0.41,2.47,2.36,2.1
	c12.35-2.37,24.75-4.54,37.08-7c11.32-2.25,18.59-8.99,21.5-20.27C104.35,650.18,104.09,638.14,103.37,626.08z M64.75,604.85
	c0.17-9.28,0.37-18.55,0.52-27.83c0.02-1.21,0.51-1.77,1.69-1.79c0.11,0,0.21-0.02,0.32-0.04c11.83-3.39,12.76,0.13,13.25,12.46
	c0.03,0.84-0.19,1.69-0.29,2.53c0.04,0,0.07,0.01,0.11,0.01c-0.08,0.96-0.15,1.91-0.23,2.87c-0.74,9.03-5.08,13.07-14.02,13.27
	C64.71,606.37,64.74,605.74,64.75,604.85z M79.72,652.05c-1.15,6.17-5.28,8.8-11.13,9.69c-4.74,0.72-4.71,0.89-4.55-3.94
	c0.04-1.38,0.01-2.77,0.01-4.16c0.17,0,0.34,0,0.5,0c0-7.46,0.04-14.92-0.04-22.38c-0.02-1.57,0.45-2.36,2.01-2.59
	c1.9-0.28,3.77-0.77,5.67-0.98c4.55-0.52,6.88,1.11,7.76,5.6C81.17,639.54,80.88,645.81,79.72,652.05z"/>
<g>
	<path class="st0" d="M886.08,421.6c-0.15-3.18-0.57-6.4-1.29-9.5c-1.37-5.88-4.91-8.13-10.86-7.17c-2.74,0.44-5.43,1.2-8.17,1.56
		c-1.99,0.26-2.65,1.02-2.54,3.08c0.77,15.87,1.43,31.75,2.13,47.63c-0.01,0-0.02,0-0.03,0c0.31,7.03,0.64,14.07,0.93,21.1
		c0.37,8.95,0.68,17.91,1.1,26.86c0.05,1.11-0.61,3.13,1.92,2.59c3.12-0.67,6.29-1.17,9.38-1.99c5.46-1.45,8.74-4.95,9.7-10.65
		c0.5-2.97,0.66-5.95,0.54-8.93C888.01,464.66,887.09,443.13,886.08,421.6z"/>
	<path class="st0" d="M1050.41,590.1c-0.74-2.55,0.04-5.19-0.44-7.75c-0.08-2.72-0.15-5.43-0.23-8.15c-0.69-2.6,0.08-5.28-0.43-7.89
		c-0.06-2.56-0.11-5.12-0.17-7.67c-0.81-2.75,0.1-5.6-0.51-8.37c-0.05-2.53-0.11-5.05-0.16-7.58c-0.7-2.57,0.04-5.22-0.43-7.81
		c-0.08-2.72-0.15-5.43-0.23-8.15c-0.7-2.6,0.1-5.28-0.45-7.89c-0.05-2.54-0.11-5.09-0.16-7.63c-0.74-2.55,0.04-5.19-0.44-7.75
		c-0.07-2.74-0.14-5.49-0.22-8.23c-0.72-2.57,0.06-5.23-0.44-7.81c-0.06-2.56-0.11-5.12-0.17-7.67c-0.81-2.75,0.1-5.6-0.51-8.37
		c-0.05-2.54-0.1-5.09-0.15-7.63c-0.74-2.55,0.04-5.19-0.44-7.75c-0.08-2.72-0.15-5.43-0.23-8.15c-0.7-2.6,0.1-5.28-0.45-7.89
		c-0.05-2.54-0.11-5.09-0.16-7.63c-0.77-2.33,0.07-4.77-0.46-7.12c-1.13-5.88-5.87-9.25-9.54-13.25
		c-10.37-11.31-20.9-22.48-31.55-33.53c-15.1-15.68-29.87-31.68-45.42-46.92c-3.53-3.46-7.59-5.68-12.44-6.51
		c-1.26-0.29-2.53-0.23-3.8-0.04c-19.07,4.3-38.15,8.6-57.22,12.91c-42.68,9.66-85.36,19.33-128.04,28.99
		c-37.39,8.46-74.78,16.89-112.16,25.36c-28.57,6.48-57.13,13.02-85.7,19.49c-30.02,6.79-60.05,13.51-90.07,20.3
		c-30.54,6.9-61.07,13.85-91.6,20.77c-28.07,6.35-56.14,12.67-84.21,19.03c-23.83,5.4-47.64,10.85-71.47,16.23
		c-30.03,6.79-60.07,13.53-90.11,20.3c-24.25,5.47-48.49,10.93-72.73,16.45c-14.66,3.34-29.32,6.68-43.92,10.27
		c-6.41,1.57-8.94,5.22-9.09,11.7c-0.06,2.45-0.16,4.91-0.24,7.36c-0.57,4.3,0.29,8.65-0.46,12.94c-0.06,4.24-0.12,8.47-0.18,12.71
		c-0.57,4.3,0.29,8.65-0.46,12.94c-0.06,4.24-0.12,8.47-0.18,12.71c-0.57,4.3,0.29,8.65-0.46,12.94c-0.06,4.24-0.12,8.47-0.18,12.71
		c-0.57,4.3,0.29,8.65-0.46,12.94c-0.06,4.24-0.12,8.47-0.18,12.71c-0.57,4.3,0.29,8.65-0.46,12.94c-0.06,4.24-0.12,8.47-0.18,12.71
		c-0.57,4.3,0.29,8.65-0.46,12.94c-0.06,4.24-0.12,8.47-0.18,12.71c-0.26,3.84-0.33,7.68,0.03,11.51c0.96,4.09,3.56,6.23,7.68,7.05
		c3.03,0.6,5.94,1.8,8.91,2.73c5.2,1.63,10.4,3.3,15.62,4.88c5.52,1.67,11.07,3.22,16.6,4.86c6.68,1.99,13.33,4.06,20.02,6.01
		c6.84,2,13.72,3.86,20.56,5.85c5.06,1.47,9.94,3.61,15.28,4.02c2.56,0.31,5.11,0.31,7.67,0c3.62-0.68,7.23-1.46,10.87-2.03
		c14.16-2.22,28.35-4.28,42.5-6.56c12.29-1.98,24.52-4.27,36.81-6.25c15.51-2.5,31.07-4.73,46.59-7.23
		c12.28-1.97,24.52-4.27,36.8-6.24c15.5-2.49,31.08-4.55,46.54-7.25c20.66-3.61,41.4-6.76,62.09-10.16
		c20.91-3.43,41.82-6.84,62.74-10.2c20.53-3.29,41.08-6.46,61.61-9.76c13.93-2.24,27.84-4.67,41.77-6.91
		c20.51-3.3,41.05-6.43,61.56-9.76c18.94-3.07,37.85-6.39,56.79-9.45c15.51-2.51,31.07-4.72,46.58-7.21
		c12.28-1.97,24.51-4.28,36.8-6.25c15.52-2.49,31.09-4.72,46.61-7.22c12.28-1.97,24.51-4.28,36.79-6.25
		c15.52-2.5,31.11-4.57,46.59-7.26c14.01-2.44,28.06-4.62,42.09-6.91c12.6-2.06,25.23-3.96,37.84-6.01
		c13.53-2.21,27.04-4.53,40.57-6.77c10.5-1.74,21.02-3.42,31.53-5.13c2.66-0.43,4.18-1.97,5.1-4.54
		C1051.02,596.42,1049.91,593.24,1050.41,590.1z M713.75,587.2c-31.22,5.81-62.44,11.64-93.67,17.41
		c-39.92,7.37-79.86,14.66-119.79,22.01c-28.4,5.23-56.79,10.54-85.19,15.79c-37.2,6.89-74.39,13.76-111.59,20.63
		c-26.51,4.9-53.03,9.78-79.54,14.65c-34.38,6.31-68.77,12.57-103.14,18.92c-27.03,4.99-54.05,10.09-81.08,15.09
		c-5.97,1.11-11.96,2.15-17.97,3.02c-3.77,0.55-5.45-0.96-5.14-4.54c0.81-9.49,0.22-19,0.63-28.5c0.52-12.17,0.23-24.35,0.71-36.51
		c0.43-10.68,0.23-21.36,0.57-32.03c0.68-21.77,1.08-43.55,1.28-65.33c0.03-3.78,1.05-4.9,5.05-5.78
		c21.44-4.72,42.89-9.44,64.33-14.14c28.63-6.28,57.26-12.55,85.89-18.83c44.76-9.83,89.53-19.65,134.29-29.5
		c35.18-7.75,70.35-15.57,105.53-23.31c45.38-9.99,90.78-19.9,136.17-29.89c39.14-8.61,78.26-17.31,117.39-25.93
		c13.32-2.93,26.66-5.73,40-8.59c1.25,1.16,1.15,2.71,1.13,4.19c-0.23,11.85,0.57,23.69,0.8,35.53c0.32,16.43,0.79,32.86,1.25,49.28
		c0.44,15.79,0.83,31.57,1.27,47.36c0.47,16.53,1.14,33.06,1.19,49.61C714.12,580.95,715.75,584.15,713.75,587.2z M820.89,543.49
		c-8.96,1.39-17.86,3.16-26.75,4.94c-2.05,0.41-2.47-0.07-2.53-2.09c-0.49-18.14-1.13-36.28-1.66-54.42
		c-0.16-5.37-0.06-5.35-5.33-4.24c-3.65,0.77-7.3,1.63-10.99,2.15c-2.23,0.31-2.97,1.04-2.89,3.41c0.64,18.89,1.07,37.78,1.72,56.67
		c0.07,2.11-0.48,2.67-2.45,3.01c-8.83,1.54-17.63,3.19-26.42,4.95c-2.39,0.48-2.95-0.03-3.01-2.56
		c-0.71-30.96-1.58-61.91-2.38-92.86c-0.4-15.48-0.75-30.96-1.03-46.44c-0.05-2.62-1.52-5.94,0.33-7.7c1.59-1.51,4.81-1.3,7.31-1.84
		c7.6-1.64,15.21-3.28,23.25-5.02c0.31,11.08,0.61,21.85,0.91,32.63c0.22,7.9,0.49,15.79,0.61,23.69c0.03,2.23,0.73,2.64,2.86,2.14
		c4.67-1.1,9.39-1.97,14.12-2.8c1.89-0.33,2.22-1.18,2.15-3.02c-0.67-17.92-1.15-35.85-1.86-53.77c-0.09-2.37,0.58-3.06,2.79-3.49
		c8.37-1.65,16.7-3.51,25.04-5.32c3.92-0.85,3.95-0.88,4.1,3.2c0.51,14.62,0.98,29.24,1.5,43.85c1,27.74,2.03,55.48,3.04,83.22
		c0.21,5.87,0.32,11.74,0.7,17.6C824.19,541.89,823.78,543.04,820.89,543.49z M922.19,490c-0.62,20.93-10.73,34.45-30.9,39.83
		c-17.73,4.73-36.01,6.91-53.97,10.62c-2,0.41-1.7-0.89-1.74-2.05c-0.45-12.37-0.9-24.75-1.37-37.12
		c-1.01-26.66-2.04-53.31-3.07-79.97c-0.39-10.24-0.82-20.47-1.21-30.71c-0.04-1.11-0.34-2.31,1.44-2.66
		c18.31-3.56,36.31-8.82,54.87-10.94c18.08-2.07,28.8,6.73,31.46,24.79c1.89,12.81,1.87,25.74,2.64,38.63
		c0.23,3.83,0.42,7.67,0.63,11.5C921.43,464.61,922.56,477.27,922.19,490z"/>
</g>
<path class="st0" d="M1073.65,595.85c-0.11-1.69-1.27-3.13,0-5.13c0.98-1.54-0.34-3.27-2.26-3.85c-5.28-1.6-7.22-0.17-7.19,5.26
	c0,0.21,0,0.43,0,1.18c0.05,0.63,0.03,1.82,0.27,2.96c0.2,0.94-0.96,2.75,1.12,2.65c1.67-0.09,0.93-1.74,0.83-2.56
	c-0.32-2.5,0.82-2.85,2.91-2.55c1.54,0.22,2.23,0.93,2.39,2.45c0.12,1.11-0.42,3.13,1.65,2.59
	C1074.68,598.51,1073.72,596.88,1073.65,595.85z M1071.68,590.39c-0.13,2.11-1.84,1.9-3.29,2.1c-2.18,0.31-1.94-1.11-2.06-2.54
	c-0.16-1.98,0.97-1.99,2.03-1.87C1070.26,588.11,1071.81,588.25,1071.68,590.39z"/>
</svg>
