<?xml version="1.0" encoding="utf-8"?>
<!-- Generator: Adobe Illustrator 23.0.6, SVG Export Plug-In . SVG Version: 6.00 Build 0)  -->
<svg version="1.1" id="Layer_1" xmlns="http://www.w3.org/2000/svg" xmlns:xlink="http://www.w3.org/1999/xlink" x="0px" y="0px"
	 viewBox="0 0 1080 1080" style="enable-background:new 0 0 1080 1080;" xml:space="preserve">
<style type="text/css">
	.st0{fill:#FFFFFF;}
</style>
<g>
	<path class="st0" d="M902.4,643.7c0,29.8,0,58.4,0,86.9c0,18.4,4.2,22.8,22.8,23.2c12.1,0.3,24.2,0.5,36.2-0.2
		c15.5-1,20.4-6.6,20.5-22.1c0.1-28.2-0.3-56.3,0.1-84.5c0.3-21.2-8.8-35.9-26.4-47.7c-37.8-25.3-75.8-50.5-111.7-78.3
		c-29.5-22.9-42.1-55.5-41.7-93.1c0.3-32.6,0.9-65.3-0.1-97.9c-1.4-44.7,37.7-95.3,89.9-94c33.1,0.8,66.2-0.6,99.2,0.3
		c51.5,1.5,87.6,38.8,88.2,90.1c0.3,25.9-0.2,51.9,0.3,77.8c0.2,9.5-2.3,13.7-12.7,13.5c-24.6-0.6-49.2-0.5-73.8-0.1
		c-8.8,0.1-11.7-3-11.6-11.7c0.4-20.1,0.2-40.2,0-60.4c-0.2-14.4-5.2-19.4-19.3-19.5c-14.8-0.2-29.5,0-44.3,0
		c-10.5,0-15.8,5.6-15.8,15.8c-0.1,27.7-0.4,55.5,0.2,83.2c0.3,15.4,8.6,26.8,21.6,35c26.8,16.9,53.8,33.6,80.2,51
		c21.7,14.3,41.6,30.5,56.4,52.6c12.4,18.5,18.5,38.6,18.7,60.4c0.4,41.1-0.8,82.3,0.4,123.4c1.7,57-41.9,97.2-96.8,96.4
		c-29.1-0.4-58.1,0-87.2-0.1c-52.2-0.3-93.4-41.5-93.5-93.6c-0.1-31.3,0.1-62.6-0.1-93.9c-0.1-7.9,1.4-12.7,10.9-12.6
		C842.3,643.9,871.3,643.7,902.4,643.7z"/>
	<path class="st0" d="M400.8,326c-11-30.5-21.5-59.4-32.1-88.6c116.8,0,233.4,0,352.1,0c-8.2,23.3-15.4,44.7-23.4,65.7
		c-8.8,23.1-9.1,22.9-33.6,22.9c-19.2,0-38.5,0.4-57.7-0.2c-9.3-0.3-12.6,2.8-12.5,12.2c0.5,25,0.1,50.1,0.1,75.1
		c0,138.2-0.2,276.3,0.3,414.5c0,12.9-3.4,17-16.3,16.4c-21.9-1-43.8-1.1-65.7,0c-13.5,0.7-16.3-4.4-16.3-16.8
		c0.4-123.9,0.3-247.7,0.3-371.6c0-38.5-0.3-76.9,0.2-115.4c0.1-11-3.4-14.8-14.6-14.5C454.8,326.5,428,326,400.8,326z"/>
	<path class="st0" d="M285.3,608.2c-0.2-17.2-3.8-34.1-15.7-47.2c-11.5-12.5-24.4-23.7-37.2-35.9c1.2-1,3.5-3,6-4.7
		c25.5-17.4,38.7-41.5,38.9-72.2c0.3-42.9,0.4-85.8-0.2-128.7c-0.5-40.1-37.9-81.5-77.8-82.5c-65.6-1.7-131.3-0.5-199.2-0.5
		c0,5.3,0,9.7,0,14.1c0,42.9,0,85.8,0,128.7c0,149.7,0,299.5-0.1,449.2c0,8.2-1.5,15.6,11.6,15.5c61.7-0.6,123.4,0.2,185.1-0.5
		c49.8-0.6,88.5-40.5,88.7-90.4C285.7,704.8,285.7,656.5,285.3,608.2z M98.2,405.4c0,0,0.1,0,0.1,0c0-22.3,0.1-44.6-0.1-66.9
		c-0.1-8.7,2.8-13,12.5-12.6c16.9,0.6,33.9,0.3,50.9,0.1c11.8-0.1,17.7,6.2,17.7,17.1c0.3,41.5,0.4,83,0,124.5
		c-0.1,12.3-7.7,18.4-20,18.4c-15.6,0-31.3-0.5-46.9,0.2c-10.5,0.5-14.5-3.6-14.3-13.9C98.4,450.1,98.2,427.8,98.2,405.4z
		 M187.8,732.1c0,15.2-5.6,21.2-20.8,21.6c-18.3,0.5-36.6-0.2-54.9,0.3c-10.8,0.2-13.9-5-13.8-14.8c0.3-25,0.1-50,0.1-75.1
		c0,0-0.1,0-0.1,0c0-24.6,0.2-49.2-0.1-73.7c-0.2-10.8,4.1-15.6,15.1-14.8c15.1,1,30.5-0.2,45.1,2.6c19.5,3.8,29.4,17.8,29.5,37.4
		C188,654.3,188,693.2,187.8,732.1z"/>
</g>
</svg>
