<svg width="99" height="192" viewBox="0 0 99 192" fill="none" xmlns="http://www.w3.org/2000/svg">
<path d="M97.78 131.307C97.78 175.246 75.9925 191.716 49.1031 191.716C22.2136 191.716 0.426147 175.246 0.426147 131.307C0.426147 87.3682 20.5318 62.5496 47.4213 62.5496C74.3108 62.5496 97.78 87.3682 97.78 131.307Z" fill="#C8DDE7"/>
<path d="M79.186 62.3414C79.186 77.4862 65.7129 83.1655 49.1031 83.1655C32.4932 83.1655 19.0201 77.4862 19.0201 62.3414C19.0201 47.1966 32.4932 34.9103 49.1031 34.9103C65.7129 34.9103 79.186 47.1966 79.186 62.3414Z" fill="white"/>
<path d="M83.2865 71.5608C83.2865 82.8626 67.9805 87.1032 49.1031 87.1032C30.2257 87.1032 14.9196 82.8626 14.9196 71.5608C14.9196 60.259 30.2257 51.0964 49.1031 51.0964C67.9805 51.0964 83.2865 60.259 83.2865 71.5608Z" fill="white"/>
<path d="M49.1031 139.921C61.9604 139.921 72.3833 129.479 72.3833 116.598C72.3833 103.717 61.9604 93.2747 49.1031 93.2747C36.2457 93.2747 25.8228 103.717 25.8228 116.598C25.8228 129.479 36.2457 139.921 49.1031 139.921Z" fill="white"/>
<path d="M49.103 125.041C53.7575 125.041 57.5308 121.261 57.5308 116.598C57.5308 111.935 53.7575 108.154 49.103 108.154C44.4485 108.154 40.6753 111.935 40.6753 116.598C40.6753 121.261 44.4485 125.041 49.103 125.041Z" fill="#4D97D2"/>
<path d="M74.2163 27.6408C70.3992 41.6308 66.1286 43.1264 61.7069 41.9148C57.2663 40.7032 54.3562 37.2578 58.1733 23.2488C61.9903 9.25881 68.6796 -1.11539 73.1203 0.0961975C77.5609 1.30778 78.0333 13.6508 74.2163 27.6408Z" fill="white"/>
<path d="M23.9899 27.6408C27.8069 41.6308 32.0775 43.1264 36.4993 41.9148C40.9399 40.7032 43.8499 37.2578 40.0329 23.2488C36.2158 9.25881 29.5265 -1.11539 25.0859 0.0961975C20.6452 1.30778 20.1728 13.6508 23.9899 27.6408Z" fill="white"/>
<path d="M15.7511 69.9138C15.7511 69.9138 -1.7469 98.3482 0.142728 142.098C2.03236 185.847 7.72015 161.067 8.13587 120.611C8.55159 80.1555 24.5568 70.7657 24.5568 70.7657" fill="white"/>
<path d="M82.4551 69.9138C82.4551 69.9138 99.9531 98.3482 98.0635 142.098C96.1738 185.847 90.486 161.067 90.0703 120.611C89.6546 80.1555 73.6494 70.7657 73.6494 70.7657" fill="white"/>
<path d="M51.4273 69.9138C51.4273 71.2011 50.388 72.2423 49.1031 72.2423C47.8181 72.2423 46.7788 71.2011 46.7788 69.9138C46.7788 68.6265 47.8181 68.5318 49.1031 68.5318C50.388 68.5318 51.4273 68.6454 51.4273 69.9138Z" fill="#4D97D2"/>
<path d="M64.1445 67.4338C65.4908 67.4338 66.5822 66.3405 66.5822 64.9917C66.5822 63.643 65.4908 62.5496 64.1445 62.5496C62.7983 62.5496 61.7069 63.643 61.7069 64.9917C61.7069 66.3405 62.7983 67.4338 64.1445 67.4338Z" fill="#4D97D2"/>
<path d="M34.0616 67.4338C35.4079 67.4338 36.4992 66.3405 36.4992 64.9917C36.4992 63.643 35.4079 62.5496 34.0616 62.5496C32.7154 62.5496 31.624 63.643 31.624 64.9917C31.624 66.3405 32.7154 67.4338 34.0616 67.4338Z" fill="#4D97D2"/>
<path d="M49.1031 139.921C61.9604 139.921 72.3833 129.479 72.3833 116.598C72.3833 103.717 61.9604 93.2747 49.1031 93.2747C36.2457 93.2747 25.8228 103.717 25.8228 116.598C25.8228 129.479 36.2457 139.921 49.1031 139.921Z" fill="white"/>
<path d="M60.4377 111L49.4377 122L38.4377 111" stroke="#4D97D2" stroke-width="5"/>
</svg>
