<?xml version="1.0" encoding="utf-8"?>
<!-- Generator: Adobe Illustrator 23.0.6, SVG Export Plug-In . SVG Version: 6.00 Build 0)  -->
<svg version="1.1" id="Layer_1" xmlns="http://www.w3.org/2000/svg" xmlns:xlink="http://www.w3.org/1999/xlink" x="0px" y="0px"
	 viewBox="0 0 1080 1080" style="enable-background:new 0 0 1080 1080;" xml:space="preserve">
<style type="text/css">
	.st0{fill:#FFFFFF;}
</style>
<g>
	<path class="st0" d="M534.8,965.79c-257.32,2.58-473.53-211.28-475.88-470.7C56.56,234.97,267.47,17.86,525.23,15.06
		c268.03-2.91,483.8,208.05,485.6,474.77C1012.6,749.95,799.39,963.14,534.8,965.79z M534.01,21.58
		C274.88,21.75,65.25,231.71,65.4,490.93c0.14,257.95,210.53,469.08,468.39,468.09c262.91-1.01,468.7-208.17,470.03-467.73
		C1005.13,231.08,794.23,21.4,534.01,21.58z"/>
	<path class="st0" d="M715.5,1042.71c12.49,1.01,28.1,8.55,26.77-12.15c-10.04,0.77-20.1,3.8-28.62,1.38
		c-5.33-1.51-9.79-10.72-12.09-17.35c-6.34-18.34-1.12-23.62,33.36-34.79c5.59,17.01,12.83,33.79,15.93,51.31
		c1.08,6.08-6.6,16.19-12.96,20.45C730.8,1056.29,720.78,1056.13,715.5,1042.71z M740.7,1013.75c-7.97-9.13-13.48-15.44-19-21.76
		c-4.21,4.44-12.76,10.55-11.82,13.02c2.84,7.41,8.93,13.92,14.98,19.41C725.79,1025.27,733.28,1018.85,740.7,1013.75z"/>
	<path class="st0" d="M449.39,1024.03c1.64-12.27,5.78-15.81,16.88-14.78c10.98,1.01,18.76,5.96,17.87,18.2
		c-0.77,10.66-2.74,21.23-4.25,32.3c-7.89,0-15.54,1.68-21.87-0.49c-5.8-2-13.81-7.88-14.16-12.54
		c-0.36-4.75,7.39-10.17,11.76-15.14c0.56-0.64,2.22-0.21,3.29-0.54c5.05-1.54,10.07-3.18,15.11-4.78
		c-1.17-2.39-2.63-6.94-3.47-6.83c-5.55,0.73-10.97,2.47-16.45,3.85C453.08,1023.53,452.01,1023.61,449.39,1024.03z"/>
	<path class="st0" d="M605.33,1009.13c0-7.59,0-15.36,0-23.13c1.94-0.09,3.89-0.17,5.83-0.26c2.72,23.46,5.44,46.91,8.14,70.24
		c-34.41,7.19-41.96,4.63-45.14-14.51C570.56,1019.8,577.74,1011.98,605.33,1009.13z M576.86,1033.82
		c8.41,8.05,13.32,14.03,19.59,17.65c1.24,0.71,10.74-7.4,11.12-11.88c0.68-8.11,1.65-20.42-11.77-19.69
		C590.54,1020.18,585.64,1027.07,576.86,1033.82z"/>
	<path class="st0" d="M662.13,1029.46c10.17,12.02,10.17,12.02,29.6,4.74c-2.67,10.48-10.7,15.92-21.13,14.31
		c-11.43-1.76-20.73-15.85-19.69-30.18c0.92-12.62,7.6-20.79,20.43-20.81c14.08-0.02,19.58,9.21,19.94,23.39
		C681.93,1023.66,672.8,1026.33,662.13,1029.46z"/>
	<path class="st0" d="M797.78,991.91c0.42,11.97-10.36,22.86-22.63,22.85c-11.96-0.01-23.5-13.85-23.96-28.74
		c-0.4-12.82,9.32-22.76,22.36-22.87C785.15,963.05,797.27,977.43,797.78,991.91z"/>
	<path class="st0" d="M327.8,976.65c-6.13,14.48-12.26,28.96-20.06,47.38c-12.23-9.03-29.13-15.26-30.8-24.29
		c-2.2-11.94,7.53-26.08,12.14-39.27c2.56,0.97,5.13,1.94,7.69,2.91c-2.88,7.89-7.01,15.6-8.21,23.73
		c-0.89,5.99-0.06,15.68,3.7,18.22c8.7,5.86,14.09-0.57,17.32-9.44c2.81-7.71,6.98-14.92,10.55-22.36
		C322.69,974.57,325.24,975.61,327.8,976.65z"/>
	<path class="st0" d="M438.48,1014.97c-11.54-1.89-19.26-3.16-30.07-4.93c5.65,17.18,31.68,14.68,22.54,34.21
		c-2.08,4.44-11.24,8.23-16.75,7.74c-6.76-0.59-13.11-5.98-19.63-9.29c0.76-1.22,1.53-2.44,2.29-3.66c8.2,1.91,16.4,3.82,27.31,6.37
		c-4.07-17.88-39.31-19.29-16.05-40.74C417.52,996.02,429.03,1001.96,438.48,1014.97z"/>
	<path class="st0" d="M529.65,1062.34c0-8.77,1.29-17.82-0.48-26.21c-1.08-5.11-6.88-9.22-10.56-13.77
		c-4.1,4.24-10.52,7.88-11.8,12.85c-2.24,8.72-1.34,18.25-1.75,27.44c-1.81,0-3.62-0.01-5.43-0.01c0-15.52,0-31.05,0-49.96
		c12.4,2.73,30.56,1.59,35.35,9.04c6.59,10.26,3.08,27.01,3.89,40.98C535.79,1062.58,532.72,1062.46,529.65,1062.34z"/>
	<path class="st0" d="M371.05,997.64c-10.32,0-19.96-2.48-26.65,0.89c-4.35,2.18-8.06,15.21-5.52,19.23
		c3.7,5.84,13.3,7.95,24.23,13.66c-7.34,1.17-14.03,3.98-19.9,2.79c-12.22-2.46-15.7-12.4-14.51-23.66
		c1.35-12.8,6.76-24.22,20.72-25.78C359.49,983.64,369.42,987.38,371.05,997.64z"/>
	<path class="st0" d="M635.67,1006.61c2.73,15.46,5.46,30.93,8.63,48.89c-12.48-8.27-17.56-30.41-13.55-47.81
		C632.39,1007.33,634.03,1006.97,635.67,1006.61z"/>
	<path class="st0" d="M526.18,517.62c0-21.27,0.12-40.57-0.02-59.86c-0.4-56.06-0.45-112.13-1.65-168.17
		c-0.36-16.61,6.97-19.94,20.89-17.23c2.81,0.55,5.59,1.32,8.42,1.63c58.95,6.32,79.82,24.98,88.16,82.77
		c5.52,38.23,4.82,76.57-9.04,113.51c-12.44,33.16-38.94,49.77-74.37,47.45C548.4,517.05,538.15,517.62,526.18,517.62z
		 M559.58,486.56c24.74-2.15,42.34-13.74,46.6-33.64c8.33-38.88,9.99-78.32-0.7-117.1c-6.51-23.63-19.18-31.04-45.9-29.72
		C559.58,365.82,559.58,425.59,559.58,486.56z"/>
	<path class="st0" d="M358.25,516.62c-11.33,0-20.72,0-32.01,0c0-24.92,0.12-49.4-0.03-73.87c-0.32-51.6-0.39-103.21-1.45-154.8
		c-0.27-13.02,4.34-17.18,16.71-16.86c29.62,0.77,55.74,7.73,69.6,37.26c13.29,28.3,7.11,60.28-16,85.41
		c27.96,35.29,29.07,79.49,41.01,120.11c-26.71,9.58-32.53,6.21-38.52-19.08c-5.13-21.67-10.37-43.41-17.44-64.49
		c-2.84-8.48-10.69-15.28-16.26-22.85c-1.87,0.93-3.74,1.86-5.61,2.79C358.25,445.3,358.25,480.37,358.25,516.62z M359.18,378.39
		c21.75-8.56,24.58-15.4,21.09-51.51c-1.13-11.71-8.7-18.33-21.09-20.57C359.18,330.61,359.18,353.66,359.18,378.39z"/>
	<path class="st0" d="M774.47,515.19c-27.09,6-29.14,4.74-33.55-19.86c-5.61-31.25-5.61-31.25-37.35-31.14
		c-3.36,0.01-6.73,0-11.38,0c-1.94,11.32-3.73,21.85-5.55,32.37c-4.43,25.66-10.62,29.1-36.38,20.43
		c14.64-76.02,29.69-151.94,43.5-228.09c2.42-13.36,7.83-16.66,20.16-16.66c11.55,0,17.15,2.66,19.41,15.37
		c12.72,71.54,26.49,142.9,39.82,214.34C773.97,506.34,774.05,510.86,774.47,515.19z M729.98,432.57
		c-5.11-31.39-10-61.42-14.89-91.44c-0.9,0-1.79,0-2.69,0c-5.04,30.33-10.08,60.65-15.2,91.45
		C709.38,432.57,718.77,432.57,729.98,432.57z"/>
	<path class="st0" d="M524.3,791.95c-28.26,5.79-29.15,5.2-32.94-21.86c-0.16-1.13-0.28-2.27-0.45-3.41
		c-3.85-24.97-19.02-34.37-43.45-26.28c-2.89,0.96-5.61,5.26-6.59,8.56c-1.94,6.54-2.67,13.45-3.78,20.23
		c-4.55,27.62-4.54,27.63-34.87,22.92c4.51-24.47,8.98-48.93,13.54-73.37c9.75-52.33,19.87-104.59,29.06-157.02
		c2.05-11.67,8.28-13.38,17.89-12.59c8.62,0.71,17.79-2.58,20.31,11.59c13.48,76.05,27.9,151.94,41.93,227.9
		C525.14,789.67,524.54,790.84,524.3,791.95z M480.39,709.14c-5.08-30.97-9.92-60.45-14.76-89.92c-1.17,0.11-2.34,0.22-3.51,0.33
		c-4.86,29.85-9.71,59.7-14.58,89.59C459.52,709.14,468.95,709.14,480.39,709.14z"/>
	<path class="st0" d="M679.99,794.17c0-82.67,0-163.14,0-243.92c29.54,0,57.8,0,87.45,0c0,11.05,0,20.45,0,31.44
		c-17.22,0-34.07,0-52.15,0c0,23.55,0,45.55,0,67.71c11.5,0,22.75,0.55,33.92-0.14c14-0.87,15.21,6.87,15.45,18.19
		c0.25,12.04-2.62,18.55-15.91,17.83c-10.69-0.57-21.43-0.12-33.45-0.12c0,24.75,0,50.19,0,78.13c18.5,0,36.48,0,53.97,0
		c4.95,30.78,4.9,30.85-22.33,30.86C725.22,794.19,703.5,794.17,679.99,794.17z"/>
	<path class="st0" d="M595.69,649.21c12.93,0,24.78,0,36.66,0c11.24,32.93,3.28,40.41-38.61,32.94c0,37.19,0,73.98,0,111.29
		c-11.87,0-20.9,0-30.7,0c-0.78-3.7-2.02-6.9-2.05-10.11c-0.61-72.09-0.73-144.18-1.87-216.26c-0.23-14.37,4.39-19.12,18.44-18.45
		c19.31,0.92,38.7,0.23,57.56,0.23c8.41,33.54,7.54,34.26-39.44,33.54C595.69,604.26,595.69,626.16,595.69,649.21z"/>
	<path class="st0" d="M366.7,588.92c-42.36-19.04-59.7-9.99-63.08,36.47c-2.47,33.98-2.33,68.74,1.93,102.48
		c5.17,40.91,23.45,47.61,58.67,26.4c1.31-0.79,3.08-0.82,10.78-2.72c-5.22,14.63-5.95,30.17-13.86,36.04
		c-15.69,11.65-37.09,17.61-53.7,2.39c-12.89-11.81-25.45-27.54-30.32-43.87c-15.17-50.88-14.71-102.8,2.21-153.6
		c6.45-19.35,17.15-36.18,38.69-42.81C349.02,540.16,369.23,555.66,366.7,588.92z"/>
	<path class="st0" d="M837.45,516.52c-9.5,0-18.86,0-32.38,0c13.59-84.22-9.59-162.01-36.12-239.02
		c30.55-7.78,33.24-6.01,39.01,21.64c4.4,21.13,9.23,42.17,16.64,63.1c4.81-20.96,9.67-41.91,14.41-62.89
		c6.35-28.18,6.76-28.47,38.87-22.78c-11.67,39.51-27.03,78.19-33.84,118.32C837.35,434.37,839.32,475.32,837.45,516.52z"/>
	<path class="st0" d="M210.21,275.23c25.63,0,49.44,0,74.57,0c0,9.68,0,18.48,0,28.96c-14,0-27.52,0-42.32,0
		c0,24.11,0,46.58,0,70.96c12.94,0,25.23,0,38.75,0c0,10.66,0,19.44,0,29.91c-12.93,0-25.27,0-39.74,0c0,37.91,0,74.22,0,111.52
		c-11.58,0-21.01,0-31.27,0C210.21,436.08,210.21,356.66,210.21,275.23z"/>
	<path class="st0" d="M456.18,517.99c0-38.11,0.34-73.32-0.09-108.52c-0.49-39.96-1.39-79.92-2.7-119.87
		c-0.48-14.61,6.22-18.45,19.72-18.57c13.62-0.12,15.87,6.03,15.81,17.84c-0.39,74.92-0.2,149.85-0.2,227.5
		C478.18,516.89,468.51,517.37,456.18,517.99z"/>
	<path class="st0" d="M293.13,118.92c23.47-9.27,25.67,17.85,41.93,19.84c-3.69-6.44-7.89-12.25-10.45-18.71
		c-1.87-4.72-1.58-10.29-2.25-15.49c2.34-0.6,4.69-1.2,7.03-1.8c11.37,21.52,22.89,42.96,33.88,64.66c1.11,2.2-0.01,7.53-1.82,8.67
		c-1.97,1.24-7,0.35-8.87-1.48c-7.68-7.5-14.66-15.71-23.35-25.26c-2.06,16.25,17.94,25.26,5.4,45.82
		C319.75,167.84,306.99,144.38,293.13,118.92z"/>
	<path class="st0" d="M438.56,139.92c-2.02-24.28-4.03-48.57-6.05-72.88c18.14-7.07,35.77,1.07,33.47,18.27
		c-2.16,16.15,5.77,26.73,10.69,39.53c1.85,4.81,0.71,10.77,0.93,16.2c-4.32-4.07-9.49-7.56-12.72-12.36
		c-3.58-5.31-5.38-11.83-11.74-16.86c0.88,5.81,2.51,11.64,2.44,17.44c-0.06,5.54-1.88,11.07-2.93,16.6
		c-4.34-3.81-8.69-7.61-12.93-11.33c-0.19,0.66-0.81,2.8-1.43,4.93C438.29,139.47,438.56,139.92,438.56,139.92z"/>
	<path class="st0" d="M490.74,139.49c-1.14-2.2-3.02-4.31-3.31-6.62c-2.67-21.44-5.35-42.88-7.28-64.39
		c-0.32-3.55,2.95-7.42,4.56-11.15c3.03,2.76,7.06,4.98,8.9,8.39c4.56,8.45,8.13,17.44,12.79,27.76
		c7.21-13.15-9.59-28.14,3.58-38.41c2.29,0,4.57,0,6.86,0c2.21,27.1,4.42,54.2,6.63,81.31c-2.82,0.7-5.63,1.39-8.45,2.09
		c-5.56-11.71-11.12-23.42-16.69-35.13c-1.05-0.11-2.11-0.22-3.16-0.33c0,12.04,0,24.07,0,36.11
		C493.7,139.23,492.22,139.36,490.74,139.49z"/>
	<path class="st0" d="M707.44,84.69c0,16.49,0,30.54,0,44.59c1.33,0.28,2.65,0.55,3.98,0.83c5.1-11.37,10.21-22.74,15.91-35.45
		c6.41,11.39-7.35,51.99-27.11,81.61c0-18.1,0-31.81,0-45.52c-1.28-0.23-2.55-0.47-3.83-0.7c-5.35,10.73-10.7,21.46-16.35,32.8
		C671.8,151.38,687.67,106.24,707.44,84.69z"/>
	<path class="st0" d="M563.4,137.37c-5.26-6.63-10.52-13.26-17.67-22.27c-4.58,10.45-7.28,16.6-9.97,22.74
		c-2.31-0.41-4.61-0.83-6.92-1.24c0.86-9.88,1.2-19.84,2.7-29.63c2.04-13.33,4.23-26.74,7.89-39.67c1.42-5.01,7.04-8.84,10.74-13.21
		c2.73,4.17,7.16,8.05,7.91,12.55c3.83,22.83,6.7,45.81,9.91,68.74C566.46,136.04,564.93,136.7,563.4,137.37z"/>
	<path class="st0" d="M682.21,97.8c-6.52,16.31-10.3,30.92-18.05,42.98c-3.75,5.84-16.37,11.01-22.38,8.95
		c-6.1-2.09-13.17-13.93-12.45-20.7c1.53-14.25,6.75-28.49,12.66-41.75c4.11-9.23,12.49-19.78,23.88-13.34
		C673.2,78.08,676.61,89.15,682.21,97.8z M662.73,83.37c-17.43,10.03-26.06,42.14-15.48,57.58
		C664.13,129.74,671.68,101.66,662.73,83.37z"/>
	<path class="st0" d="M438.29,139.47c-4.39,14.07-17.3,16.15-28.31,15.97c-3.86-0.06-8.55-12.7-11.06-20.2
		c-4.85-14.46-8.92-29.24-12.22-44.12c-1-4.52,0.12-12.94,2.78-14.17c6.81-3.16,15.03-3.29,22.68-4.63
		c-2.16,5.71-4.32,11.41-6.49,17.12c-1.85-0.34-3.7-0.69-5.55-1.03c1.82,6.05,3.63,12.1,5.45,18.16c1.36-0.04,2.72-0.08,4.08-0.12
		c0.94-3.59,1.87-7.18,3.11-11.94c3.45,4.64,9.39,9.14,9.13,13.25c-0.29,4.49-6.31,8.62-11.68,15.14c1.14,3.9,3.15,10.77,4.33,14.81
		c9.37,0.81,16.63,1.44,23.95,2.14C438.56,139.92,438.29,139.47,438.29,139.47z"/>
	<path class="st0" d="M709.85,173.92c16.03-19.61,31.97-39.29,48.26-58.67c1.22-1.45,6.13-1.92,7.3-0.77
		c1.89,1.84,3.5,5.85,2.78,8.18c-7.21,23.4-14.92,46.65-26.87,70.34c-0.97-3.74-1.87-7.51-2.94-11.23
		c-1.27-4.37-2.69-8.7-4.05-13.04c-3.69,1.61-7.42,3.1-11.04,4.86c-3.19,1.55-6.24,3.38-9.35,5.09
		C712.58,177.09,711.21,175.51,709.85,173.92z"/>
	<path class="st0" d="M578.36,137.77c-0.7-11.03-3.04-22.26-1.7-33.04c1.7-13.66,9.28-27.19-4.8-38.92
		c-0.86-0.72,2.09-8.32,2.76-8.24c10.59,1.19,21.12,3,31.55,5.2c0.6,0.13,0.67,6.98,0.26,7.06c-18.31,3.67-10.86,19.37-13.62,29.84
		c-2.59,9.81-2.68,20.26-4.44,30.33c-0.55,3.16-2.94,6.01-4.49,8.99C582.05,138.58,580.2,138.17,578.36,137.77z"/>
	<path class="st0" d="M338.82,98.14c10.26-4.77,18.22-8.89,26.54-12.08c2.63-1.01,6.22,0.49,9.36,0.85c-0.71,2.87-1.6,5.7-2.1,8.6
		c-0.8,4.65-3.09,9.97-1.7,13.92c5.13,14.5,12.08,28.37,17.08,42.91c1.49,4.33-1.2,10.09-1.97,15.19
		c-3.59-3.41-8.76-6.18-10.47-10.36c-5.8-14.19-10.24-28.93-15.48-43.36c-1.97-5.43-2.72-12.96-12.31-8.91
		C346.45,105.48,343.24,101.59,338.82,98.14z"/>
	<path class="st0" d="M765.11,193.31c4.92,5.71,9.18,10.64,13.43,15.58c-1.25,1.47-2.51,2.95-3.76,4.42
		c-8.25-4.94-16.49-9.88-26.09-15.64c13.73-20.64,26.52-40.19,39.82-59.39c1.69-2.43,6.06-3.01,9.19-4.44
		c-0.28,3.85,0.74,8.51-1.06,11.41C786.35,161.73,775.4,177.78,765.11,193.31z"/>
	<path class="st0" d="M323.78,194.39c-1.36,1.93-2.47,5.1-4.57,6.01c-1.94,0.85-6.27,0.17-7.26-1.34
		c-13.4-20.37-26.59-40.88-39.16-61.77c-1.11-1.85,2.48-6.53,3.89-9.9c2.76,1.3,6.68,1.85,8.09,4.02
		c12.33,19.06,24.21,38.41,36.2,57.68C321.87,190.53,322.57,192.09,323.78,194.39z"/>
	<path class="st0" d="M611.37,146.7c-2.35-4.19-7.26-8.82-6.62-12.49c3.67-21.18,8.49-42.16,13.4-63.1c0.58-2.46,4.12-4.22,6.29-6.3
		c1.42,3.09,4.44,6.43,4,9.23c-3.81,23.91-8.24,47.73-12.49,71.57C614.42,145.97,612.89,146.34,611.37,146.7z"/>
</g>
</svg>
