<?xml version="1.0" encoding="utf-8"?>
<!-- Generator: Adobe Illustrator 23.0.6, SVG Export Plug-In . SVG Version: 6.00 Build 0)  -->
<svg version="1.1" id="Layer_1" xmlns="http://www.w3.org/2000/svg" xmlns:xlink="http://www.w3.org/1999/xlink" x="0px" y="0px"
	 viewBox="0 0 1080 1080" style="enable-background:new 0 0 1080 1080;" xml:space="preserve">
<style type="text/css">
	.st0{fill:#FFFFFF;}
</style>
<g>
	<path class="st0" d="M1079.58,132.02c0-5.93-0.07-11.95-0.98-17.79C1068.16,47.38,1012.72,0.01,945.08,0.01
		C676.87,0,408.67,0,140.47,0.04c-5.92,0-11.85,0.43-17.76,0.83C58.75,5.22,0.35,59.27,0.38,136.02
		C0.49,402.6,0.43,669.19,0.42,935.77c0,8.1,0.06,16.17,1.02,24.25c5.54,46.5,28.91,81.02,69.61,103.89
		c21.52,12.09,45.06,16.05,69.36,16.06c261.17,0.06,522.35,0.04,783.52,0.02c9.98,0,19.94-0.12,29.93-0.69
		c71.45-4.08,125.76-61.35,125.75-132.92c-0.01-135.18,0-270.37,0-405.55C1079.62,404.55,1079.63,268.28,1079.58,132.02z
		 M1049.84,539.88c0,137.08,0.04,274.16-0.02,411.24c-0.03,50.51-45.77,97.31-96.3,98.25c-96.76,1.8-193.54,0.58-290.31,0.71
		c-174.12,0.22-348.23-0.29-522.35,0.25c-59.49,0.18-94.24-36.45-105.55-72.17c-3.37-10.64-4.98-21.5-4.98-32.6
		c-0.03-270.64-0.08-541.29,0.01-811.93c0.02-51.49,36.73-94.23,87.77-102.61c6.35-1.04,12.91-1.11,19.37-1.11
		c268.75-0.05,537.49-0.06,806.24-0.03c54.51,0,96.48,35.4,105.6,89.06c0.72,4.22,0.5,8.63,0.5,12.95
		C1049.85,267.88,1049.84,403.88,1049.84,539.88z"/>
	<path class="st0" d="M954.03,903.65c-3.56-4.02-9.56-5.37-11.83-10.81c-4.06-13.89-13.26-24.9-20.72-36.9
		c-2.95-8.61-8.17-15.41-15.92-20.28c-4.45-2.8-7.59-6.61-8.71-11.88c-1.22-3.07-3.11-5.74-5.57-7.84
		c-9.94-8.46-15.59-19.75-21.09-31.2c-2.18-4.54-2.68-9.99-7.05-13.37c-2.7-3.81-4.58-8.01-6.03-12.43
		c-0.67-10.83-9.84-21.09-21.62-24.18c-1.55-0.79-3.1-1.58-4.65-2.37c-1.54-1.45-2.55-3.67-5.14-3.64
		c-8.33-6.26-11.22-15.65-14.32-24.91c-1.01-2.16-2.01-4.33-3.02-6.49c-1.19-1.37-2.27-2.79-1.92-4.77c-0.42-2.5-1.68-4.59-3.14-6.6
		l-0.02-0.04c-1.23-5.64-4.94-9.05-10.06-11.19c-5.32-2.45-10.96-4.44-14.39-9.69c-0.56-1.72-1.64-2.88-3.45-3.26
		c-6.3-4.29-10.71-10.54-16.2-15.66c-3.28-1.69-1.89-4.47-1.79-7.08c0.42-12.06,0.28-24.18-4.27-35.54c-2-4.99-3.97-9.85-5.1-15.15
		c-3-14.09-4.43-28.83-15.07-40.07c-4.25-3.38-4.96-8.87-7.78-13.1c-0.23-0.82-0.75-1.36-1.56-1.62c-3.72-2.83-7.44-5.66-11.15-8.49
		c-0.65-1.58-1.99-2.31-3.49-2.85c-9.27-6.18-20.12-10.4-25.88-20.93c-3.24-7.07-6.41-14.16-9.73-21.19
		c-4.42-9.39-7.5-18.79-4.73-29.5c1.69-6.54,0.84-13.5-0.38-20.08c-2.76-14.82-4.29-29.8-6.52-44.68
		c-2.23-14.9-6.06-29.4-20.54-38.32c-5.64-3.48-10.08-8.86-13.23-14.97c-10.58-13.1-23.12-23.84-37.62-32.48
		c-10.37-6.18-20.31-13.09-30.44-19.67c-2.58-1.34-5.27-2.51-7.72-4.06c-12.06-7.62-24.5-14.37-39.11-15.24
		c-6.06-0.36-11.33-2.43-16.43-5.35c-15.59-2.78-31.23-5.18-47.06-6.24c-10.73-0.27-21.5-0.07-32.17-0.94
		c-8.94-0.73-17.06,0.66-24.62,5.39c-2.96,2.98-5.32,7.53-10.23,6.82c-14.56-2.11-26.55,4.1-38.44,10.99
		c-9.75,8.8-22.88,10.96-33.9,17.27c-3.27,1.91-7.01,4.38-10.48,2.13c-7.68-4.99-16.56-6.25-24.88-9.2
		c-5.01-1.77-9.34-4.46-11.61-9.39c-3.15-6.84-8.93-10.42-15.25-13.74c-5.58-2.93-11.95-2.95-17.56-5.52
		c-13.23-6.47-29.15-8.52-37.28-23.39c-1.87-3.42-5.14-6.18-8.07-8.91c-5.96-5.55-12.42-9.75-20.99-5.4
		c-3.66,3.93-5.85,9.72-12.49,9.87c-6.84,3.95-13.06,8.67-18.13,14.79c-1.15,0.75-1.29,1.75-0.72,2.93
		c0.33,2.43,0.19,4.69-0.82,7.07c-3.44,8.13-5.12,17.05-3.23,25.37c4.02,17.73-1.12,33.34-7.66,49.29
		c-6.85,16.7-12.03,33.88-12.62,52.33c-0.87,26.94-2.12,53.71,1.51,80.69c2.22,16.54,3.45,33.1,7.74,49.36
		c3.49,13.22,9.17,26.1,8.96,40.07c-0.15,9.73,2.99,17.98,8.72,25.45c4.43,5.77,9.09,11.36,13.75,16.95
		c2.47,2.97,3.76,5.44,2.43,9.97c-3.43,11.73,0.93,19.97,10.88,23.11c6.05-2.08,8.12,0.74,7.89,6.4c3.06,6.2,6.33,12.32,6.86,19.4
		c1.04,1.26,2.07,2.51,3.11,3.77c4.35,3.87,9.73,6.02,14.7,8.87c15.4,3.94,21.34,18.85,32.34,27.9c4.4,6.46,12.45,7.88,17.85,12.96
		c1.98,0.48,3.96,0.97,5.93,1.45c3.19-0.95,6,1.52,9.14,1c0.61-0.1,1.11,0.14,1.47,0.65c-1.06-1.02-1.79-0.41-2.46,0.51
		c0.17,0.42,0.35,0.82,0.55,1.22c7.45,2.47,15.58,0.01,22.93,3.19c7.73,0.71,15.37,1.59,19.23,9.84c7.11,6.38,15.8,5.48,24.33,5.29
		c3.25-0.61,6.49-1.22,9.74-1.84c4.33-1.61,8.66-3.22,12.99-4.82c3-2.31,6.51-0.4,9.69-1.19c2.82,0.44,4.85,2.27,6.95,3.97
		c6.89,0.61,13.99-0.76,20.66,2.08c7.39-1.79,12.13,0.84,14.83,8.08c1.28,3.42,3.8,6.38,5.76,9.54c9.18,5.96,15.04,15.4,23.34,22.28
		c5.97,3.9,11.93,7.79,17.9,11.69c4.79,2.73,9.59,5.47,14.38,8.2c0,0,0.03,0.02,0.03,0.02c6.12,5.84,14.02,5.57,21.64,6.28
		c3.87-1.07,7,2.47,10.81,1.76c9.19,0.64,18.39,1.28,27.58,1.92c10.91-1.24,21.5,3.63,32.45,1.69c0.55-0.06,1.1-0.11,1.65-0.17
		c2.4,0.55,4.37-0.66,6.42-1.56c14.68-7.02,26.14-1.49,36.26,9.29c6.63,4.85,12.96,10.22,21.68,11.07c1.9,0.18,3.37,1.52,3.49,3.75
		c2.47,4.15,6.43,5.9,10.76,7.68c7.18,2.96,15,0.87,22.09,3.61c6.98,0.37,13.85,2.45,20.92,1.53c5.71-2.41,11.57-3.97,17.86-3.05
		c11.09,0.47,18.32,7.76,25.81,14.6c7.6,5.41,14.95,11.12,21.61,17.67c4.81,2.7,9.12,6.75,15.46,4.83
		c11.43-3.47,16.87-1.46,23.18,8.26c11.08,7.99,21.89,16.39,34.09,22.7c9.2,1.65,18.69,0.7,27.8,3.17c2.5,0.66,4.59,2.58,5.32,4.52
		c3.24,8.51,10.34,9.71,17.91,10.47c1,0.1,1.95,0.72,2.92,1.1c9.51,2.93,13.16,12.35,20.12,18.11c10.34,4.4,17.62,13.64,28.12,17.79
		c7.45,1.79,14.28,7.5,22.63,3.57c10.13-7.99,15.58-18.68,18.61-31.04C961.66,915.11,960,908.87,954.03,903.65z M491.71,383.06
		c7.92-3.36,15.57-7.57,25.91-8.06c9.6,2.16,20.05,5.2,25.82,16.29c3,5.77,6.79,10.51,14.48,9.08c1.76-0.33,3.93-0.51,4.84,1.8
		c0.81,2.06-0.33,3.85-1.57,5.15c-12.1,12.75-19.65,15.38-28.65,0.82c-6.97-11.28-16.68-17.68-30.38-15.54
		c-6.2,0.97-7.92-3.84-11.21-6.93C488.99,383.84,490.81,383.45,491.71,383.06z M557.21,535.69c-6.53,8.1-11.97,16.69-17.34,25.36
		c-3.8,6.13-8.94,10.64-16.36,12.09c-5.1,1-8.56,4.08-10.62,8.95c-2.65,6.26-6.23,11.91-11.46,15.51
		C508.86,567.32,537.43,555.44,557.21,535.69z M449.94,416.59c12.22-10.38,25.42-11.41,37.65-0.54c1,0.89,2.06,1.8,2.76,2.91
		c5.55,8.77-2.24,34.42-11.9,37.56c-11.38,3.7-22.3,7.77-30.49,17.08c-1.84,2.09-4.59,2.82-7.44,1.77
		c-3.67-1.35-2.18-4.41-2.19-6.92c-0.01-1.62,0.2-3.23,0.44-6.61c-0.11-1.75-0.68-5.26-0.51-8.74
		C438.92,439.95,437.98,426.76,449.94,416.59z M619.54,752.68c-7.91,4.03-16,7.48-20.4,16.24c-2.15,4.28-2.71,6.44,1.8,9.56
		c10.39,7.17,20.27,15.09,30.35,22.7c-0.51,0.39-1.01,0.77-1.52,1.15c-10.79-1.01-19.61-6.38-26.53-14.05
		c-11.72-12.99-25.87-12.8-40.7-8.68c-18.03,5.01-35.71,0.18-53.52-0.81c-0.84,0.63-2.05,0.38-3.09-0.18
		c-28.35,0.18-51.49-12.61-72.31-30.12c-5.86-4.93-9.42-12.22-16.45-16.66c-4.15-2.62-6.14-8.51-7.52-13.94
		c-2.47-9.73-8.13-11.58-17.77-9.98c-8.04,1.34-16.97,1.95-24.16-4.31c-3.13-2.72-6.53-2.89-10.56-1.71
		c-9.82,2.88-19.73,5.49-29.7,7.79c-7.84,1.81-15.17,2-21.03-5.64c-5.91-7.69-15.69-7.6-24.2-9.85c-2.59-0.69-5.24-1.12-7.86-1.68
		c-21.56,0.63-36.87-11.24-49.25-26.7c-6.88-8.59-14.35-15.8-24.4-19.09c-11.35-3.72-14.93-12.75-15.85-22.16
		c-1-10.26-6.94-14-14.88-16.52c-5.15-1.63-7.67-2.58-3.49-8.43c3.17-4.44,1.57-9.94-1.8-14.34c-5.75-7.49-11.58-14.92-17.43-22.33
		c-5.01-6.35-7.56-13.2-7.49-21.61c0.14-16.41-6.78-31.53-10.16-47.32c-7.51-35.07-8.27-70.41-7.25-106.16
		c0.81-28.08,9.26-53.42,19.86-78.63c1.27-3.03,2.42-6.19,6.02-3.05c14.43,12.6,30.51,7.15,46.13,4.18
		c20.13-3.83,40.1-8.52,60.15-12.78c2.36-0.5,4.81-0.86,7.21-0.82c2.47,0.04,6.21-0.95,6.44,2.79c0.2,3.16-3.48,4.68-5.81,4.65
		c-20.43-0.27-37.6,12.19-57.71,14.04c-19.51,1.8-38.77,6.47-58.38,7.9c-0.05,0.44-0.19,0.88-0.09,0.95
		c4.45,2.9,0.86,11.46,7.1,11.92c4.47,0.33,9.23-2.59,13.78-4.28c34.14-12.72,70.2-16.8,105.65-23.64c1.66-0.46,2.06,0.25,1.63,1.75
		c-20.13,10.04-41.16,16.87-63.54,20.19c-15.47,2.3-28.94,11.43-44.03,15.57c-4.67,1.28-6.5,11.71-2.43,14.05
		c7.65,4.41,2.97,7.54-0.48,10.61c-3.96,3.53-7.77,6.81-5.63,13.9c19.47-13.46,43.27-13.58,64.15-22.44
		c1.79-0.48,2.27,0.3,1.85,1.93c-2.32,11.82-10.91,15.84-21.54,17.26c-4,0.53-8.05,0.72-12.03,1.34c-4.43,0.69-10.43,0.06-7.07,8.04
		c0.85,2.02-1.27,3.9-2.97,5.35c-2.87,2.45-5.68,4.97-8.5,7.47c-3.79,3.35-4.51,7.33-1.8,11.56c2.78,4.34,7.26,5.08,11.41,3.05
		c5.41-2.64,11.35-5.23,13.15-12c0.9-3.36,3.89-3.62,6.37-4.12c20.91-4.21,39.69-13.37,57.97-23.99c9.56-5.55,19.64-10.3,31.27-9.67
		c1.28,0.07,2.91-0.08,3.85-0.81c11.12-8.52,24.79-13.25,34.68-23.62c8.52-8.93,18.97-14.35,30.51-19.02
		c18.67-7.55,37.08-16.27,54.33-26.61c8.73-5.24,15.96-13.31,25.68-17.55c1.77-0.59,2.14,0.26,1.84,1.8
		c-6.2,5.48-11.51,11.47-11.83,20.37c-0.07,2.02-0.88,4.29-2.68,4.65c-8,1.63-14.08,7.9-22.07,9.14
		c-18.04,2.8-33.32,8.98-39.98,28.12c-1.88,5.4-6.9,7.58-12.62,6.33c-8.46-1.84-15.05,0.86-21.39,6.56
		c-7.67,6.9-16.36,12.58-27.06,13.64c-4.27,0.42-4.19,3.63-4.95,6.29c-1.82,6.33-3.71,11.37-12.51,9.39
		c-5.75-1.29-11.81,1.37-17.04,4.2c-15.46,8.36-32.15,12.34-49.36,14.81c-8.45,1.21-16.26,3.97-22.22,10.55
		c-4.77,5.27-4.38,8.39,1.7,12.19c2.73,1.7,6.24,2.96,5.99,6.87c-0.26,4.07-4.29,2.14-6.42,3.33c-1.68,0.94-3.59,1.88-3.77,3.91
		c-0.26,3.01,2.56,2.94,4.45,3.66c3.49,1.34,7.26,2.07,9.44,5.74c2.12,3.57,4.95,0.66,7.11,0.11c17.91-4.57,34.33-12.94,50.86-20.87
		c12.92-6.19,26.04-11.84,39.19-17.48c10.35-4.44,19.65-9.87,23.76-21.6c2.5-7.14,9.58-9.07,16.25-10.63
		c9.17-2.14,18.44-3.55,25.8-10.54c3.1-2.95,7.62-3.63,12.39-0.72c-6.73,5.9-14.09,9.87-21.38,13.74
		c-33.33,17.7-52.05,46.8-64.03,81.24c-1.13,3.26-2.06,6.44,0.95,9.73c6.81,7.47,11.4,16.34,14.91,25.79
		c1.89,5.07,5.29,9.13,10.81,13.54c-13.68,0.75-21.38-5.42-26.41-14.95c-12.18-23.08-11.69-46.05,2.06-68.56
		c-2.63-1.77-4.57-1.39-5.76,1.49c-2.97,7.2-8.93,8.72-15.88,8.6c-3.24-0.05-6.51,0.49-9.72,0.21c-8.12-0.72-13.54,0.48-17.11,9.9
		c-3.03,8-12.69,10.32-21.31,10.6c-5.35,0.17-10.8-0.6-16.1-1.55c-7.85-1.41-14.38-0.12-19.01,7c-4.16,6.41-9.67,8.18-16.7,4.59
		c-4.98-2.54-8.16-0.28-10.51,4.17c-2.42,4.6-3.86,9.53-4.86,14.56c-2.33,11.76-0.49,14.62,11.07,18.2
		c9.13,2.83,13.24,9.21,10.79,19.46c-1.72,7.2-0.3,12.68,4.63,17.71c5.69,5.82,6.97,11.9,1.23,18.55c-1.21,1.4-1.88,3.27-2.77,4.94
		c-6.96,13.08,0.94,27.09,15.91,27.99c5.92,0.36,11.88-0.13,17.72,1.45c9.49,2.56,13.48,8.39,12.01,17.99
		c-0.41,2.67-1.01,5.31-1.52,7.96c-2.89,15.01,7.49,25.59,22.47,22.9c1.06-0.19,2.39-0.18,3.09-0.82
		c6.38-5.82,11.61-12.75,17.91-18.73c3.15-2.99-0.49-8.18-4.67-10.47c-3.77-2.07-7.92-3.46-11.7-5.52
		c-10.45-5.68-11.76-14.58-3.55-23.1c1.69-1.75,3.71-3.25,5.09-5.21c1.93-2.75,7.7-5.7,3.93-8.75c-3.51-2.84-9.22-7.45-14.83-0.94
		c-2.61,3.03-5.53,7.54-10.73,5.41c-5.8-2.38-7.11-8.66-5.76-13.05c3.97-12.92-1.87-19.18-11.71-26.66
		c-17.46-13.27-18.85-38.73-12.81-56.47c2.67-7.86,9.57-11.1,17.55-9.33c2.66,0.59,4.91,1.18,2.83,4.66
		c-9,15.02-2.84,27.98,5.66,40.53c3.8,5.62,8.57,10.41,13.47,15.09c2.88,2.75,4.92,3.92,7.05-0.81c2.16-4.8,6.68-5.83,11.53-5.98
		c11.69-0.35,23.18,1.52,34.59,3.61c8.32,1.52,11.08,7.99,8.03,16.98c-2.04,6.02-6.35,10.61-10.1,15.56
		c-10.46,13.8-7.25,23.73,9.53,27.88c18.62,4.61,22.22,6.47,12.16,24.42c-2.94,5.26-2.94,11.46-4.15,17.25
		c-2.94,14.06-8.8,25.53-24.3,29.14c-7.22,1.68-10.7,6.69-11.58,13.88c-0.42,3.47-1.29,6.89-1.95,10.34
		c1.29,2.49,3.57,2.22,5.66,1.78c11.75-2.49,22.84,0.8,33.81,4.09c12.64,3.8,25.12,5.15,38.3,2.77c10.09-1.82,20.55-1.37,30.46,1.87
		c4.62,1.51,7.77,0.52,10.67-2.98c2.24-2.7,5.03-5.03,6.88-7.96c15.54-24.63,37.16-43.32,59.44-61.39c4.05,0.47,2.3,3.01,1.82,5.1
		c-3.09,15.35-13.62,25.91-23.65,36.79c-5.11,5.54-10.73,10.67-15.34,16.59c-9.01,11.57-9.2,21.99-1.14,34.26
		c11.43,17.41,28.62,28.18,45.65,39.06c10.93,6.99,22.7,12.3,35.03,16.34c0,0,0,0,0,0c12.56,2.42,25.11,4.83,35.47-5.99
		c1.83-1.92,4.02-1.09,6-0.18c8.2,3.74,16.31,3.04,24.21-0.69c20.4-9.64,41.84-17.22,60.43-30.46c0.53-0.38,1.43-0.23,3.02-0.43
		C633.49,746.24,626.29,749.24,619.54,752.68z M336.75,537.13c-5.74-3.34-3.96-7.57-1.61-11.72c1.03-1.81,2.67-3.63,4.49-4.58
		c13.84-7.23,20.84-19.77,26.81-33.32c1.6-3.63,4.04-7.06,6.72-10.01c5.31-5.85,11.23-4.62,11.73,3.17
		c0.66,10.08,5.49,17.53,10.47,25.53c3.35,5.39,6.91,10.16,12.09,13.82c4.06,2.87,4.15,6.13-0.15,8.87c-3.16,2.01-6.44,4-9.91,5.35
		c-5.23,2.02-9.52,4.82-12.32,9.85c-2.92,5.24-7.89,6.02-13.77,5.44c-6.71-1.53-10.71,2.44-13.66,8.16
		c-1.48,2.88-2.74,5.87-4.29,8.71c-2.59,4.78-6.22,7.43-11.93,5.23c-5.85-2.25-6.23-6.94-5.12-12.04c0.97-4.46,2.33-8.84,3.52-13.26
		C340.82,542.58,340.22,539.15,336.75,537.13z M798.2,867.83c0.79-0.08,1.57-0.16,2.36-0.23c3.12,0.86,4.97,3.1,6.51,5.78
		C803.52,872.37,800.45,870.75,798.2,867.83z M811,874.66c7.88,2.63,15.77,5.27,23.65,7.9C825.32,884.19,816.94,883.03,811,874.66z"
		/>
</g>
</svg>
