<?xml version="1.0" encoding="utf-8"?>
<!-- Generator: Adobe Illustrator 23.0.6, SVG Export Plug-In . SVG Version: 6.00 Build 0)  -->
<svg version="1.1" id="Layer_1" xmlns="http://www.w3.org/2000/svg" xmlns:xlink="http://www.w3.org/1999/xlink" x="0px" y="0px"
	 viewBox="0 0 1080 1080" style="enable-background:new 0 0 1080 1080;" xml:space="preserve">
<style type="text/css">
	.st0{fill:#FFFFFF;}
</style>
<path class="st0" d="M149.95,388.84c-1.45,0.09-2.11,0.14-2.77,0.17c-12.68,0.46-17.26,5.15-17.29,17.88
	c-0.07,28.6,0.03,57.21-0.23,85.81c-0.06,6.27-0.82,12.63-2.12,18.77c-3.37,15.91-13.85,24.88-29.39,28.18
	c-14.66,3.11-29.42,3.04-44.05-0.12c-20.98-4.53-32.22-18.84-32.72-42.77c-0.55-26.43-0.25-52.88-0.32-79.31c0-1.83,0-3.66,0-5.49
	c-0.07-20.69-4.53-22.18-20.04-23.41c0-1.23,0-2.48,0-4.04c20.18,0,40.22,0,60.69,0c0.07,1.3,0.15,2.65,0.21,3.89
	c-0.63,0.28-0.91,0.51-1.21,0.53c-14.91,0.66-18.78,4.65-18.79,19.45c-0.01,26.61-0.33,53.22,0.19,79.82
	c0.16,8.33,1.62,16.92,4.18,24.85c3.77,11.67,12.92,18,25.09,18.87c6.55,0.47,13.32,0.11,19.8-0.98
	c12.43-2.1,20.02-10.05,22.79-22.17c1.36-5.94,2.1-12.15,2.15-18.24c0.22-27.77,0.1-55.54,0.09-83.32c0-1.5,0.01-3-0.14-4.48
	c-0.81-8.06-4.36-11.96-12.3-13.33c-2.27-0.39-4.61-0.39-7.33-0.59c-0.09-1.36-0.17-2.73-0.27-4.36c17.93,0,35.51,0,53.52,0
	C149.76,385.79,149.85,387.14,149.95,388.84z"/>
<path class="st0" d="M298.97,503.65c1.62,1.16,4.22,1.99,4.72,3.52c5.1,15.52,16.75,22.09,31.93,23.68
	c9.82,1.03,19.24-0.46,27.47-6.54c14.09-10.41,15.86-28.82,2.78-40.35c-7.23-6.38-16.18-10.88-24.55-15.88
	c-8.25-4.94-17-9.08-25.1-14.23c-15.06-9.58-19.23-24.06-16.26-40.78c2.75-15.49,13.34-24,27.84-28.03
	c19.24-5.34,38.54-3.24,57.76,0.37c0.94,0.18,2.26,1.63,2.33,2.56c0.64,9.75,1.07,19.51,1.55,29.33c-3.95,1.21-5.88,0.56-7.03-3.62
	c-7.12-25.76-44.82-28.61-58.24-13.13c-8.06,9.29-8.85,22.93,0.54,30.82c7.75,6.53,17.14,11.14,25.92,16.41
	c9.94,5.97,20.34,11.25,29.96,17.68c23.12,15.46,22.64,56.64-8.23,69.94c-13.49,5.82-27.62,7.18-41.99,6.09
	c-9.42-0.71-18.79-2.31-28.13-3.78c-1.27-0.2-3.2-1.95-3.28-3.09c-0.7-9.76-1.05-19.55-1.51-29.33
	C297.94,504.72,298.46,504.19,298.97,503.65z"/>
<path class="st0" d="M258.38,525.36c0.33,12,2.2,10.1-8.34,12.59c-20.29,4.81-40.85,6.72-60.81-1.34
	c-21.26-8.58-32.26-25.97-37.53-47.28c-5.47-22.13-5.73-44.5,0.23-66.59c6.66-24.68,23.94-38.53,49.58-40.44
	c17.41-1.29,34.53,0.66,51.35,5.16c1.42,0.38,3.51,1.92,3.6,3.06c0.89,11.23,1.43,22.5,2.09,34.17c-2.08,0.09-3.82,0.17-5.75,0.26
	c-2.73-8.83-6.14-16.99-12.86-23.46c-19.37-18.67-52.59-12.12-62.72,12.65c-6.44,15.76-6.74,32.44-6.01,49.1
	c0.59,13.67,2.66,27.12,8.82,39.6c8.76,17.75,23.4,26.6,42.81,28.05C234.93,531.8,246.69,530.1,258.38,525.36z"/>
<path class="st0" d="M495.49,450.11c1.41-1.59,2.21-3.38,3.28-3.57c9.6-1.66,19.24-3.04,29.43-4.59c0,8.87,0,17.23,0,25.49
	c3.9-5.52,7.17-11.33,11.56-16.1c9.23-10,21.03-11.49,33.47-7.63c9.04,2.8,11.55,10.65,11.73,18.99
	c0.39,17.62,0.22,35.25,0.32,52.87c0.02,2.65,0.08,5.32,0.43,7.95c1.07,8.19,3.84,10.93,11.96,12.12c0.96,0.14,1.93,0.2,2.9,0.29
	c0.26,0.45,0.53,0.9,0.79,1.35c-1.14,0.77-2.28,2.2-3.43,2.21c-13.8,0.15-27.6,0.13-41.4,0.03c-1.01-0.01-2.01-1.06-3.02-1.63
	c1-0.74,1.91-1.93,3.01-2.13c8.69-1.63,12.25-4.28,12.38-12.3c0.32-19.76,0.39-39.56-0.48-59.3c-0.52-11.69-11.15-16.13-20.77-9.24
	c-10.56,7.56-16.47,18.66-18.1,31.05c-1.64,12.43-1.33,25.19-0.99,37.78c0.21,7.82,3.64,10.25,12.64,12.02c1,0.2,1.84,1.25,2.75,1.9
	c-0.93,0.64-1.86,1.84-2.8,1.85c-14.77,0.12-29.54,0.08-44.32,0.08c-0.28-0.49-0.55-0.99-0.83-1.48c1.02-0.8,1.93-2.1,3.07-2.33
	c9.97-2.03,12.33-3.79,12.63-14.05c0.57-19.26,0.59-38.56,0.2-57.83C511.7,454.53,508.55,452.3,495.49,450.11z"/>
<path class="st0" d="M892.55,579.72c-2.15,0-3.9,0-5.66,0c-292.76,0-585.53,0-878.29-0.08c-2.31,0-4.61-1.23-6.92-1.88
	c2.31-0.65,4.62-1.87,6.93-1.87c291.77-0.09,583.53-0.08,875.3-0.04C886.97,575.84,890.73,574.63,892.55,579.72z"/>
<path class="st0" d="M465.58,655.64c0,13.83,0,27.25,0,41.04c-3.96,0-7.69,0-11.77,0c0-19.44,0-38.79,0-58.8
	c4.46,0,8.91-0.26,13.31,0.15c1.35,0.13,2.95,1.83,3.74,3.22c6.44,11.39,12.72,22.88,19.16,34.54c0-12.43,0-24.83,0-37.58
	c4.06,0,7.79,0,11.86,0c0,19.41,0,38.79,0,58.82c-3.92,0-7.92,0.35-11.79-0.18c-1.5-0.2-3.16-2.14-4.02-3.7
	C479.22,680.85,472.55,668.46,465.58,655.64z"/>
<path class="st0" d="M799.55,441.91c0,2.48,0,4.28,0,6.08c0,24.12-0.01,48.24,0.01,72.37c0.01,10.51,2.55,13.47,12.82,15.43
	c1,0.19,1.83,1.25,2.74,1.9c-0.94,0.64-1.87,1.83-2.81,1.84c-13.97,0.12-27.95,0.12-41.92,0c-0.98-0.01-1.96-1.12-2.93-1.71
	c0.86-0.7,1.69-1.95,2.6-2.01c10.43-0.67,13.08-7.38,13.01-15.94c-0.15-18.3-0.02-36.6-0.06-54.9c-0.02-9.28-3.13-12.67-12.46-14.18
	c-1.13-0.18-2.09-1.39-3.13-2.12c0.92-0.77,1.75-2.05,2.76-2.21C779.66,444.87,789.18,443.48,799.55,441.91z"/>
<path class="st0" d="M271.77,696.8c-12.42,0-24.5,0-37.05,0c0-19.6,0-39.07,0-58.67c12.04,0,23.77,0,35.8,0c0,3.66,0,7.05,0,11.03
	c-7.52,0-14.77,0-22.33,0c0,4.14,0,7.69,0,11.87c7.17,0,14.07,0,21.2,0c0,3.88,0,7.15,0,11.01c-6.99,0-13.92,0-21.17,0
	c0,4.66,0,8.74,0,13.41c7.68,0,15.39,0,23.56,0C271.77,689.43,271.77,692.81,271.77,696.8z"/>
<path class="st0" d="M562.17,638.14c11.95,0,23.67,0,35.63,0c0,3.55,0,6.82,0,10.76c-7.34,0-14.7,0-22.39,0c0,4.23,0,7.8,0,12.14
	c7.03,0,14.05,0,21.28,0c0,3.87,0,6.98,0,10.86c-7.05,0-14.06,0-21.33,0c0,4.85,0,8.95,0,13.65c7.66,0,15.37,0,23.47,0
	c0,3.97,0,7.36,0,11.13c-12.05,0-24.12,0-36.66,0C562.17,677.26,562.17,657.79,562.17,638.14z"/>
<path class="st0" d="M405.78,696.71c0-19.79,0-39.01,0-58.54c11.93,0,23.64,0,35.75,0c0,3.43,0,6.81,0,10.82
	c-7.32,0-14.54,0-22.15,0c0,4.14,0,7.69,0,11.96c6.85,0,13.71,0,20.86,0c0,3.96,0,7.21,0,10.99c-6.87,0-13.62,0-20.81,0
	c0,4.71,0,8.91,0,13.71c7.66,0,15.38,0,23.43,0c0,3.96,0,7.34,0,11.07C430.51,696.71,418.3,696.71,405.78,696.71z"/>
<path class="st0" d="M186.99,638.11c11.99,0,23.55,0,35.51,0c0,3.51,0,6.89,0,11.03c-5.41,0-10.86,0.31-16.26-0.09
	c-4.91-0.37-7.24,0.99-6.34,6.24c0.27,1.59,0.04,3.27,0.04,5.68c7.43,0,14.45,0,21.52,0c0,4.05,0,7.32,0,11.2
	c-7.13,0-14.03,0-21.22,0c0,4.69,0,8.76,0,13.4c7.84,0,15.56,0,23.66,0c0,3.95,0,7.34,0,11.11c-12.31,0-24.5,0-36.92,0
	C186.99,677.18,186.99,657.94,186.99,638.11z"/>
<path class="st0" d="M397.59,639.57c-0.99,3.72-1.83,6.87-2.73,10.27c-10.3-2.26-20.64-4.02-27.04,6.52
	c-4.5,7.41-4.53,15.9,0.63,23.11c6.62,9.26,16.32,7.85,25.84,5.56c0.37,0.55,0.78,0.91,0.86,1.33c2.08,10.14,1.72,10.69-8.94,11.14
	c-4.29,0.18-8.72,0.29-12.9-0.53c-14.68-2.88-22.63-13.55-22.53-29.56c0.09-15.09,9.5-26.75,23.81-29.61
	C382.24,636.26,389.72,636.57,397.59,639.57z"/>
<path class="st0" d="M64.72,684.99c0.69,3.37,1.35,6.58,2.16,10.55c-12.47,3.1-24.59,4.27-35.41-3.7
	c-10.84-7.99-12.42-19.7-9.82-31.9c2.66-12.48,11.07-19.98,23.52-22.06c5.61-0.94,11.53-0.24,17.29,0.06
	c3.87,0.2,5.75,2.09,3.86,6.26c-0.79,1.75-1.06,3.75-1.58,5.71c-10.06-2.32-19.93-3.98-26.56,5.77c-4.96,7.31-5.03,15.73-0.25,23.1
	C44.47,688.84,54.54,687.31,64.72,684.99z"/>
<path class="st0" d="M554.43,638.19c0,3.76,0,7.17,0,11.12c-5.15,0-10.04,0-15.57,0c0,16.02,0,31.51,0,47.37c-4.85,0-9.05,0-13.68,0
	c0-15.65,0-31.04,0-46.99c-5.28,0-10.16,0-15.42,0c0-4.1,0-7.63,0-11.5C524.46,638.19,539.16,638.19,554.43,638.19z"/>
<path class="st0" d="M778.89,411.14c0.01-6.93,5.02-12,11.81-11.94c6.45,0.06,11.7,5.22,11.84,11.63
	c0.14,6.68-5.06,12.02-11.79,12.11C783.84,423.04,778.89,418.11,778.89,411.14z"/>
<path class="st0" d="M992.93,577.79c2.4-0.66,4.79-1.89,7.19-1.9c24.24-0.14,48.47-0.09,72.71-0.08c1.16,0,2.37-0.04,3.45,0.29
	c0.6,0.18,1.36,1.1,1.35,1.68c-0.01,0.58-0.78,1.42-1.41,1.65c-0.9,0.33-1.96,0.27-2.95,0.27c-25.9,0.01-51.79,0.01-77.69,0
	c-0.79,0-1.57-0.14-2.36-0.21C993.13,578.92,993.03,578.36,992.93,577.79z"/>
<path class="st0" d="M756.16,434.55c-6.2-30.19-25.87-47.43-57-49.14c-24.37-1.34-48.85-0.81-73.29-1.09
	c-0.28,0-0.55,0.29-1.21,0.66c0.11,1.19,0.23,2.54,0.35,3.82c16.36,0.96,20.03,4.89,20.12,20.99c0.01,1,0,2,0,2.99
	c0,26.61,0.01,53.23-0.01,79.84c-0.01,8.65,0.24,17.32-0.25,25.94c-0.63,11.18-4.11,14.49-15.17,15.83
	c-1.48,0.18-2.95,0.39-4.6,0.61c-1.33,4.05,0.48,4.67,3.61,4.65c15.97-0.09,31.94,0.17,47.9-0.13c8.95-0.17,17.95-0.71,26.82-1.88
	c28.17-3.71,45.91-19.64,52.37-47.26c1.8-7.7,2.91-15.76,2.88-23.65C758.65,455.99,758.32,445.02,756.16,434.55z M732.6,492.07
	c-5.5,23.61-20.9,36.18-45.17,37.79c-4.14,0.27-8.31,0.24-12.46,0.06c-4.52-0.2-7.5-2.54-8.19-7.18c-0.41-2.78-0.81-5.6-0.82-8.4
	c-0.07-17.63-0.04-35.25-0.04-52.88c0-17.29,0-34.59,0-51.88c0-1.5-0.02-3,0.08-4.49c0.66-9.45,2.85-11.92,12.36-11.34
	c8.71,0.53,17.7,1.14,25.95,3.69c16.09,4.98,24.58,17.52,28.21,33.36C737.19,451.16,737.33,471.73,732.6,492.07z"/>
<path class="st0" d="M995.07,429.63c-2-3.94-6.83-5.59-12.23-4.34c-5.39,1.25-9,4.91-11.64,9.49c-2.22,3.85-4.08,7.91-6.16,12.01
	c-11.54-6.22-23.63-5.68-35.7-3.47c-14.1,2.58-22.03,10.87-24,24.95c-1.82,12.98,0.38,24.9,10.28,33.25
	c-2.68,6.1-6.02,11.59-7.45,17.52c-1.59,6.64,2.56,11.86,6.46,14.94c-4.49,5.43-9.98,9.83-12.47,15.54
	c-5.11,11.71,1.5,23.96,15.3,29.08c19.27,7.15,38.49,6.37,56.97-2.96c8.47-4.27,14.58-10.93,17.32-20.27
	c4.87-16.62-2.11-28.41-18.99-31.62c-4.37-0.83-8.91-0.83-13.39-0.96c-10.79-0.31-21.63,0.04-32.37-0.85
	c-8.08-0.67-10.76-7.4-6.24-14.05c0.68-1,2.61-1.71,3.92-1.65c8.4,0.38,16.82,1.85,25.16,1.39c14.63-0.8,25.2-9.45,28.13-22.03
	c2.73-11.71,1.18-22.73-6.05-32.75c-1-1.38-1.2-4.07-0.6-5.73c2.01-5.62,4.34-6.39,9.91-4.03c4.96,2.1,10.29,1.49,12.91-1.74
	C997.08,437.72,997.1,433.62,995.07,429.63z M929.72,537.62c5.16,0,10.31,0,15.47,0c0,0.02,0,0.03,0,0.05
	c5.99,0,11.99-0.22,17.96,0.06c6.36,0.29,12.45,1.81,15.18,8.46c2.85,6.96,0.44,13.15-4.28,18.37c-6.47,7.15-15.15,10.08-24.4,11.16
	c-7.3,0.85-14.6,0.54-21.51-2.64c-8.91-4.11-14.15-11.91-13.74-20.67C914.79,543.83,921.23,537.62,929.72,537.62z M961.86,476.77
	c-0.22,2.81-0.19,5.66-0.69,8.41c-1.89,10.43-7.3,15.36-17.23,15.98c-10.05,0.63-16.56-3.83-19.68-13.8
	c-2.58-8.24-2.77-16.67-0.81-25.05c1.86-7.94,6.91-12.25,14.83-13.28c8.57-1.12,16.14,1.87,19.32,9.05
	c2.56,5.76,3.57,12.21,5.27,18.35C962.53,476.54,962.19,476.66,961.86,476.77z"/>
<path class="st0" d="M477.26,522.81c0-17.29,0.12-34.59-0.04-51.88c-0.13-14.15-5.45-23.16-16.16-26.49
	c-14.02-4.36-28.04-3.7-41.07,3.35c-3.95,2.14-7.61,6.09-9.7,10.1c-3.11,5.95,0.03,11.7,6,13.41c6.08,1.74,11.53-1.87,12.67-8.51
	c0.28-1.63-0.16-3.47,0.43-4.93c0.94-2.36,1.91-5.24,3.81-6.58c9.41-6.65,23.9-1.36,26.19,9.88c1.41,6.91,0.97,14.19,1.51,21.29
	c0.26,3.36-1.34,4.3-4.38,4.44c-4.31,0.19-8.62,0.6-12.9,1.15c-10.12,1.31-20.04,3.39-28.27,9.98c-7.95,6.37-10.16,15.07-8.53,24.63
	c1.49,8.73,6.95,14.76,15.43,17.29c12.17,3.63,23.33,1.33,32.95-7.18c1.79-1.58,3.33-3.45,5.21-5.43c3,10.9,5.61,13.68,14.49,14.09
	c4.75,0.22,9.59-0.58,14.32-1.38c1.16-0.2,2.02-2.19,3.02-3.35C479.19,536.61,477.26,534.8,477.26,522.81z M457.45,520.3
	c-0.8,1.44-1.63,2.9-2.67,4.17c-4.69,5.75-10.55,9.33-18.16,7.68c-6.81-1.48-9.97-6.82-11.22-13.2c-1.56-7.93,0.84-14.56,7.83-18.91
	c8.14-5.07,17.29-6.38,27.46-6.37C460.83,503.03,462.05,511.99,457.45,520.3z"/>
<path class="st0" d="M1076.15,469.09c-5.24-14.86-15.74-24.1-31.41-26.46c-15.59-2.35-29.9,0.55-40.6,13.32
	c-8.54,10.2-10.99,22.43-11.27,35.43c0.58,5.27,0.78,10.61,1.8,15.78c4.12,20.92,19.25,33.69,40.41,34.44
	c20.9,0.74,36.67-10.8,42.3-31.35C1081.17,496.47,1080.92,482.61,1076.15,469.09z M1056.16,519.88c-2.9,8.75-9.34,14.32-19.35,14.46
	c-9.98,0.14-16.5-5.13-19.86-13.82c-7.46-19.32-7.5-38.92,0.24-58.2c3.34-8.32,9.74-13.37,19.16-13.39
	c9.4-0.03,16.23,4.81,19.16,13.26c3.27,9.43,4.92,19.42,7.24,29.06C1060.51,501.3,1059.15,510.86,1056.16,519.88z"/>
<path class="st0" d="M860.47,442.09c-26-1.04-39.85,8.95-44.13,32.37c-2.01,11.03-1.81,22.21,0.89,33.15
	c3.77,15.26,12.64,26.24,27.99,31c13.33,4.13,26.82,3.67,40.37,0.68c4.74-1.04,5.28-3.58,3.97-7.7
	c-15.53,4.14-30.02,2.82-41.69-9.03c-11.16-11.34-14.76-25.77-15.3-41.64c20.18,0,39.75,0,59.6,0
	C895.23,459.12,881.75,442.94,860.47,442.09z M832.63,473.72c0.78-9.1,4.23-16.67,11.81-21.75c6.27-4.2,13.32-4.51,19.78-0.6
	c8.17,4.94,9.66,13.25,9.85,22.35C860.23,473.72,846.7,473.72,832.63,473.72z"/>
<path class="st0" d="M315.08,668.91c7.47-4.04,10.82-10.2,9.08-18.62c-1.63-7.87-7.58-11.45-14.73-12.04
	c-8.85-0.73-17.82-0.18-26.82-0.18c0,20.18,0,39.36,0,58.63c4.51,0,8.59,0,12.98,0c0-3.99,0-7.63,0-11.28c0-3.78,0-7.55,0-11.23
	c8.43-1.07,11.25,0.81,13.21,8.28c0.97,3.69,1.75,7.46,3.06,11.03c0.52,1.4,2.14,3.19,3.45,3.36c3.55,0.46,7.19,0.16,11.31,0.16
	C320.65,674.5,320.65,674.5,315.08,668.91z M309.88,659.58c-2.88,5.53-8.58,4.28-14.07,4.02c0-5.43,0-10.33,0-15.69
	c5.08-0.48,10.41-1.7,13.66,3.03C310.89,653.02,311.06,657.31,309.88,659.58z"/>
<path class="st0" d="M642.31,669.02c1.12-0.75,2.1-1.37,3.03-2.05c4.99-3.68,7.08-8.71,6.39-14.77c-0.7-6.13-3.94-10.63-9.87-12.57
	c-10.67-3.49-21.47-2.16-32.22-0.87c0,19.68,0,38.7,0,57.88c4.52,0,8.73,0,13.47,0c0-7.82,0-15.22,0-22.54
	c8.31-0.81,10.92,0.9,12.88,8.08c1.05,3.84,1.88,7.74,3.16,11.5c0.45,1.3,1.87,3.07,3,3.19c3.72,0.4,7.5,0.15,12.25,0.15
	C649.81,687.03,651,676.02,642.31,669.02z M637.86,657.93c-0.4,3.87-3.93,5.49-7.67,5.81c-2.14,0.18-4.3,0.03-7.3,0.03
	c0-4.78-0.06-9.06,0.05-13.34c0.02-0.87,0.74-2.5,1.03-2.47c3.86,0.35,8.18,0.05,11.37,1.78
	C637.18,650.76,638.14,655.2,637.86,657.93z"/>
<path class="st0" d="M166.56,668.98c1.03-0.65,1.9-1.14,2.71-1.71c5.83-4.1,7.61-9.83,6.46-16.61c-1.06-6.29-5.19-10.05-11.03-11.58
	c-10.1-2.65-20.3-1.7-30.6-0.32c0,19.55,0,38.61,0,57.98c4.32,0,8.38,0,13.03,0c0-7.71,0-15.12,0-22.4c7.94-1.36,11.11,0.6,13,7.61
	c1.04,3.84,1.92,7.74,3.13,11.52c0.41,1.28,1.54,3.2,2.48,3.29c3.99,0.37,8.02,0.16,12.9,0.16
	C174.18,686.95,175.24,676.04,166.56,668.98z M162.24,657.72c-0.5,4.1-4.04,5.75-7.97,6.04c-2.12,0.16-4.26,0.03-7.2,0.03
	c0-4.91-0.06-9.17,0.05-13.42c0.02-0.84,0.83-2.4,1.14-2.37c3.98,0.41,8.3,0.3,11.73,1.97
	C161.68,650.79,162.55,655.15,162.24,657.72z"/>
<path class="st0" d="M108.67,639.61c-4.55-0.58-9.09-1.38-13.66-1.64c-1.63-0.09-3.35,1.1-5.01,1.73c-0.1,0.04-0.13,0.29-0.18,0.45
	c-5.68,18.56-11.37,37.12-17.04,55.65c8.88,3.7,13.57,1.66,15.87-6.64c0.4-1.44,0.46-3.13,1.29-4.25c0.99-1.33,2.59-3,4.02-3.11
	c12.82-0.96,12.82-0.87,16.84,11.47c0.15,0.47,0.11,1.11,0.41,1.42c0.85,0.84,1.8,2.14,2.78,2.21c3.89,0.25,7.8,0.1,12.42,0.1
	C120.31,677.27,114.49,658.44,108.67,639.61z M92.86,671.47c1.87-7.18,3.67-14.09,5.87-22.55c2.4,8.31,4.41,15.26,6.51,22.55
	C100.99,671.47,97.23,671.47,92.86,671.47z"/>
</svg>
