<?xml version="1.0" encoding="utf-8"?>
<!-- Generator: Adobe Illustrator 23.0.6, SVG Export Plug-In . SVG Version: 6.00 Build 0)  -->
<svg version="1.1" id="Layer_1" xmlns="http://www.w3.org/2000/svg" xmlns:xlink="http://www.w3.org/1999/xlink" x="0px" y="0px"
	 viewBox="0 0 1080 1080" style="enable-background:new 0 0 1080 1080;" xml:space="preserve">
<style type="text/css">
	.st0{fill:#FFFFFF;}
</style>
<g>
	<path class="st0" d="M281.16,365.98c-0.77,2.54-2.04,5.04-2.23,7.62c-4.3,59.13-8.45,118.28-12.7,177.41
		c-2.13,29.69-4.51,59.37-6.51,89.07c-0.35,5.13-2.23,6.97-7.3,6.96c-38.04-0.12-76.08-0.11-114.12-0.01
		c-4.35,0.01-6.31-1.69-6.88-5.97c-4.53-34.22-9.21-68.41-13.79-102.62c-5.82-43.39-11.57-86.78-17.4-130.17
		c-6.16-45.86-13.59-91.59-18.1-137.61c-2.67-27.28-0.87-55-0.69-82.52c0.01-1.76,3.38-5,5.22-5.02
		c26.77-0.35,53.55-0.19,80.33-0.33c6.52-0.03,6.25,4.61,6.56,8.73c2.28,29.94,4.47,59.88,6.65,89.83
		c4.03,55.39,7.97,110.79,12.18,166.17c0.26,3.37,2.57,6.58,3.93,9.86c1.08-3.28,2.9-6.51,3.14-9.85
		c6.06-84.34,11.95-168.69,17.89-253.04c0.82-11.64,0.86-11.67,12.67-11.67c35.54-0.01,71.08,0.18,106.61-0.12
		c7.09-0.06,9.64,2.31,10.12,9.29c5.43,78.11,11.09,156.21,16.7,234.32c0.59,8.23,1.12,16.48,2.08,24.67
		c0.27,2.27,2.03,4.35,3.1,6.52c1.14-2.17,3.11-4.28,3.29-6.53c2.93-37.16,5.67-74.33,8.37-111.51c3.59-49.4,7.23-98.8,10.51-148.22
		c0.43-6.51,2.58-8.58,8.98-8.52c25.27,0.27,50.55,0.12,75.83,0.08c4.29-0.01,8.12,0.08,8.01,6.06
		c-0.54,29.25,0.85,58.68-1.85,87.72c-3.82,41.05-10.66,81.82-16.16,122.72c-9.61,71.41-19.18,142.83-28.78,214.25
		c-1.23,9.17-2.69,18.32-3.82,27.5c-0.53,4.31-2.65,5.99-6.93,5.98c-38.04-0.08-76.08-0.13-114.12,0.02
		c-6.49,0.03-7.05-3.71-7.4-8.69c-4.44-63.9-8.98-127.79-13.53-191.68c-1.72-24.2-3.52-48.4-5.36-72.6c-0.2-2.6-0.96-5.15-1.47-7.73
		C283.2,366.25,282.18,366.11,281.16,365.98z"/>
	<path class="st0" d="M566.86,871.87c0.01-65.57,0-131.13,0.01-196.7c0-11.06,0.04-11.07,11.28-11.08
		c21.02-0.02,42.04,0.1,63.06-0.11c5.28-0.05,7.85,1.59,9.54,6.97c17.28,54.88,34.85,109.68,52.5,164.44
		c1.05,3.27,3.54,6.08,5.35,9.1c0.94-3.52,2.69-7.04,2.71-10.57c0.18-53.3,0.13-106.61,0.17-159.91c0.01-9.78,0.22-9.93,10.22-9.93
		c20.02-0.01,40.04,0,60.06,0c10.82,0,10.96,0.01,10.98,10.6c0.07,40.29,0.03,80.58,0.03,120.87c0.01,91.34,0.02,182.68,0.04,274.03
		c0,10.18,0.01,10.22-9.77,10.23c-21.02,0.02-42.04-0.14-63.06,0.09c-6.07,0.07-9.1-1.65-11.1-8.02
		c-17.31-55.12-35.08-110.1-52.72-165.12c-0.38-1.19-0.54-2.58-1.29-3.49c-1.13-1.39-2.68-2.43-4.05-3.62
		c-0.87,1.58-2.44,3.14-2.51,4.75c-0.3,7.5-0.21,15.01-0.21,22.52c0.02,48.05-0.11,96.1,0.23,144.14c0.05,7.13-2.35,8.96-9,8.86
		c-21.27-0.3-42.55-0.35-63.81,0.02c-7.02,0.12-8.84-2.36-8.81-9.12C566.94,1004.5,566.86,938.19,566.86,871.87z"/>
	<path class="st0" d="M201.9,751.31c-4.62-0.22-7.27-0.45-9.91-0.46c-34.27-0.04-68.55-0.17-102.82,0.04
		c-6.18,0.04-8.19-1.87-8.11-8.13c0.32-23.76,0.25-47.53,0.03-71.3c-0.05-5.45,1.64-7.49,7.26-7.47c70.3,0.13,140.6,0.13,210.89,0
		c5.88-0.01,7.88,2.01,7.8,7.88c-0.27,20.01,0.15,40.03-0.3,60.03c-0.12,5.28-1.52,10.91-3.79,15.69
		c-31.71,66.88-63.67,133.64-95.59,200.41c-5.5,11.5-11.11,22.95-16.62,34.44c-1.37,2.86-2.55,5.81-4.38,9.99
		c3.81,0.25,6.38,0.57,8.96,0.57c34.27,0.03,68.55,0.18,102.82-0.12c6.85-0.06,9.06,1.91,8.95,8.91c-0.4,23.26-0.31,46.53,0,69.79
		c0.08,6.12-1.72,8.31-8,8.29c-69.8-0.16-139.6-0.18-209.39,0.04c-7.04,0.02-8.76-2.42-8.63-9.11c0.39-20.51-0.27-41.04,0.35-61.53
		c0.17-5.68,2.74-11.57,5.27-16.85c32.3-67.71,64.8-135.31,97.22-202.96C189.71,777.36,195.36,765.18,201.9,751.31z"/>
	<path class="st0" d="M811.1,871.61c0-66.06,0.09-132.13-0.13-198.19c-0.02-7.16,2.08-9.49,9.4-9.46
		c56.8,0.26,113.61,0.2,170.41,0.01c6.09-0.02,8.51,1.76,8.45,8.07c-0.22,23.77-0.22,47.55,0.08,71.32
		c0.08,6.23-2.66,7.61-8.12,7.58c-26.02-0.16-52.05,0.09-78.07-0.26c-6.64-0.09-8.69,2.07-8.58,8.61
		c0.33,19.51,0.4,39.04-0.06,58.55c-0.17,7.21,2.5,8.93,9.17,8.83c22.52-0.32,45.04,0.04,67.56-0.26c6.21-0.08,8.41,1.45,7.55,8.07
		c-3.06,23.56-5.8,47.17-8.22,70.8c-0.62,6.03-2.87,8.21-8.86,8.13c-19.52-0.25-39.04,0.11-58.55-0.26
		c-6.61-0.12-8.72,2.11-8.62,8.65c0.32,21.02,0.31,42.04,0.02,63.06c-0.09,6.16,1.83,8.34,8.12,8.27
		c25.77-0.27,51.55,0.11,77.32-0.26c7.29-0.11,9.42,2.28,9.3,9.45c-0.39,23.02-0.29,46.04-0.01,69.06c0.07,5.93-1.4,8.58-7.85,8.56
		c-57.3-0.18-114.61-0.21-171.91-0.05c-6.49,0.02-8.54-1.99-8.52-8.61c0.23-66.56,0.14-133.13,0.14-199.69
		C811.12,871.61,811.11,871.61,811.1,871.61z"/>
	<path class="st0" d="M655.7,70.32c0-19.74,0.19-39.49-0.11-59.23c-0.1-6.32,2.23-8.37,8.34-8.15c9.99,0.36,20.01,0.45,30,0.02
		c6.75-0.29,8.46,2.4,8.41,8.8c-0.27,36.26-0.19,72.51-0.13,108.77c0.01,3.5-1.04,7.8,4.86,8.32c6.19,0.54,7.62-2.36,7.6-7.96
		c-0.15-35.76-0.05-71.52-0.03-107.27c0-10.51,0.02-10.55,10.29-10.57c9.75-0.02,19.51,0.1,29.26-0.02
		c4.44-0.05,7.18,1.21,7.16,6.28c-0.16,39,0.36,78.02-0.57,117.01c-0.49,20.49-11.37,32.76-31.53,37.34
		c-20.29,4.61-40.32,3.65-58.41-8.38c-9.37-6.23-14.45-15.17-14.56-26.46c-0.19-19.5-0.05-39-0.05-58.5
		C656.05,70.32,655.87,70.32,655.7,70.32z"/>
	<path class="st0" d="M128.51,83.69c0,15-0.07,30.01,0.03,45.01c0.04,5.17,1.5,9.79,7.88,9.65c6.51-0.14,7.24-5.31,7.52-10.15
		c0.43-7.49,0.65-15,0.56-22.5c-0.07-5.11,1.84-7.23,7.05-7.12c11.01,0.23,22.02,0.24,33.03,0.03c5-0.09,6.7,2.14,6.49,6.79
		c-0.28,6.24-0.01,12.53-0.62,18.73c-2.19,22.2-11.38,33.54-33.05,39.19c-19.15,5-38.21,4.19-56.27-4.9
		c-10.4-5.24-16.38-14.06-17.67-25.41c-1.33-11.64-1.94-23.41-2.15-35.13c-0.29-16.26,0.08-32.53,0.19-48.79
		c0.18-27.7,10.95-41.82,38.26-47.13c20.11-3.91,40.26-2.78,57.15,10.74c4.93,3.95,9.78,10.31,10.88,16.27
		c2.39,12.91,2.52,26.27,3.04,39.47c0.06,1.56-3.13,4.6-4.89,4.66c-12,0.41-24.02,0.17-36.03,0.23c-4.43,0.02-5.34-2.51-5.37-6.3
		c-0.07-9.75-0.23-19.51-0.6-29.26c-0.19-4.97-1.17-9.95-7.73-9.81c-6.33,0.14-7.63,4.85-7.67,9.96
		C128.45,53.18,128.52,68.44,128.51,83.69z"/>
	<path class="st0" d="M933.33,54.91c0.84-4,1.67-8.01,2.54-12.01c2.5-11.49,4.88-23,7.67-34.42c0.49-2,2.68-5.07,4.17-5.12
		c12.67-0.41,25.36-0.23,39.56-0.23c-2.03,6.81-3.5,12.23-5.26,17.57c-8.51,25.89-17.2,51.72-25.56,77.67
		c-1.5,4.67-2.32,9.74-2.43,14.64c-0.32,14.25-0.37,28.53,0,42.78c0.16,6.32-2.2,8.47-8.29,8.27c-9-0.3-18.03-0.38-27.02,0.04
		c-6.78,0.32-8.97-2.58-8.41-8.9c0.33-3.73-0.17-7.52,0.12-11.25c2.13-26.64-2.55-52.06-11.99-77.03
		c-6.89-18.22-11.97-37.11-17.83-55.72c-2.31-7.33-1.76-8.07,6.16-8.13C895.79,3,904.8,3.31,913.8,2.95c5.69-0.22,8.07,2.21,9,7.56
		c2.17,12.57,4.67,25.08,7.07,37.61c0.44,2.27,1.01,4.52,1.52,6.78C932.03,54.9,932.68,54.91,933.33,54.91z"/>
	<path class="st0" d="M844.99,99.86c0,18.01-0.34,36.03,0.16,54.03c0.21,7.44-2.38,9.54-9.46,9.12c-9.22-0.55-18.5-0.13-27.76-0.15
		c-10.01-0.03-10.03-0.04-10.03-9.76c0-35.77-0.18-71.54,0.17-107.31c0.07-7.44-1.91-10.11-9.65-10
		c-17.99,0.26-18.01-0.11-17.97-18.5c0.03-15.13-1.37-14.25,14.14-14.22c26.27,0.04,52.53,0.25,78.79-0.13
		c7.36-0.11,9.79,2.36,9.15,9.48c-0.52,5.71-0.23,11.5-0.05,17.25c0.15,4.5-1.83,6.39-6.24,6.28c-4.5-0.12-9.03,0.28-13.5-0.08
		c-5.89-0.47-7.93,1.87-7.85,7.73C845.15,62.33,844.99,81.1,844.99,99.86z"/>
	<path class="st0" d="M317.17,82.52c-0.01-23.49,0.17-46.98-0.12-70.47c-0.08-6.61,1.58-9.55,8.8-9.13c9.96,0.58,20,0.51,29.98,0.06
		c6.59-0.29,8.72,2.1,8.68,8.6c-0.23,35.98-0.14,71.97-0.13,107.96c0,10.71,0.05,10.71,10.93,10.67
		c17.23-0.06,17.34-0.06,17.18,16.89c-0.17,18.42,2.56,15.54-15.94,15.73c-17.24,0.18-34.49-0.17-51.73,0.16
		c-5.94,0.11-7.81-1.88-7.75-7.75C317.32,131,317.18,106.76,317.17,82.52z"/>
	<path class="st0" d="M402.55,82.88c0-23.76,0.16-47.52-0.11-71.28c-0.08-6.51,2.07-8.92,8.66-8.64c9.99,0.43,20.01,0.34,30.01-0.01
		c6.24-0.22,8.21,2.18,8.17,8.35c-0.21,36.52,0.09,73.03-0.22,109.55c-0.06,7.22,2.13,9.65,9.37,9.53
		c19.18-0.33,19.19-0.07,19.08,19.5c-0.01,1-0.01,2-0.02,3c-0.05,10.02-0.05,10.01-9.78,10c-19.01-0.01-38.02-0.21-57.02,0.12
		c-6.17,0.11-8.31-1.83-8.24-8.08C402.71,130.9,402.55,106.89,402.55,82.88z"/>
	<path class="st0" d="M498.13,68.95c0-6.99,0.15-13.99-0.06-20.98c-0.14-4.67,1.5-7.11,6.44-6.87c3.24,0.15,6.59-0.42,9.7,0.23
		c1.93,0.4,4.95,2.48,4.95,3.81c0,2.42-1.61,5.02-3.04,7.22c-1.3,2-4.2,3.37-4.62,5.39c-0.28,1.35,2.28,3.74,4.05,4.97
		c3.84,2.66,4.73,8.84,0.74,10.07c-5.39,1.67-5.25,5.14-5.17,9.24c0.05,2.75-0.16,5.5-0.01,8.24c0.23,4.55-1.95,6.16-6.31,6.22
		c-4.7,0.06-6.89-1.61-6.72-6.56C498.31,82.94,498.13,75.94,498.13,68.95z"/>
	<path class="st0" d="M999.03,586.19c-0.05-3.9-0.91-7.97-2.27-11.64c-16.53-44.55-33.14-89.07-49.98-133.5
		c-1.97-5.21-1.5-8.01,3.74-10.62c20.43-10.15,33.46-27.15,34.36-49.46c1.82-45.44,3.55-91.13,0.67-136.43
		c-2.6-41.05-29.62-61.79-70.76-61.75c-56.31,0.06-112.62,0.03-168.92,0.06c-10.45,0-10.45,0.03-10.45,10.38
		c0,73.83,0,147.65-0.01,221.48c-0.01,74.33,0.07,148.65-0.13,222.98c-0.02,7.13,2.11,9.54,9.4,9.44
		c28.02-0.37,56.06-0.36,84.08-0.01c7.42,0.09,10.1-1.97,9.94-9.72c-0.46-23.01-0.17-46.04-0.17-69.07
		c0-31.28-0.07-62.56,0.09-93.85c0.01-2.43,0.93-5.72,2.63-7c1.49-1.12,5.2-0.78,6.98,0.38c1.77,1.16,2.67,4.03,3.43,6.33
		c18.19,55.08,36.38,110.16,54.34,165.32c1.75,5.38,4.23,7.64,10.05,7.59c25.02-0.25,50.05-0.26,75.07,0.02
		c6.38,0.07,8.19-2.34,8.09-8.38C998.96,621.22,999.27,603.7,999.03,586.19z M883.4,369.36c-0.02,9.27-3.49,12.66-12.64,12.79
		c-7.75,0.11-15.51-0.29-23.24,0.13c-6.64,0.35-9.36-1.63-9.14-8.83c0.5-16.23,0.16-32.48,0.15-48.73
		c-0.01-16.24,0.3-32.5-0.14-48.73c-0.2-7.32,2.46-9.76,9.54-9.35c7.97,0.47,15.99-0.01,23.98,0.2c7.35,0.2,11.44,4.41,11.46,11.8
		C883.45,308.88,883.48,339.12,883.4,369.36z"/>
	<path class="st0" d="M711.6,515.15c-9.28-53.46-16.79-107.24-24.97-160.89c-8.26-54.16-16.5-108.32-24.47-162.53
		c-0.99-6.74-3.42-9.28-10.48-9.09c-18.5,0.47-37.02,0.16-55.54,0.17c-23.02,0.01-46.04,0.16-69.05-0.08
		c-5.63-0.06-8.18,1.8-8.73,7.47c-0.63,6.46-2.02,12.84-3,19.26c-8.69,57.11-17.36,114.22-26.05,171.33
		c-5.87,38.55-11.36,77.17-17.77,115.64c-7.82,46.97-13.34,94.03-11.09,141.77c0.29,6.1,1.53,9,8.45,8.91
		c27.02-0.32,54.04-0.26,81.06,0.01c6.04,0.06,8.33-1.89,8.81-8.01c1.93-24.69,4.61-49.32,6.35-74.02c0.5-7.1,3.25-8.81,9.7-8.53
		c9.74,0.42,19.51,0.09,29.27,0.1c10.09,0.01,10.27,0.3,11.11,10.36c1.98,23.92,4.22,47.83,6.02,71.77
		c0.48,6.42,3.11,8.53,9.44,8.34c13.25-0.4,26.52-0.12,39.78-0.11c13.76,0.01,27.52-0.14,41.28,0.08c5.27,0.09,7.6-1.44,7.7-7.18
		C720.2,598.1,718.79,556.57,711.6,515.15z M599.05,459.7c-2.99-0.18-5.99-0.03-8.99-0.03c-16.11-0.26-16.23,3.6-14.36-16.19
		c3.62-38.27,6.75-76.59,10.1-114.89c0.3-3.48,0.41-7.01,1.12-10.41c0.25-1.18,1.56-2.14,2.59-3.16c0.15-0.15,0.29-0.29,0.42-0.44
		l0,0v0c0.14,0.15,0.28,0.29,0.43,0.44c1.07,1.01,2.45,1.96,2.68,3.13c0.87,4.4,1.3,8.89,1.69,13.36
		c3.51,40.28,6.91,80.58,10.55,120.85C605.74,457.5,604.53,460.03,599.05,459.7z"/>
	<path class="st0" d="M550.21,871.64c0.01-46.53,0.01-93.06,0.01-139.59c0-13.95-1.85-27.67-9.11-39.77
		c-10.53-17.58-25.56-28.29-47-28.23c-39.28,0.11-78.55-0.06-117.83,0.18c-4.83,0.03-9.96,1.17-14.41,3.06
		c-27.27,11.59-37.41,34.02-37.46,61.95c-0.18,95.31-0.28,190.63,0.23,285.94c0.06,10.96,2.43,22.62,6.7,32.69
		c7.66,18.08,22.08,30.9,42.11,31.53c40.49,1.28,81.05,0.01,121.56,0.59c13.29,0.19,23.86-4.85,33.46-12.69
		c16.96-13.85,21.51-33.21,21.63-53.82C550.39,966.2,550.2,918.92,550.21,871.64z M457.15,872.42c0,39.29,0.02,78.58-0.01,117.87
		c-0.01,11.78-2.17,13.87-14.12,13.9c-5.26,0.01-10.52,0.11-15.76-0.06c-6.26-0.21-9.58-3.77-10.09-9.86
		c-0.27-3.23-0.12-6.5-0.12-9.75c-0.01-76.33-0.03-152.66-0.03-228.99c0-13.4,2.13-15.44,15.9-15.37c4.5,0.02,9.01-0.1,13.51,0.03
		c7.32,0.21,10.5,3.19,10.59,10.6c0.2,14.76,0.1,29.53,0.11,44.29C457.15,820.87,457.14,846.64,457.15,872.42z"/>
	<path class="st0" d="M638.37,33.15c-0.09-10.77-6.11-18.65-15.61-22.92c-6.25-2.81-13.3-4.82-20.11-5.21
		c-20.2-1.18-40.46-1.48-60.7-1.92c-10.04-0.22-10.18,0.07-10.2,9.87c-0.03,23.26-0.01,46.53-0.01,69.79
		c0,24.26,0.12,48.53-0.09,72.79c-0.05,5.5,1.76,7.46,7.34,7.39c19.76-0.25,39.52,0.1,59.28-0.2c6.45-0.1,12.99-1,19.32-2.33
		c13-2.73,20.61-10.67,20.79-23.82C638.87,102.12,638.65,67.63,638.37,33.15z M592.58,119.97c-0.13,11.92-2.74,14.47-12.87,13.96
		c-0.2-2.32-0.57-4.73-0.58-7.14c-0.07-29.18-0.16-58.37-0.01-87.55c0.01-2.56,1.69-5.1,2.6-7.66c3.1,1.63,6.66,2.77,9.13,5.07
		c1.49,1.39,1.76,4.6,1.77,7C592.72,69.09,592.85,94.53,592.58,119.97z"/>
	<path class="st0" d="M308.84,155.12c-8.28-48.32-16.32-96.68-24.2-145.06c-0.88-5.4-3.37-7.18-8.41-7.14
		C258.48,3.06,240.71,3.24,222.96,3c-5.91-0.08-7.89,2.59-8.5,7.89c-1.01,8.69-2.38,17.34-3.65,26
		c-5.81,39.59-11.56,79.18-17.54,118.75c-0.78,5.15,0.12,7.43,5.82,7.3c11.75-0.27,23.52-0.22,35.27,0.02
		c4.82,0.1,6.76-1.84,7.01-6.5c0.27-5.24,1.27-10.44,1.43-15.68c0.21-6.73,4.67-6.43,9.38-6.56c4.72-0.13,7.36,1.06,7.77,6.52
		c0.54,7.12-0.28,17.11,3.85,20.44c4.73,3.81,14.26,1.66,21.7,2.11c0.01-0.14,0.01-0.28,0.02-0.43c5.5,0,11.02-0.24,16.51,0.06
		C307.94,163.25,309.93,161.49,308.84,155.12z M251.78,104.64c-2.78-0.07-7.98-2.5-7.89-3.55c1.45-16.24,3.58-32.43,5.56-48.63
		c0.93,0.03,1.87,0.06,2.8,0.1c1.69,15.79,3.55,31.57,4.82,47.4C257.19,101.48,253.59,104.69,251.78,104.64z"/>
	<path class="st0" d="M494.24,54.73c-0.01-0.99-0.22-1.99-0.45-2.96c-1.74-7.4-7.69-11.99-15.26-11.79
		c-7.53,0.2-13.83,5.14-14.29,12.75c-0.64,10.46-0.66,21.02-0.07,31.49c0.46,8.14,6.68,13.13,14.6,13.18
		c8.33,0.06,14.38-4.99,15.23-13.42c0.5-4.95,0.09-9.99,0.09-14.99c0.06,0,0.12,0,0.18,0C494.26,64.24,494.29,59.49,494.24,54.73z
		 M479.79,84.5c-0.54,0.01-1.07,0.02-1.61,0.03c0-10.38,0-20.75,0-31.13c0.54-0.01,1.07-0.01,1.61-0.02
		C479.79,63.75,479.79,74.12,479.79,84.5z"/>
	<g>
		<path class="st0" d="M971.21,141.05c6.08,0,11.01,4.93,11,11.01c0,6.08-4.94,11.01-11.01,11c-6.08-0.01-11-4.94-11-11.01
			C960.21,145.97,965.13,141.05,971.21,141.05z M962.44,152.06c0,4.84,3.93,8.76,8.77,8.77c4.84,0,8.77-3.93,8.77-8.77
			c0-4.84-3.92-8.76-8.77-8.77C966.36,143.29,962.43,147.22,962.44,152.06z"/>
		<path class="st0" d="M973.13,152.18c0.09,0.03,0.2,0.07,0.3,0.11c0.49,0.21,0.85,0.57,1.15,1c0.31,0.44,0.54,0.93,0.78,1.41
			c0.46,0.92,0.91,1.84,1.37,2.76c0.02,0.03,0.03,0.06,0.05,0.1c-0.03,0-0.06,0.01-0.08,0.01c-1,0-1.99,0-2.99,0
			c-0.07,0-0.1-0.03-0.12-0.08c-0.48-0.98-0.96-1.95-1.44-2.92c-0.11-0.23-0.26-0.44-0.41-0.65c-0.28-0.39-0.67-0.62-1.15-0.67
			c-0.4-0.04-0.81-0.03-1.23-0.04c0,1.47,0,2.91,0,4.36c-0.99,0-1.98,0-2.96,0c0-3.84,0-7.67,0-11.51c0.03,0,0.05-0.01,0.07-0.01
			c1.56,0,3.13-0.01,4.69,0c0.76,0,1.5,0.08,2.23,0.33c0.47,0.16,0.89,0.39,1.23,0.76c0.37,0.4,0.56,0.88,0.64,1.41
			c0.09,0.59,0.08,1.17-0.09,1.74c-0.22,0.76-0.72,1.29-1.43,1.64C973.54,152.02,973.33,152.1,973.13,152.18z M969.35,151.16
			c0.02,0,0.04,0.01,0.06,0.01c0.44,0,0.89,0.01,1.33-0.01c0.22-0.01,0.45-0.04,0.66-0.09c0.45-0.11,0.75-0.38,0.87-0.84
			c0.09-0.37,0.1-0.74,0-1.1c-0.11-0.42-0.37-0.7-0.79-0.81c-0.24-0.06-0.49-0.1-0.73-0.11c-0.45-0.02-0.89-0.01-1.34-0.01
			c-0.02,0-0.04,0-0.06,0.01C969.35,149.2,969.35,150.17,969.35,151.16z"/>
	</g>
</g>
</svg>
