<?xml version="1.0" encoding="utf-8"?>
<!-- Generator: Adobe Illustrator 23.0.6, SVG Export Plug-In . SVG Version: 6.00 Build 0)  -->
<svg version="1.1" id="Layer_1" xmlns="http://www.w3.org/2000/svg" xmlns:xlink="http://www.w3.org/1999/xlink" x="0px" y="0px"
	 viewBox="0 0 1080 1080" style="enable-background:new 0 0 1080 1080;" xml:space="preserve">
<style type="text/css">
	.st0{fill:#FFFFFF;}
</style>
<path class="st0" d="M1068.4,583.5c-15.6-47.4-43.2-88.1-75-126.1c-48.6-58-105.4-106.8-167.8-149
	C666.9,201.2,494.3,131.4,301.3,119.7c-73-4.4-145.5,1.5-217.5,15.1c-33.7,6.3-56.8,26.3-75.6,52.8c-4.2,6-6.5,13.9-7.8,21.3
	c-1.9,10.7,3,19,13,22.9c17.8,6.8,36.3,6.4,54.4,2.1c8.9-2.1,10-11.2,2.6-16.8c-3.6-2.8-8.1-4.4-11.8-7.1
	c-7.7-5.4-7.3-12.7,1.4-15.9c9.4-3.5,19.4-6.1,29.3-7.4c70.3-9,140.6-7.3,210.7,2.3c130.1,17.7,252.9,58.4,368.9,119.5
	c78.2,41.2,150.8,90.4,212.1,154.9c36.8,38.7,68.4,81.1,83.7,133.1c19.7,67.3,7.6,127.3-45.3,176.1c-28.3,26.1-62.2,42.9-98.4,54.7
	c-97.9,32-197.6,36.3-298.8,19.4c-8.8-1.5-11.3-4.3-11.5-13.2c-1.5-72-3.6-143.9-5.5-215.9c-0.1-3,0-5.9,0-9.2
	c2.4-0.3,3.8-0.6,5.3-0.6c50.3-1.5,100.2,2.4,149.3,13.4c26.7,6,53.3,12.4,77.5,25.7c14.7,8.1,15.7,15.7,4.5,28.4
	c-1.8,2.1-3.8,4-5.7,6c-5.1,5.7-11,10.9-15.2,17.3c-5.4,8.2-2.9,14.3,6.6,16.6c30.4,7.1,58.8,6,79.5-22c1.6-2.2,3.5-4.3,5.2-6.5
	c11-15,16.3-31.4,13.2-50.2c-4.5-27.1-20.9-46.1-42.3-61.3c-31.4-22.3-67.5-33.5-104.6-41.4c-54.7-11.6-110.3-14.5-166-14.6
	c-2.9,0-5.9-0.3-9.3-0.4c-1.1-16.1-1.8-31.4-3.2-46.7c-2.9-32.2-6.1-64.4-18.4-94.6c-3.2-7.8-7.8-15.5-13.5-21.7
	c-9.5-10.2-21.4-8.9-28.5,3c-4.8,8.1-8.7,17-11.2,26.1c-11.6,41.1-14.3,83.5-16.8,125.9c-1.2,20.7,1.8,15.8-17.3,19.3
	c-60.4,10.9-119.3,26.7-173.8,55.9c-18.5,9.9-35.8,21.6-49.6,37.8c-14.4,16.9-18.3,35.7-7.1,55.4c8.9,15.7,18.2,31.5,29.8,45.3
	c55.8,66.1,126.1,112.9,204.1,148.6c9,4.1,11.3,9.3,12.5,18.4c2.2,15.6,5.1,31.7,11.1,46.1c8.7,20.6,27.7,25.6,48.4,24.3
	c18.7-1.2,31.8-12.2,37.8-31.4c1.6-5.2,2.9-10.6,3.9-14.5c36.5,5.2,71.6,11.7,107,15c84.3,7.8,167-0.9,247-29.9
	c62.9-22.8,119.3-55.9,161.6-109C1076.4,729.8,1093.8,660.5,1068.4,583.5z M408.1,816.6c-15.1-6-28.9-11-42.4-16.8
	c-55.7-23.7-108.7-52.1-154.3-92.4c-8.7-7.7-16.4-16.7-23.4-26c-7.9-10.5-7.1-20.8,3.6-28.3c10.9-7.6,23.2-13.9,35.8-18
	c39.4-12.8,80.5-16.7,121.5-20.4c19.6-1.7,39.2-2.8,59.1-4.2C408.1,679.4,408.1,747.1,408.1,816.6z"/>
</svg>
