<?xml version="1.0" encoding="utf-8"?>
<!-- Generator: Adobe Illustrator 23.0.6, SVG Export Plug-In . SVG Version: 6.00 Build 0)  -->
<svg version="1.1" id="Layer_1" xmlns="http://www.w3.org/2000/svg" xmlns:xlink="http://www.w3.org/1999/xlink" x="0px" y="0px"
	 viewBox="0 0 1080 1080" style="enable-background:new 0 0 1080 1080;" xml:space="preserve">
<style type="text/css">
	.st0{fill:#FFFFFF;}
</style>
<g>
	<path class="st0" d="M345.72,311.66c11.5,11.99,16.66,25.66,8.31,41.36c-7.4,13.91-20.17,17.38-34.82,16.35
		c-6.96,16.67-1.55,34.15-3.34,51.15c3.28,24.85,21.71,42.4,45.85,43.69c26.44,1.41,49.11-14.23,53.05-39.5
		c4.05-26,3.76-52.6,0.2-78.63C410.53,313.7,370.63,296.07,345.72,311.66z"/>
	<path class="st0" d="M691.29,311.25c22.03,32.81,13.13,51.47-27.61,57.1c-4.51,0.62-5.18,2.58-5.05,5.89
		c0.7,17.84-2.39,35.9,2.52,53.5c6.67,23.89,28.62,38.5,54.27,36.46c23.46-1.86,41.03-19.16,44.36-43.68
		c1.92-23.26,1.72-46.52,0.1-69.79C755.94,315.92,721.22,295.93,691.29,311.25z"/>
	<path class="st0" d="M1051.91,734.36c-28.25-53.13-56.39-106.33-85.86-158.79c-16.58-29.51-25.77-59.15-25.55-94.17
		c0.61-96.59,4.6-193.29-2.41-289.84c-2.86-39.43-12.05-75.78-42.82-104.03c-19.84-18.22-42.63-28.3-68.92-31.62
		c-1.06,0-2.11,0-3.17,0c-8.36,3.34-17.09,0.78-25.61,1.59c-10.42-0.85-20.62,2.08-31.01,1.81c-17.98,1.64-35.3,6.17-51.97,12.9
		c-30.34,12.25-61.29,22.77-92.43,32.66c-24.15,7.67-48.75,12.85-74.33,13.84c-39.49,1.52-76.08-10.04-112.32-23.13
		c-43.39-15.66-85.16-36.53-132.29-39.67c-16.91,0-33.82,0-50.73,0c-68.31,11.45-98.55,61.24-104.82,114.02
		c-3.92,32.99-7.06,66.02-7.02,99.31c0.09,79.73,0.04,159.46,0.04,239.19c0,11.14-0.11,22.15-5.85,32.3
		c-25.46,45-49.72,90.7-73.52,136.57C39.83,718.69,11.51,757.1,2,804.16c0,9.51,0,19.02,0,28.54c3.58,18.88,16.56,26.04,34.13,29.44
		c14.66,2.84,29.36,1.98,43.96,3.48c45.71,4.7,90.3-1.41,133.63-15.25c16.25-5.19,26.83-3.31,38.71,9.36
		c29.36,31.31,62.73,57.78,102.2,75.65c-28.1,36.94-13.05,76.7,24.66,90.72c34.88,0,69.75,0,104.63,0
		c5.68-3.02,12.2-3.03,18.16-4.99c15.4-5.06,25.47-25.32,21.47-39.69c10.7,1.5,21.41,1.43,32.12-0.03c0.8,0.02,1.6,0.02,2.4,0.03
		c4.18,21.68,17.14,35.88,39.59,41.99l0,0c0.11,0.9,0.24,1.8,0.4,2.7c32.76,0,65.53,0,98.29,0c0.07-0.93,0.19-1.86,0.35-2.78
		c2.55-0.45,5.29-0.45,7.62-1.42c32.11-13.4,45.96-53.05,20.97-85.51c7.81-4.37,16.45-6.88,24.16-11.72
		c30.98-19.47,59.43-41.96,84.28-68.83c7.49-8.1,14.82-11.71,26.39-7.86c55.34,18.39,112.24,23.42,170,16.51
		c21.09-2.52,44.5-3.61,49.86-31.79c0-9.51,0-19.02,0-28.54C1076.74,778.43,1063.77,756.67,1051.91,734.36z M455.27,417.72
		c-0.32,59.83-48.07,107.3-107.91,107.33c-60.45,0.02-107.94-46.82-108.18-106.79c-0.09-22.17-0.12-44.34,0.01-66.51
		c0.34-58.93,47.97-105.68,107.64-105.75c59.53-0.07,107.84,46.8,108.4,105.21c0.11,11.61,0.02,23.23,0.04,34.84
		C455.28,396.61,455.33,407.16,455.27,417.72z M594.21,512.08c-23.61,40.2-59.41,50.25-91.25,25.94
		c-7.9-6.03-11.81-14.58-16.86-22.5c-1.3-6.29-2.6-12.58-3.9-18.87c0,0-0.01,0-0.01,0c-20.45-9.75-21.06-11.59-9.24-31.18
		c16.04-26.57,38.77-40.6,70.7-38.96c28.02,1.44,49.71,12.8,63.49,37.56c12.66,22.74,12.1,23.85-11.8,32.73
		C594.96,501.9,594.58,506.99,594.21,512.08z M835.62,417.06c-0.32,60.95-47.93,108.1-108.93,107.99
		c-59.87-0.11-107.13-47.46-107.47-107.72c-0.06-10.56-0.01-21.11-0.01-31.67c0-10.56-0.05-21.11,0.01-31.67
		c0.34-61.15,47.66-108.11,108.79-107.99c59.99,0.12,107.25,47.41,107.56,107.72C835.69,374.83,835.73,395.94,835.62,417.06z"/>
</g>
</svg>
