<?xml version="1.0" encoding="utf-8"?>
<!-- Generator: Adobe Illustrator 23.0.6, SVG Export Plug-In . SVG Version: 6.00 Build 0)  -->
<svg version="1.1" id="Layer_1" xmlns="http://www.w3.org/2000/svg" xmlns:xlink="http://www.w3.org/1999/xlink" x="0px" y="0px"
	 viewBox="0 0 1080 1080" style="enable-background:new 0 0 1080 1080;" xml:space="preserve">
<style type="text/css">
	.st0{fill:none;}
	.st1{fill:#FFFFFF;}
</style>
<g>
	<path class="st0" d="M798.19,674.16c-59.06,0-118.12,0-177.19,0c0.2-0.52,0.52-1.02,0.58-1.56c3.97-32.03,8.01-64.06,11.76-96.12
		c0.44-3.72,1.94-4.23,5.05-4.22c21.22,0.08,42.45,0.09,63.67,0.03c17-0.05,34.04,0.36,51.01-0.53c16.25-0.85,29.88-7.57,38.3-22.35
		c6.68-11.75,6.22-24.99,8.13-38.33c-2.62,0-4.56,0-6.49,0c-77.59,0-155.18,0-232.76,0c-1.12,0-2.26,0.1-3.37-0.01
		c-2.91-0.28-3.79,1.09-4.11,3.88c-1.91,16.87-3.97,33.73-6.05,50.58c-4.46,36.21-8.97,72.42-13.46,108.63c-26.44,0-52.88,0-79.31,0
		c1.5-0.31,3-0.6,4.48-0.95c9.11-2.17,18.59-3.38,27.24-6.72c19.13-7.4,31.42-21.2,34.85-41.97c1.62-9.83,3.44-19.64,4.57-29.53
		c1.58-13.77,4.73-27.44,3.03-41.48c-2.11-17.51-10.8-30.09-27.18-37.1c-10.29-4.4-21.15-5.34-32.18-5.34
		c-62.01,0.01-124.02,0-186.03,0c-0.84,0-1.69,0.06-2.53,0.01c-2.34-0.13-3.31,1.02-3.3,3.28c0.03,7-0.55,14.06,0.13,21
		c1.75,17.93,13.31,31.15,30.83,35.22c5.68,1.32,11.7,1.62,17.56,1.64c36.98,0.11,73.96,0,110.94,0c1.88,0,3.76,0.24,5.98,0.39
		c-1.14,9.02-2.5,17.47-3.17,25.97c-0.32,4.11-1.8,4.94-5.64,4.93c-53.99-0.12-107.99-0.08-161.98-0.08c-1.78,0-3.57,0-5.48,0
		c-2.95,23.92-5.84,47.32-8.73,70.72c-6.19,0-12.38,0-18.56,0c2.91-23.44,5.83-46.87,8.82-70.9c-50.02,0-99.01,0-148.39,0
		c1.09-9.01,2.34-17.48,3.05-25.99c0.36-4.25,2.22-5.05,6.1-5.04c44.15,0.13,88.29,0.08,132.44,0.08c10.14,0,10.37,0.03,11.71-9.95
		c2.25-16.82,4.18-33.69,6.3-50.98c-2.25-0.1-4.31-0.28-6.37-0.28c-74.51-0.01-149.03-0.01-223.54-0.01c-1.41,0-2.92-0.29-4.18,0.14
		c-1.03,0.35-2.4,1.49-2.52,2.43c-1.83,13.78-3.48,27.58-5.17,41.37c-2.67,21.74-5.35,43.47-8,65.21
		c-2.19,17.97-4.33,35.95-6.49,53.93c-0.56-0.28-1.5-0.46-1.61-0.86c-0.24-0.92-0.08-1.95-0.08-2.93c0-88.17,0-176.34,0-264.52
		c360,0,720,0,1080,0c0,89.44,0,178.87,0,268.31c-8.72,0-17.44,0-26.16,0c0.03-0.7,0.01-1.4,0.09-2.09
		c2.72-21.86,5.46-43.72,8.16-65.59c2.74-22.14,5.45-44.29,8.16-66.44c1.15-9.43,2.24-18.87,3.42-28.76c-29.57,0-58.67,0-88,0
		c-2.56,20.79-5.09,41.26-7.61,61.72c-2.69,21.87-5.42,43.73-8.04,65.61c-1.42,11.83-2.63,23.69-3.93,35.54c-27,0-54,0-81,0
		c0.17-0.53,0.43-1.06,0.49-1.61c2.9-23.69,5.76-47.37,8.66-71.06c2.66-21.73,5.36-43.46,8.03-65.2c1-8.17,1.97-16.35,3-24.93
		c-2.11-0.11-3.75-0.26-5.4-0.27c-10.68-0.07-21.37-0.12-32.05-0.14c-15.74-0.03-31.49-0.04-47.23-0.06c-1.95,0-3.45,0.11-3.74,2.76
		c-1.28,11.58-2.76,23.14-4.18,34.7c-2.69,21.87-5.4,43.74-8.06,65.62C803.01,634.02,800.61,654.09,798.19,674.16z M803.06,481.59
		c1.21-10.48,3.19-20.63,1.89-31.12c-2.13-17.3-10.44-29.97-26.63-37.04c-10.5-4.59-21.61-5.77-32.94-5.77
		c-130.04,0.01-260.09-0.02-390.13,0.08c-6.85,0.01-13.81,0.47-20.52,1.75c-20.49,3.92-37.36,13.58-46.12,33.41
		c-3.16,7.16-4.15,15.34-5.71,23.14c-1.01,5.01-1.25,10.18-1.87,15.55C455.29,481.59,628.98,481.59,803.06,481.59z M1079.04,481.56
		c0.27-10.79,1.41-21.21,0.59-31.47c-1.31-16.38-9.5-28.84-24.64-36.14c-9.02-4.35-18.67-6.19-28.58-6.21
		c-63.96-0.1-127.92-0.07-191.88-0.07c-1.21,0-2.42,0.19-3.79,0.3c-3.01,24.61-5.97,48.92-8.98,73.58
		C907.46,481.56,992.57,481.56,1079.04,481.56z M271.44,407.93c-78.93,0-157.56,0-236.42,0c-3.01,24.63-5.98,49.03-9.02,73.91
		c2.55,0,4.22,0,5.88,0c14.05,0,28.11,0,42.16,0c61.13,0,122.27,0,183.4,0.01c2.71,0,5.16,0.34,5.61-3.66
		C265.71,454.92,268.58,431.67,271.44,407.93z"/>
	<path class="st1" d="M257.34,674.16c2.89-23.4,5.78-46.8,8.73-70.72c1.91,0,3.7,0,5.48,0c53.99,0,107.99-0.04,161.98,0.08
		c3.84,0.01,5.32-0.82,5.64-4.93c0.66-8.51,2.02-16.96,3.17-25.97c-2.23-0.15-4.11-0.4-5.98-0.39c-36.98,0.01-73.96,0.11-110.94,0
		c-5.87-0.02-11.88-0.31-17.56-1.64c-17.52-4.08-29.07-17.29-30.83-35.22c-0.68-6.94-0.1-14-0.13-21c-0.01-2.27,0.96-3.42,3.3-3.28
		c0.84,0.05,1.69-0.01,2.53-0.01c62.01,0,124.02,0,186.03,0c11.03,0,21.89,0.94,32.18,5.34c16.37,7,25.07,19.59,27.18,37.1
		c1.69,14.04-1.46,27.71-3.03,41.48c-1.13,9.89-2.95,19.7-4.57,29.53c-3.43,20.76-15.72,34.56-34.85,41.97
		c-8.65,3.35-18.13,4.56-27.24,6.72c-1.49,0.35-2.99,0.63-4.48,0.95C388.41,674.16,322.87,674.16,257.34,674.16z"/>
	<path class="st1" d="M2.53,674.16c2.16-17.98,4.3-35.96,6.49-53.93c2.65-21.74,5.33-43.47,8-65.21
		c1.69-13.79,3.34-27.59,5.17-41.37c0.12-0.94,1.49-2.08,2.52-2.43c1.26-0.43,2.78-0.14,4.18-0.14c74.51,0,149.03,0,223.54,0.01
		c2.06,0,4.12,0.18,6.37,0.28c-2.12,17.29-4.05,34.15-6.3,50.98c-1.34,9.98-1.57,9.95-11.71,9.95c-44.15,0-88.29,0.05-132.44-0.08
		c-3.88-0.01-5.74,0.8-6.1,5.04c-0.72,8.51-1.96,16.98-3.05,25.99c49.38,0,98.37,0,148.39,0c-2.99,24.03-5.9,47.47-8.82,70.9
		C160.03,674.16,81.28,674.16,2.53,674.16z"/>
	<path class="st1" d="M533.25,674.16c4.49-36.21,8.99-72.42,13.46-108.63c2.08-16.85,4.14-33.71,6.05-50.58
		c0.32-2.79,1.2-4.16,4.11-3.88c1.11,0.11,2.25,0.01,3.37,0.01c77.59,0,155.18,0,232.76,0c1.94,0,3.87,0,6.49,0
		c-1.91,13.34-1.44,26.58-8.13,38.33c-8.41,14.78-22.04,21.5-38.3,22.35c-16.96,0.89-34,0.48-51.01,0.53
		c-21.22,0.06-42.45,0.06-63.67-0.03c-3.11-0.01-4.61,0.51-5.05,4.22c-3.75,32.06-7.79,64.08-11.76,96.12
		c-0.07,0.54-0.38,1.04-0.58,1.56C591.75,674.16,562.5,674.16,533.25,674.16z"/>
	<path class="st1" d="M798.19,674.16c2.42-20.07,4.82-40.13,7.27-60.2c2.67-21.87,5.38-43.74,8.06-65.62
		c1.42-11.56,2.91-23.12,4.18-34.7c0.29-2.65,1.79-2.77,3.74-2.76c15.74,0.03,31.49,0.03,47.23,0.06
		c10.68,0.02,21.37,0.08,32.05,0.14c1.65,0.01,3.29,0.16,5.4,0.27c-1.03,8.58-2,16.76-3,24.93c-2.67,21.73-5.37,43.46-8.03,65.2
		c-2.9,23.68-5.77,47.37-8.66,71.06c-0.07,0.55-0.32,1.07-0.49,1.61C856.69,674.16,827.44,674.16,798.19,674.16z"/>
	<path class="st1" d="M966.94,674.16c1.3-11.85,2.51-23.71,3.93-35.54c2.62-21.88,5.35-43.74,8.04-65.61
		c2.52-20.47,5.04-40.93,7.61-61.72c29.33,0,58.43,0,88,0c-1.17,9.88-2.26,19.32-3.42,28.76c-2.7,22.15-5.42,44.29-8.16,66.44
		c-2.7,21.87-5.45,43.73-8.16,65.59c-0.09,0.69-0.06,1.39-0.09,2.09C1025.44,674.16,996.19,674.16,966.94,674.16z"/>
	<path class="st1" d="M803.06,481.59c-174.08,0-347.77,0-522.02,0c0.62-5.38,0.86-10.54,1.87-15.55c1.56-7.8,2.55-15.97,5.71-23.14
		c8.75-19.83,25.63-29.49,46.12-33.41c6.71-1.28,13.67-1.75,20.52-1.75c130.04-0.1,260.08-0.07,390.13-0.08
		c11.33,0,22.43,1.18,32.94,5.77c16.19,7.07,24.49,19.74,26.63,37.04C806.24,460.96,804.26,471.11,803.06,481.59z"/>
	<path class="st1" d="M1079.04,481.56c-86.47,0-171.58,0-257.27,0c3.01-24.66,5.98-48.97,8.98-73.58c1.37-0.11,2.58-0.3,3.79-0.3
		c63.96,0,127.92-0.03,191.88,0.07c9.91,0.02,19.56,1.86,28.58,6.21c15.14,7.3,23.33,19.76,24.64,36.14
		C1080.45,460.36,1079.31,470.78,1079.04,481.56z"/>
	<path class="st1" d="M271.44,407.93c-2.86,23.74-5.73,46.99-8.39,70.26c-0.46,4-2.9,3.66-5.61,3.66
		c-61.13-0.02-122.27-0.01-183.4-0.01c-14.05,0-28.11,0-42.16,0c-1.67,0-3.33,0-5.88,0c3.04-24.88,6.01-49.28,9.02-73.91
		C113.88,407.93,192.51,407.93,271.44,407.93z"/>
</g>
</svg>
