<?xml version="1.0" encoding="utf-8"?>
<!-- Generator: Adobe Illustrator 23.0.6, SVG Export Plug-In . SVG Version: 6.00 Build 0)  -->
<svg version="1.1" id="Layer_1" xmlns="http://www.w3.org/2000/svg" xmlns:xlink="http://www.w3.org/1999/xlink" x="0px" y="0px"
	 viewBox="0 0 1080 1080" style="enable-background:new 0 0 1080 1080;" xml:space="preserve">
<style type="text/css">
	.st0{fill:#FFFFFF;}
</style>
<path class="st0" d="M540.1,0.01c159.05,0,318.11,0,477.16,0c38.45,0,62.39,24.07,62.39,62.73c0,318.11-0.24,636.22,0.34,954.32
	c0.06,35.47-27.43,63.39-62.9,62.93c-86.36-1.11-172.74-0.36-259.12-0.36c-11.39,0-11.42-0.01-11.42-11.03
	c-0.01-131.4-0.01-262.81,0-394.21c0-11.19,0.03-11.21,11.28-11.21c40.03-0.01,80.05-0.12,120.08,0.11
	c6.84,0.04,9.39-1.91,10.27-9.17c6.01-49.35,12.48-98.65,19.18-147.92c0.99-7.26-1.01-9.23-8.04-9.2
	c-47.66,0.2-95.33-0.04-142.99,0.25c-7.45,0.05-10.06-1.88-9.94-9.66c0.56-36.33,0.11-72.68,1.07-108.99
	c0.26-9.73,2.83-19.94,6.68-28.92c10.27-24.01,31.84-31.34,55.38-32.42c31.01-1.43,62.11-1,93.17-1.31
	c11.32-0.11,11.37-0.04,11.37-11.32c0.02-41.87,0.02-83.74,0-125.61c-0.01-11.47-0.03-11.98-11.75-12.48
	c-43.37-1.85-86.78-5.21-130.12-4.5c-54.21,0.89-102.86,18.57-141.41,58.61c-29.52,30.66-45.95,68.07-51.25,109.69
	c-3.41,26.77-3.22,54.04-3.84,81.1c-0.59,25.53-0.41,51.09,0.05,76.62c0.14,7.52-2.39,9.23-9.44,9.18
	c-40.55-0.29-81.11,0.05-121.66-0.3c-7.92-0.07-10.46,2.21-10.41,10.25c0.32,48.71,0.28,97.43,0.03,146.15
	c-0.04,7.49,2.23,10.04,9.89,9.98c40.29-0.31,80.58-0.15,120.87-0.14c10.52,0,10.55,0.02,10.55,10.17
	c0.01,132.19-0.05,264.38,0.15,396.57c0.01,7.46-1.87,9.88-9.63,9.87c-169.06-0.21-338.12-0.14-507.18-0.18
	c-33.59-0.01-58.84-25.38-58.85-59.13c-0.03-320.48-0.03-640.96,0-961.43c0-33.69,25.31-59.02,58.94-59.03
	C219.36-0.02,379.73,0.01,540.1,0.01z"/>
</svg>
