<?xml version="1.0" encoding="utf-8"?>
<!-- Generator: Adobe Illustrator 23.0.6, SVG Export Plug-In . SVG Version: 6.00 Build 0)  -->
<svg version="1.1" id="Layer_1" xmlns="http://www.w3.org/2000/svg" xmlns:xlink="http://www.w3.org/1999/xlink" x="0px" y="0px"
	 viewBox="0 0 1080 1080" style="enable-background:new 0 0 1080 1080;" xml:space="preserve">
<style type="text/css">
	.st0{fill:#FFFFFF;}
</style>
<path class="st0" d="M172.8,746.55c-16.43-8.23-18.12-12.09-10.12-29.45c15.5-33.64,31.91-66.86,47.17-100.6
	c8.94-19.77,16.37-40.23,25.31-62.44c-4.26,1.48-6.43,2.16-8.56,2.98c-9.21,3.56-18.34,7.31-27.62,10.68
	c-5.81,2.11-9.47-0.55-11.33-6.18c-3.88-11.75,0.4-21.34,12.63-26.77c13.74-6.09,27.61-11.93,41.61-17.42
	c5.56-2.18,8.76-5.57,10.23-11.25c7.45-28.64,15.33-57.18,22.37-85.91c1.67-6.83,1.17-14.33,0.84-21.48
	c-0.38-8.4-5.13-12.76-13.54-12.51c-20.12,0.59-38.78,7.17-56.8,15.43c-36.16,16.57-66.77,41.31-96.46,67.19
	c-18.29,15.94-35.89,32.69-53.78,49.1c-3.15,2.89-6.15,5.93-9.33,8.78C27.22,542.95,10.11,539.3,0,517.05c0-3.6,0-7.2,0-10.8
	c6.57-17.18,18.89-29.77,33.09-40.67c44.48-34.12,90.79-65.5,141.73-89.27c30.27-14.12,61.8-24.73,95.85-24.31
	c20.14,0.25,33.66,11.47,38.67,30.98c3.71,14.48,2.71,29.09,0.39,43.53c-3.1,19.28-7.11,38.41-10.66,57.62
	c-0.48,2.6-0.58,5.26-0.96,8.9c3.49-0.79,6.23-1.31,8.91-2.04c18.63-5.04,37.25-10.15,55.89-15.19c7.32-1.98,8.92-1.04,9.56,6.46
	c0.38,4.45,0.35,9.02-0.15,13.46c-1.06,9.43-5.94,15.26-15.71,17.62c-22.01,5.31-43.83,11.36-65.77,16.96
	c-4.49,1.14-6.48,3.75-7.78,8.11c-19.28,64.92-44.97,127.36-72.93,188.94c-3.99,8.79-9.12,15.83-18.43,19.19
	C185.4,746.55,179.1,746.55,172.8,746.55z"/>
<path class="st0" d="M589.29,584.07c-1.88,1.99-4.06,3.78-5.6,6.02c-10.18,14.82-20.4,29.63-30.26,44.66
	c-6.86,10.47-16.95,15.24-28.65,16.97c-15.94,2.35-29.37-11.29-27.39-27.7c0.75-6.21,2.73-12.26,4.02-18.41
	c0.62-2.97,0.95-6.01,1.72-11.05c-5.13,2.27-9,3.29-12.07,5.47c-14.49,10.26-28.71,20.89-43.1,31.3
	c-14.24,10.29-28.69,20.49-45.78,25.3c-7.32,2.06-15.85,3.43-23.05,1.74c-24.81-5.83-29.25-28.95-16.69-49.51
	c3.56-5.83,8.58-10.78,13.69-17.08c-7.95-1.66-14.86-3.18-21.81-4.52c-9.77-1.89-18.19-6.32-25.38-13.15
	c-12.86-12.22-11.72-30.21,2.86-40.54c12.35-8.75,26.73-11.48,41.45-12.41c17.06-1.08,34.16-1.46,51.21-2.56
	c9.85-0.64,19.7-1.77,29.43-3.37c4.66-0.76,6.53,0.52,7.65,4.84c4.63,17.93-5.88,32.36-24.92,33.02
	c-15.73,0.55-31.49,0.15-47.24,0.2c-9.45,0.03-18.9-0.02-28.34,0.27c-1.92,0.06-3.8,1.5-5.7,2.31c1.89,1.06,3.75,2.99,5.66,3.05
	c23.16,0.65,46.32,1.05,69.49,1.45c7.26,0.13,13.19,2.08,16.17,9.58c3.67,9.25,1.9,17.12-6.69,22.19
	c-6.11,3.61-13.22,5.46-19.66,8.56c-8.05,3.87-16.01,7.98-23.68,12.54c-1.82,1.08-2.32,4.38-3.43,6.65c2.6,0.61,5.45,2.2,7.76,1.62
	c4.28-1.08,8.54-2.95,12.29-5.32c17.48-11.03,34.79-22.33,52.15-33.56c16.37-10.59,33.49-19.35,53.24-21.47
	c13.57-1.46,20.59,2.76,26.01,15.16c3.08,7.03,4.5,7.35,9.46,1.51c8.88-10.45,17.46-21.16,26.44-31.52
	c6.79-7.85,15.24-13.21,25.64-15.13c19.56-3.63,33.46,9.59,30.05,29.31c-3.48,20.14-7.84,40.12-11.64,60.21
	c-1.59,8.38,0.93,11.22,9.33,11.29c2.02,0.02,4.5-0.71,5.98,0.2c3.22,1.98,7.62,4.36,8.38,7.37c0.76,3.01-1.3,8.52-3.91,10.28
	c-12.15,8.22-26.01,10.55-39.93,6.06c-10.34-3.33-17.17-11.57-17.04-22.81c0.15-12.96,2.01-25.9,3.12-38.85
	c0.26-3.05,0.51-6.11,0.77-9.16C590.65,584.72,589.97,584.4,589.29,584.07z"/>
<path class="st0" d="M931,509.91c2.06,22.82-10.42,39.05-31.4,40.86c-15.42,1.33-30.98,1.1-46.48,1.55
	c-1.8,0.05-3.79-0.47-5.35,0.15c-2.07,0.82-3.79,2.51-5.67,3.83c1.45,1.48,2.7,3.92,4.39,4.28c10.94,2.37,21.94,4.46,32.98,6.31
	c7.3,1.22,14.78,1.46,22.02,2.9c9.24,1.84,13.49,6.84,14.88,15.97c0.91,5.98-0.82,10.93-6.55,13.4c-8.23,3.54-16.73,6.46-25.01,9.89
	c-3.9,1.61-8.15,3.16-11.12,5.95c-2.03,1.91-2.12,5.9-3.07,8.96c2.79,0.77,6.15,2.94,8.26,2.07c9.7-3.97,19.97-7.52,28.34-13.55
	c25.4-18.3,44.04-42.79,59.48-69.76c1.25-2.18,0.83-5.61,0.47-8.36c-2.03-15.62-1.08-30.58,9.1-43.6c1.78-2.28,3.77-4.52,6.05-6.27
	c9.03-6.91,17.01-5.37,23.43,4.01c7.2,10.52,5.37,22.11,3.31,33.28c-1.4,7.59,0.67,12.52,6.46,16.8
	c7.05,5.21,13.98,10.58,20.93,15.93c8.79,6.76,8.91,9.11,3.23,18.39c-5.61,9.19-10.68,18.72-15.69,28.25
	c-2.03,3.86-3.55,9.01,1.02,11.43c2.77,1.46,7.43,0.13,10.97-0.9c2.91-0.86,5.4-3.15,8.1-4.76c9-5.39,18.52-0.63,19.64,9.86
	c0.86,8.07-2.3,14.63-8.41,19.58c-15.3,12.39-32.65,15.68-51.33,9.79c-16.16-5.1-24.76-22.69-18.95-39.17
	c2.96-8.4,7.37-16.37,11.84-24.13c3.23-5.6,1.02-8.79-3.28-11.76c-4.77-3.29-7.54-0.67-10.52,3.16
	c-11.03,14.18-21.59,28.82-33.69,42.05c-19.22,21.02-42.89,35.38-70.94,41.69c-11.1,2.5-22.32,2.66-33.34-0.76
	c-12.31-3.82-21.93-14.99-23-26.52c-1.18-12.69,5.84-25.35,17.51-31.69c1.91-1.04,3.69-2.33,6.36-4.05c-1.97-1-2.98-1.62-4.08-2.05
	c-9.78-3.83-19.98-6.85-29.27-11.63c-11.15-5.74-19.35-14.77-17.71-28.44c1.68-14.06,9.88-24.55,23.27-28.8
	c11.44-3.64,23.61-5.52,35.61-6.78c20.56-2.15,41.23-3.11,61.84-4.78C920.64,512.04,925.57,510.83,931,509.91z"/>
<path class="st0" d="M792.17,502.25c15.87-47.21,34.79-93.39,51.93-140.18c6.67-18.21,5.29-21.85-11.15-28.62c-5.4,0-10.8,0-16.2,0
	c-11.55,3.65-16.84,12.23-20.88,23.26c-20.01,54.65-38.1,109.88-53.19,166.09c-0.84,3.12-2.17,6.11-3.39,9.5
	c-2.04-0.84-3.41-1.12-4.44-1.87c-20.26-14.91-47.4-8.45-63.99,12.34c-19.58,24.54-24.16,52.96-18.25,82.81
	c3.48,17.61,14.81,30.12,33.22,34.41c14.86,3.47,28.65,0.37,41.06-8.24c5.43-3.77,9.37-3.64,14.85,0.53
	c21.21,16.17,48.73,13.62,66.5-5.49c5.09-5.47,6-12.68,2.25-17.82c-4.04-5.54-11.36-7.34-18.12-4.4c-1.64,0.72-3.21,1.6-4.82,2.41
	c-12.13,6.09-20.27,1.49-20.95-12.2c-0.29-5.81-0.56-11.9,0.81-17.46C775.25,565.52,781.76,533.22,792.17,502.25z M733.2,579.69
	c-1.63,13.64-4.09,27.07-12.8,38.38c-0.55,0.71-1.14,1.39-1.73,2.06c-5.22,5.87-11.01,11.73-19.54,8.62
	c-8.26-3.01-8.58-11.22-9.22-18.67c-0.11-1.34-0.02-2.69-0.02-4.03c0.06-17.53,6.95-32.26,19.26-44.32
	c2.19-2.14,7.04-3.24,10.12-2.52C735.13,562.92,735.17,563.2,733.2,579.69z"/>
<path class="st0" d="M1076.6,503.3c-6.64-10.28-19.75-14.23-30.75-9.29c-11.27,5.06-16.94,17.28-13.49,29.08
	c3.57,12.2,14.13,19,26.74,17.66c10.77-1.15,16.04-8.72,20.91-16.95c0-4.95,0-9.9,0-14.85
	C1078.87,507.07,1077.79,505.15,1076.6,503.3z M1055.77,537.21c-11.61,0.07-20.8-9.22-20.74-20.98
	c0.05-11.68,9.24-20.59,21.17-20.52c11.27,0.07,20.4,9.28,20.45,20.62C1076.69,528.02,1067.58,537.13,1055.77,537.21z"/>
<path class="st0" d="M1064.48,519.12c0.62-5.14,2.71-9.83,1.19-12.12c-4.67-7.03-12.35-3.63-19.76-4.31
	c0,8.35-0.09,15.92,0.09,23.49c0.03,1.2,1.31,2.38,2.01,3.56c0.79-1.31,1.92-2.53,2.28-3.94c0.48-1.88,0.37-3.91,0.48-5.4
	c10.78-5.37,9.63,6.94,14.54,10.15c0.61-0.38,1.22-0.77,1.83-1.15C1066.09,525.35,1065.04,521.3,1064.48,519.12z M1060.84,513.29
	c-2.96,1.39-6.26,2.04-9.96,3.11c0-4.01,0-6.57,0-10.64c3.8,1,7.07,1.59,10.05,2.87C1061.52,508.88,1061.52,512.97,1060.84,513.29z"
	/>
</svg>
