<svg width="99" height="99" viewBox="0 0 99 99" fill="none" xmlns="http://www.w3.org/2000/svg">
<path d="M45.6526 45.4054C45.6526 45.4054 41.0356 13.188 11.0424 17.1085C11.0424 17.1197 13.3453 49.0114 45.6526 45.4054Z" fill="white"/>
<path d="M44.1248 47.8769C44.1248 47.8769 24.017 22.2759 0 40.6762C0 40.6875 17.951 67.1534 44.1248 47.8769Z" fill="white"/>
<path d="M44.0349 50.7863C44.0349 50.7863 13.8283 38.6766 2.22418 66.6141C2.22418 66.6141 31.0042 80.566 44.0349 50.7863Z" fill="white"/>
<path d="M45.4055 53.3475C45.4055 53.3475 13.1881 57.9644 17.1085 87.9576C17.1198 87.9576 49.0114 85.6548 45.4055 53.3475Z" fill="white"/>
<path d="M47.8767 54.8752C47.8767 54.8752 22.287 74.983 40.6761 99C40.6874 99 67.1533 81.049 47.8767 54.8752Z" fill="white"/>
<path d="M50.7862 54.9651C50.7862 54.9651 38.6766 85.1718 66.6141 96.7759C66.6141 96.7759 80.566 67.9959 50.7862 54.9651Z" fill="white"/>
<path d="M53.3475 53.5946C53.3475 53.5946 57.9644 85.812 87.9576 81.8916C87.9576 81.8803 85.6548 49.9887 53.3475 53.5946Z" fill="white"/>
<path d="M54.8751 51.1232C54.8751 51.1232 74.9829 76.7242 99 58.3238C99 58.3126 81.049 31.8467 54.8751 51.1232Z" fill="white"/>
<path d="M54.965 48.2138C54.965 48.2138 85.1717 60.3234 96.7758 32.3859C96.7758 32.3859 67.9958 18.4341 54.965 48.2138Z" fill="white"/>
<path d="M53.5946 45.6526C53.5946 45.6526 85.812 41.0356 81.8916 11.0424C81.8803 11.0424 49.9887 13.3453 53.5946 45.6526Z" fill="white"/>
<path d="M51.1232 44.1248C51.1232 44.1248 76.7129 24.017 58.3238 0C58.3125 0 31.8466 17.951 51.1232 44.1248Z" fill="white"/>
<path d="M48.2138 44.0349C48.2138 44.0349 60.3234 13.8283 32.3859 2.22418C32.3859 2.22418 18.4341 31.0042 48.2138 44.0349Z" fill="white"/>
<path d="M47.0567 46.8995C47.0567 46.8995 44.1136 26.3761 25.0056 28.8699C24.9943 28.8699 26.4659 49.1911 47.0567 46.8995Z" fill="#88B7AA"/>
<path d="M46.0233 50.3257C46.0233 50.3257 26.7804 42.6084 19.3889 60.4133C19.3776 60.4021 37.7106 69.2877 46.0233 50.3257Z" fill="#88B7AA"/>
<path d="M48.4722 52.9319C48.4722 52.9319 32.1613 65.738 43.889 81.0379C43.889 81.0379 60.7503 69.6023 48.4722 52.9319Z" fill="#88B7AA"/>
<path d="M51.9545 52.1118C51.9545 52.1118 54.8976 72.6353 74.0057 70.1415C74.0057 70.1302 72.5341 49.809 51.9545 52.1118Z" fill="#88B7AA"/>
<path d="M52.988 48.6857C52.988 48.6857 72.2309 56.4031 79.6225 38.5981C79.6225 38.5981 61.2895 29.7125 52.988 48.6857Z" fill="#88B7AA"/>
<path d="M50.5279 46.0795C50.5279 46.0795 66.8388 33.2734 55.1111 17.9623C55.1224 17.9623 38.2498 29.3979 50.5279 46.0795Z" fill="#88B7AA"/>
<path d="M58.8293 50.1909C58.8293 55.7178 54.3471 60.2111 48.8091 60.2111C43.2822 60.2111 38.7889 55.729 38.7889 50.1909C38.7889 44.6641 43.271 40.1707 48.8091 40.1707C54.3471 40.1707 58.8293 44.6528 58.8293 50.1909Z" fill="white"/>
</svg>
