<svg width="99" height="99" viewBox="0 0 99 99" fill="none" xmlns="http://www.w3.org/2000/svg">
<path d="M45.6526 45.4053C45.6526 45.4053 41.0356 13.1879 11.0424 17.1083C11.0424 17.1196 13.3453 49.0112 45.6526 45.4053Z" fill="white"/>
<path d="M44.1248 47.8767C44.1248 47.8767 24.017 22.2758 0 40.6761C0 40.6874 17.951 67.1533 44.1248 47.8767Z" fill="white"/>
<path d="M44.0349 50.7861C44.0349 50.7861 13.8283 38.6765 2.22418 66.614C2.22418 66.614 31.0042 80.5659 44.0349 50.7861Z" fill="white"/>
<path d="M45.4055 53.3474C45.4055 53.3474 13.1881 57.9643 17.1085 87.9575C17.1198 87.9575 49.0114 85.6546 45.4055 53.3474Z" fill="white"/>
<path d="M47.8767 54.875C47.8767 54.875 22.287 74.9828 40.6761 98.9999C40.6874 98.9999 67.1533 81.0489 47.8767 54.875Z" fill="white"/>
<path d="M50.7862 54.965C50.7862 54.965 38.6766 85.1717 66.6141 96.7758C66.6141 96.7758 80.566 67.9958 50.7862 54.965Z" fill="white"/>
<path d="M53.3475 53.5945C53.3475 53.5945 57.9644 85.8119 87.9576 81.8915C87.9576 81.8802 85.6548 49.9886 53.3475 53.5945Z" fill="white"/>
<path d="M54.8751 51.1231C54.8751 51.1231 74.9829 76.7241 99 58.3237C99 58.3125 81.049 31.8466 54.8751 51.1231Z" fill="white"/>
<path d="M54.965 48.2137C54.965 48.2137 85.1717 60.3233 96.7758 32.3859C96.7758 32.3859 67.9958 18.434 54.965 48.2137Z" fill="white"/>
<path d="M53.5946 45.6524C53.5946 45.6524 85.812 41.0355 81.8916 11.0423C81.8803 11.0423 49.9887 13.3451 53.5946 45.6524Z" fill="white"/>
<path d="M51.1232 44.1247C51.1232 44.1247 76.7129 24.0169 58.3238 -0.00012207C58.3125 -0.00012207 31.8466 17.9509 51.1232 44.1247Z" fill="white"/>
<path d="M48.2138 44.0348C48.2138 44.0348 60.3234 13.8282 32.3859 2.22406C32.3859 2.22406 18.4341 31.004 48.2138 44.0348Z" fill="white"/>
<path d="M47.0567 46.8994C47.0567 46.8994 44.1136 26.3759 25.0056 28.8697C24.9943 28.8697 26.4659 49.191 47.0567 46.8994Z" fill="#EFA6C9"/>
<path d="M46.0233 50.3256C46.0233 50.3256 26.7804 42.6082 19.3889 60.4132C19.3776 60.402 37.7106 69.2876 46.0233 50.3256Z" fill="#EFA6C9"/>
<path d="M48.4722 52.9318C48.4722 52.9318 32.1613 65.7379 43.889 81.0378C43.889 81.0378 60.7503 69.6021 48.4722 52.9318Z" fill="#EFA6C9"/>
<path d="M51.9545 52.1117C51.9545 52.1117 54.8976 72.6351 74.0057 70.1413C74.0057 70.1301 72.5341 49.8088 51.9545 52.1117Z" fill="#EFA6C9"/>
<path d="M52.988 48.6856C52.988 48.6856 72.2309 56.4029 79.6225 38.598C79.6225 38.598 61.2895 29.7124 52.988 48.6856Z" fill="#EFA6C9"/>
<path d="M50.5279 46.0794C50.5279 46.0794 66.8388 33.2733 55.1111 17.9621C55.1224 17.9621 38.2498 29.3977 50.5279 46.0794Z" fill="#EFA6C9"/>
<path d="M58.8293 50.1908C58.8293 55.7177 54.3471 60.211 48.8091 60.211C43.2822 60.211 38.7889 55.7289 38.7889 50.1908C38.7889 44.664 43.271 40.1706 48.8091 40.1706C54.3471 40.1706 58.8293 44.6528 58.8293 50.1908Z" fill="white"/>
</svg>
