<svg width="458" height="458" viewBox="0 0 458 458" fill="none" xmlns="http://www.w3.org/2000/svg">
<path d="M216.962 206.331C216.962 206.331 235.46 58.7338 98.4936 39.9028C98.4936 39.9028 70.2232 183.305 216.962 206.331Z" fill="#88B7AA"/>
<path d="M207.237 215.389C207.237 215.389 149.457 78.3277 21.4054 130.483C21.4531 130.483 68.6499 268.784 207.237 215.389Z" fill="#88B7AA"/>
<path d="M203.375 228.07C203.375 228.07 84.8113 138.253 0 247.474C0 247.474 110.031 343.631 203.375 228.07Z" fill="#88B7AA"/>
<path d="M206.331 241.038C206.331 241.038 58.7338 222.54 39.9027 359.506C39.9027 359.506 183.305 387.777 206.331 241.038Z" fill="#88B7AA"/>
<path d="M215.389 250.763C215.389 250.763 78.3276 308.543 130.483 436.595C130.483 436.547 268.784 389.35 215.389 250.763Z" fill="#88B7AA"/>
<path d="M228.07 254.624C228.07 254.624 138.253 373.189 247.474 458C247.474 458 343.631 347.969 228.07 254.624Z" fill="#88B7AA"/>
<path d="M241.038 251.669C241.038 251.669 222.54 399.266 359.506 418.097C359.506 418.097 387.777 274.743 241.038 251.669Z" fill="#88B7AA"/>
<path d="M250.763 242.611C250.763 242.611 308.543 379.672 436.595 327.517C436.547 327.517 389.35 189.216 250.763 242.611Z" fill="#88B7AA"/>
<path d="M254.625 229.93C254.625 229.93 373.189 319.699 458 210.526C458 210.526 347.969 114.369 254.625 229.93Z" fill="#88B7AA"/>
<path d="M251.669 216.962C251.669 216.962 399.219 235.46 418.097 98.4936C418.097 98.4936 274.695 70.2231 251.669 216.962Z" fill="#88B7AA"/>
<path d="M242.611 207.237C242.611 207.237 379.672 149.457 327.517 21.4054C327.517 21.4531 189.216 68.6499 242.611 207.237Z" fill="#88B7AA"/>
<path d="M229.93 203.375C229.93 203.375 319.699 84.8113 210.527 0C210.527 0 114.369 110.031 229.93 203.375Z" fill="#88B7AA"/>
<path d="M212.672 211.623C212.672 211.623 193.078 74.895 65.7894 91.5331C65.7894 91.5808 75.5625 226.926 212.672 211.623Z" fill="white"/>
<path d="M206.188 222.111C206.188 222.111 120.852 113.463 18.9264 191.552C18.9264 191.6 95.1088 303.919 206.188 222.111Z" fill="white"/>
<path d="M205.807 234.459C205.807 234.459 77.6126 183.066 28.3658 301.631C28.3658 301.631 150.506 360.841 205.807 234.459Z" fill="white"/>
<path d="M211.623 245.328C211.623 245.328 74.8951 264.922 91.5332 392.21C91.5809 392.21 226.926 382.437 211.623 245.328Z" fill="white"/>
<path d="M222.111 251.812C222.111 251.812 113.511 337.147 191.552 439.073C191.6 439.073 303.919 362.891 222.111 251.812Z" fill="white"/>
<path d="M234.459 252.193C234.459 252.193 183.067 380.387 301.631 429.634C301.631 429.634 360.841 307.494 234.459 252.193Z" fill="white"/>
<path d="M245.328 246.377C245.328 246.377 264.922 383.105 392.21 366.467C392.21 366.419 382.437 231.074 245.328 246.377Z" fill="white"/>
<path d="M251.812 235.889C251.812 235.889 337.147 344.537 439.074 266.448C439.074 266.4 362.891 154.081 251.812 235.889Z" fill="white"/>
<path d="M252.193 223.541C252.193 223.541 380.387 274.933 429.634 156.369C429.634 156.369 307.494 97.1587 252.193 223.541Z" fill="white"/>
<path d="M246.377 212.672C246.377 212.672 383.105 193.078 366.467 65.7895C366.419 65.7895 231.074 75.5626 246.377 212.672Z" fill="white"/>
<path d="M235.889 206.188C235.889 206.188 344.489 120.852 266.448 18.9263C266.4 18.9263 154.081 95.1087 235.889 206.188Z" fill="white"/>
<path d="M223.541 205.807C223.541 205.807 274.933 77.6124 156.369 28.3656C156.369 28.3656 97.1587 150.505 223.541 205.807Z" fill="white"/>
<path d="M218.631 217.964C218.631 217.964 206.141 130.864 125.048 141.447C125 141.447 131.245 227.689 218.631 217.964Z" fill="#EFA6C9"/>
<path d="M214.245 232.504C214.245 232.504 132.58 199.752 101.211 275.315C101.163 275.267 178.967 312.977 214.245 232.504Z" fill="#EFA6C9"/>
<path d="M224.638 243.564C224.638 243.564 155.416 297.912 205.187 362.844C205.187 362.844 276.745 314.312 224.638 243.564Z" fill="#EFA6C9"/>
<path d="M239.417 240.084C239.417 240.084 251.907 327.184 333 316.6C333 316.553 326.755 230.311 239.417 240.084Z" fill="#EFA6C9"/>
<path d="M243.803 225.544C243.803 225.544 325.467 258.296 356.837 182.733C356.837 182.733 279.033 145.023 243.803 225.544Z" fill="#EFA6C9"/>
<path d="M233.362 214.483C233.362 214.483 302.584 160.136 252.813 95.1565C252.861 95.1565 181.255 143.688 233.362 214.483Z" fill="#EFA6C9"/>
<path d="M268.593 231.932C268.593 255.387 249.571 274.457 226.068 274.457C202.613 274.457 183.543 255.435 183.543 231.932C183.543 208.476 202.565 189.407 226.068 189.407C249.571 189.407 268.593 208.429 268.593 231.932Z" fill="white"/>
</svg>
