<?xml version="1.0" encoding="utf-8"?>
<!-- Generator: Adobe Illustrator 23.0.6, SVG Export Plug-In . SVG Version: 6.00 Build 0)  -->
<svg version="1.1" id="Layer_1" xmlns="http://www.w3.org/2000/svg" xmlns:xlink="http://www.w3.org/1999/xlink" x="0px" y="0px"
	 viewBox="0 0 1080 1080" style="enable-background:new 0 0 1080 1080;" xml:space="preserve">
<style type="text/css">
	.st0{fill:#FFFFFF;}
</style>
<path class="st0" d="M1067.34,507.04c-1.24-16.52-2.49-33.1-6.09-49.36c-0.47-3.95-1.14-7.89-1.37-11.85
	c-0.28-4.82-2.05-6.67-7.37-6.66c-164.91,0.16-329.81,0.16-494.72,0.01c-5.6-0.01-6.96,1.57-6.95,7.04
	c0.19,65.03,0.25,130.06-0.06,195.09c-0.03,7.01,2.04,8.34,8.56,8.33c92.33-0.21,184.66-0.14,276.99-0.17c2.41,0,4.83-0.39,7.24-0.6
	c0,0,0,0,0,0c1.99,1.43,1.69,3.34,1.27,5.39c-4.88,24.02-12.64,47.03-23.89,68.85c-19.83,38.46-48.22,69.3-83.53,94c0,0,0,0,0,0
	c-0.79,0.4-1.61,0.75-2.36,1.22c-73,46.66-153.13,60.7-237.3,46.47c-98.19-16.6-171.72-71.35-223.67-155.72
	c-12.25-19.89-21.22-41.35-29.54-63.1c-0.47-1.92-0.84-3.88-1.44-5.76c-14.21-44.79-18.97-90.47-13.58-137.23
	c2.7-23.43,8.34-46.15,15.14-68.65c0.79-1.81,1.66-3.59,2.35-5.44c32.6-87.14,90.58-150.97,174.98-190.54
	c20.11-9.43,41.37-15.49,62.76-21.15c8.28-1.41,16.56-2.83,24.84-4.24c3.08-0.03,6.19,0.15,9.14-0.94c0.21-0.06,0.42-0.14,0.62-0.23
	c0.74-0.07,1.49-0.14,2.23-0.21c4.61,0.02,9.25,0.5,13.72-1.12c0.01,0,0.02,0,0.03-0.01c10.79,0,21.57,0.01,32.36,0.01
	c4.5,1.56,9.16,1.19,13.8,1.13c0,0,0,0,0,0c0,0,0,0,0,0c0.74,0.07,1.49,0.13,2.23,0.2c0.25,0.11,0.49,0.19,0.74,0.26
	c2.92,0.99,5.97,0.95,9.02,0.9c8.24,1.91,16.54,3.41,24.97,4.19c0,0,0,0,0,0c0.8,0.34,1.57,0.82,2.41,1.01
	c51.42,11.37,96.39,35.1,135.11,70.68c3.19,2.93,4.82,2.94,7.89-0.15c47.75-47.96,95.59-95.84,143.59-143.54
	c3.85-3.83,2.96-5.48-0.51-8.62c-28.22-25.56-58.7-47.98-91.65-67.06C735.55,23.27,648.97,2,557.36,0.1
	c-35.98-0.75-71.81,2.79-107.16,9.74c-127.09,25-232.2,87.41-315.37,186.59c-26.16,31.19-48.51,64.99-66.18,101.76c0,0,0,0,0,0
	c0,0,0,0,0,0c-0.5,0.71-1.11,1.37-1.49,2.15C23.85,388.87,4.97,482.16,12.46,580.64c3.22,42.39,11.1,83.83,24.18,124.26
	c8.6,26.58,18.53,52.64,31.99,77.22c0,0,0,0,0,0c0,0,0,0,0,0c0.5,1.22,0.9,2.5,1.51,3.67c63.83,121.64,159.4,208.24,287.34,258.3
	c78.1,30.56,159.33,40.7,242.9,33.86c79.34-6.49,154.37-26.97,223.73-66.62c30.32-17.33,58.62-37.48,83.86-61.74
	c1.68-1.42,3.43-2.77,5.02-4.28c65.42-62.28,108.75-137.78,133.21-224.29C1066,651.02,1072.77,579.57,1067.34,507.04z"/>
</svg>
