<?xml version="1.0" encoding="utf-8"?>
<!-- Generator: Adobe Illustrator 23.0.6, SVG Export Plug-In . SVG Version: 6.00 Build 0)  -->
<svg version="1.1" id="Layer_1" xmlns="http://www.w3.org/2000/svg" xmlns:xlink="http://www.w3.org/1999/xlink" x="0px" y="0px"
	 viewBox="0 0 1080 1080" style="enable-background:new 0 0 1080 1080;" xml:space="preserve">
<style type="text/css">
	.st0{fill:#FFFFFF;}
</style>
<g>
	<path class="st0" d="M0,598.41c12.72-0.19,25.45-0.58,38.17-0.37c2.09,0.03,5,2.23,6.04,4.21c3.97,7.56,7.34,15.44,11.46,24.36
		c-3.63-0.82-6.29-1.42-10.37-2.35c6.08,11.78,11.7,22.65,17.85,34.55c-3.26-0.77-5.52-1.31-9.37-2.22
		c4.28,9.99,8.18,19.07,13.02,30.36c3.04-9.85,5.46-17.52,7.76-25.22c4.6-15.38,8.93-30.83,13.78-46.13c2-6.32,3.15-11.9-3.54-16.94
		c13.25,0,26.5,0,40.94,0c-10.14,8.11-3.3,16.08-0.33,23.96c7.09,18.8,14.47,37.48,22.64,58.54c5.98-17.47,11.22-32.73,16.41-48
		c1.87-5.5,3.23-11.22,5.57-16.5c2.93-6.62,3.98-12.5-5-18.12c12.16,0,22.07,0,32.07,0c-13.02,18.88-16.29,41.37-23.95,62.15
		c-7.56,20.49-13.65,41.51-20.76,62.18c-1.84,5.35-5.07,10.23-8.68,17.33c-14.29-37.34-27.75-72.49-41.99-109.7
		c-6.03,19.4-11.43,36.74-16.81,54.09c-4.34,14-8.45,28.08-13.12,41.97c-1.61,4.77-4.62,9.07-7.85,15.2
		c-12-22.41-23.03-43.02-34.89-65.18c4.23,1.39,6.92,2.27,11.79,3.86c-10.12-15.72-19.23-29.88-29.33-45.57
		c4.42,1.32,7.31,2.19,12.64,3.78C15.42,624.71,7.71,612.39,0,600.07C0,599.51,0,598.96,0,598.41z"/>
	<path class="st0" d="M557.06,134.47c7.95,4.55,4.25,10,0.83,15.58c4.65,5.43,5.53,10.43,2.24,17.81
		c-2.36,5.29-1.01,13.75,1.67,19.37c3.41,7.16,2.63,13.18-0.02,19.55c-4.57,11.01-4.24,21.8-0.66,33.06
		c1.29,4.05,0.39,8.98-0.23,13.4c-0.86,6.12-3.43,12.15-3.43,18.22c-0.01,11.41-2.52,23.2,3.42,34.13c0.79,1.46,0.54,3.89-0.03,5.61
		c-5.73,17.35-3.18,34.64,0,51.97c0.54,2.92,1.08,6.33,0.11,8.95c-6.44,17.34-1.7,35.06-2.31,52.58c-0.37,10.58-1,21.15-1.5,31.73
		c-0.27,5.8-0.2,11.65-0.95,17.39c-0.24,1.87-2.58,3.47-3.96,5.19c-0.99-1.73-2.71-3.41-2.84-5.2c-0.46-6.62-0.17-13.29-0.61-19.91
		c-0.33-4.9-1.43-9.74-2.05-14.63c-0.38-2.99-1-6.07-0.66-9.01c2.24-19.47,4.79-38.89-1.27-58.23c-0.85-2.7-0.01-5.98,0.3-8.97
		c0.8-7.83,2.63-15.68,2.38-23.46c-0.33-9.95-2.79-19.82-3.34-29.78c-0.24-4.43,3.16-9.07,2.86-13.47
		c-1.02-14.95,1.33-30.24-5.09-44.76c-1.53-3.46,0.69-8.61,1.26-12.97c0.52-4,2.06-8.1,1.54-11.94c-1.29-9.6-3.69-19.05-5.2-28.62
		c-0.44-2.79-0.32-6.38,1.08-8.63c5.05-8.12,5.06-15.87,1.69-24.75c-1.54-4.07,0.44-9.48,2.01-14.22
		c-1.69-5.32-5.62-10.71,1.09-15.99C549.3,134.47,553.18,134.47,557.06,134.47z"/>
	<path class="st0" d="M250.59,813.51c-5.76,20.72-11.55,41.42-17.26,62.15c-4.77,17.34-9.09,34.81-14.37,51.99
		c-1.73,5.64-5.84,10.55-10.08,17.88c-8.83-23.26-16.59-43.65-24.3-64.05c-11.74-31.05-23.32-62.16-35.32-93.11
		c-1.81-4.68-5.51-8.62-8.65-13.37c14.94,0,29.89,0,46.41,0c-9.26,6.95-4.39,14.02-1.75,21.02c9.63,25.6,19.29,51.19,29.84,79.16
		c2.89-9.88,5.19-17.53,7.36-25.21c5.28-18.64,10.38-37.33,15.81-55.92c1.97-6.75,5.13-13.36-2.88-19.06c15.14,0,30.28,0,47.51,0
		c-10.49,5.84-7.26,12.67-4.77,19.81c8.39,24.02,16.47,48.16,24.69,72.24c1.06,3.11,2.25,6.18,4.05,11.11
		c7.29-21.08,14.01-40.51,20.73-59.93c2.62-7.58,5.32-15.14,7.84-22.75c2.27-6.83,7.27-13.91-4.5-20.6c13.32,0,23.41,0,33.89,0
		c-14.75,17.77-17.28,40.5-25.21,60.99c-7.98,20.62-14.58,41.79-21.76,62.72c-3.59,10.47-6.75,21.1-10.86,31.35
		c-1.95,4.85-5.69,8.97-9.77,15.18c-15.56-45.47-30.29-88.54-45.02-131.61C251.68,813.5,251.14,813.5,250.59,813.51z"/>
	<path class="st0" d="M502.58,538.45c6.15-22.17,18.67-36.58,41.33-40.24c22.73-3.68,45.55,10.21,52.25,32.69
		c1.96,6.59,4.92,7.67,10.97,7.66c112.21-0.16,224.42-0.12,336.63-0.11c9.81,0,20.48,7.04,21.96,14.84c-127.12,0-254.15,0-381.85,0
		c-0.65-12.65-2.4-25.41-13.9-32.84c-5.75-3.71-13.22-6.44-19.98-6.59c-18.65-0.42-27.98,11.41-32.91,39.53
		c-127,0-254.07,0-381.16,0c0.48-6.04,10.8-14.5,17.94-14.91c2.76-0.16,5.54-0.04,8.31-0.04c110.27,0,220.54,0.01,330.82,0.02
		C496.02,538.45,499.05,538.45,502.58,538.45z"/>
	<path class="st0" d="M445.36,852.04c-15.63,1.13-26.35-10.79-21.72-25.05c3.27-10.08,9.34-19.3,14.74-28.57
		c0.98-1.68,4.73-2.43,7.21-2.46c11.9-0.13,23.82-0.06,35.71,0.42c2.7,0.11,5.85,1.56,7.9,3.39c9.91,8.84,21.02,16.92,28.75,27.43
		c5.84,7.94,9.2,18.94,10.28,28.95c4.64,43.1-27.19,80.1-71.93,84.59c-25.05,2.51-48.62-1.84-69.13-17.51
		c-26.93-20.57-38.17-56.05-28.75-90.2c8.86-32.13,36.18-55.61,69.3-60.04c24.98-3.34,48.31,0.81,69.34,12.89
		c-13.72-0.89-28.18-3.33-42.44-2.47c-50.53,3.08-66.62,41.43-65.9,75.22c0.49,23.16,8.1,43.61,27.13,58.12
		c21.36,16.29,48.96,12.58,65.92-8.22c18.61-22.84,20.12-56.72,3.59-80.54c-9.37-13.5-25.64-19.11-38.36-12.93
		c-7.79,3.78-14.2,9.25-14.59,18.62C432.03,842.66,436.68,848.82,445.36,852.04z"/>
	<path class="st0" d="M1075.08,601.1c-3.23,10.68-6.46,21.36-9.69,32.04c-0.67,0.41-1.35,0.83-2.02,1.24
		c-0.56-1.27-0.93-2.67-1.71-3.78c-14-19.78-33.53-26.08-56.19-20.38c-22.86,5.75-33.44,23.34-37.12,45.34
		c-6.67,39.94,27.66,71.54,66.83,62.05c5.46-1.32,7.95-3.47,7.5-9.5c-0.58-7.71-0.45-15.52-0.03-23.26
		c0.29-5.46,1.57-10.86,2.44-16.45c-10.47,0.55-25.25-6.37-27.94,14.58c-3.55-3.06-6.05-5.11-8.44-7.29
		c-7.3-6.66-6.59-12.95,2.26-17.84c2.6-1.44,5.7-2.76,8.59-2.79c19.81-0.24,39.62-0.13,60.46-0.13c-3.44,3.93-6.29,7.18-9.64,11
		c3.05,1.07,5.53,1.94,8.07,2.83c0,0.43,0.21,1.18-0.03,1.37c-14.49,11.26-10.8,27.28-10.38,42.05c0.22,7.81-2.43,11.23-9.48,13.72
		c-22.26,7.88-44.9,9.71-67.9,5c-33.22-6.8-54.77-41.41-48.87-77.72c5.16-31.76,29.88-55.03,63.85-57.62
		c13.19-1,26.99,1.08,39.99,4.05c9.74,2.22,18.69,6.82,28.41-0.41C1074.37,599.84,1074.72,600.47,1075.08,601.1z"/>
	<path class="st0" d="M908.22,691.27c0-26.84,0.24-53.69-0.26-80.52c-0.08-4.06-3.61-8.06-5.69-12.38c9.06,0,18.55,0,29.68,0
		c-10.23,7.82-7.45,18.12-7.5,27.7c-0.15,25.75-0.11,51.5-0.02,77.25c0.03,9.08-2.61,18.89,6.12,26.88
		c-8.73,0-17.52,0.54-26.17-0.32c-2.74-0.27-5.62-3.91-7.57-6.62c-20.31-28.35-40.43-56.82-60.62-85.25
		c-1.1-1.55-2.31-3.01-3.77-4.92c-0.54,1.02-1.15,1.65-1.15,2.27c-0.07,27.14-0.31,54.28,0.13,81.4c0.07,4.13,3.34,8.22,5.32,12.75
		c-8.76,0-18.15,0-28.77,0c11.03-10.15,6.29-23,6.58-34.8c0.59-24.35,0.21-48.73,0.16-73.1c-0.02-8.08,1.85-16.67-5.65-23.76
		c9.03,0,18.1-0.43,27.07,0.27c2.58,0.2,5.51,3.21,7.28,5.65c18.95,26.26,37.69,52.66,56.51,79.01c2.19,3.07,4.48,6.08,6.72,9.11
		C907.14,691.69,907.68,691.48,908.22,691.27z"/>
	<path class="st0" d="M689.2,774.74c16.53,0,31.07,0,47.48,0c-11.74,8.73-7.72,20.28-7.83,30.74c-0.34,33.49-0.02,66.99-0.24,100.48
		c-0.04,5.43-1.53,10.84-2.44,16.85c16.18,0,33.57,0.14,50.95-0.18c2.23-0.04,4.83-2.12,6.55-3.93c3.92-4.15,7.4-8.71,12.71-15.08
		c-1.36,12.46-2.45,22.38-3.58,32.72c-34.38,0-68.29,0-102.2,0c8.25-6.17,6.28-14.84,6.28-22.92c0.03-37.92,0.04-75.85-0.01-113.77
		C696.87,791.07,699,781.95,689.2,774.74z"/>
	<path class="st0" d="M359.05,597.84c0.87,9.48-2.95,20.16,12.06,23.3c-9.06,5.9-16.11,10.49-23.8,15.49
		c1.33,1.66,2.5,3.12,4.02,5.03c-29.22,16.87-39,49.16-59.84,72.7c0.31,0.69,0.63,1.38,0.94,2.07c11.16,0,22.36-0.62,33.46,0.16
		c14.18,1,27.07-0.04,34.7-15.24c0.6,0.53,1.2,1.05,1.8,1.58c-0.98,8.75-1.96,17.5-3,26.77c-32.08,0-63.74,0-95.75,0
		c-1.17-10.21-0.64-18.81,5.77-27.62c21.32-29.29,41.63-59.31,63.51-90.75c-8.96,0-16.48,0-24.01,0c-0.83,0-1.67,0.06-2.49-0.01
		c-16.68-1.31-32.9-1.39-41.84,17.96c-0.61-0.71-1.21-1.41-1.82-2.12c1.24-8.79,2.29-17.61,3.92-26.33
		c0.24-1.26,3.23-2.85,4.96-2.86C300.44,597.78,329.24,597.84,359.05,597.84z"/>
	<path class="st0" d="M283.38,441.08c-2.1,3.93-2.95,5.53-4.32,8.08c14.44,4.89,28.5,9.77,42.63,14.4
		c52.32,17.12,104.66,34.15,156.99,51.23c1.84,0.6,3.94,0.91,5.39,2.04c1.27,0.98,1.8,2.92,2.66,4.44c-1.59,0.78-3.2,2.23-4.78,2.2
		c-2.42-0.05-4.83-1.06-7.22-1.76c-60.04-17.49-120.07-35.01-180.11-52.49c-7.17-2.09-14.24-4.45-21.67,0
		c-1.6,0.96-5.26-0.38-7.4-1.64c-13.88-8.18-28.67-12.45-44.86-13.24c-6.45-0.32-12.75-3.96-19.08-6.19
		c-1.01-0.35-1.76-1.58-2.76-1.78c-3.17-0.64-6.39-0.98-9.6-1.44c1.77,2.88,3.44,5.83,5.38,8.58c0.52,0.73,1.91,0.85,3.33,3.37
		c-2.69,0.67-5.45,2.1-8.07,1.88c-14.9-1.21-26.1-11.39-28.98-25.82c-0.92-4.62,16.97-24.83,21.59-23.96
		c2.56,0.48,5.76,1.66,7.17,3.61c18.67,25.88,46.9,26.43,74.55,28.44C269.95,441.43,275.71,441.08,283.38,441.08z"/>
	<path class="st0" d="M445.31,173.04c0.51,13.07,5.23,24.94,10.43,36.77c2.14,4.86,2.79,10.37,4.62,15.39
		c2.91,7.99,6.98,15.61,9.22,23.76c4.12,14.96,6.57,30.39,10.98,45.25c6.9,23.3,15.31,46.16,22.25,69.45
		c10.96,36.81,21.3,73.81,31.64,110.79c0.55,1.96-1.25,4.57-1.95,6.87c-1.8-1.74-4.55-3.16-5.27-5.27
		c-9.06-26.42-17.83-52.95-26.68-79.45c-14.45-43.27-28.91-86.54-43.37-129.81c-0.44-1.31-0.61-2.87-1.44-3.87
		c-11.41-13.73-9.75-31.53-14.94-47.17c-3.89-11.72-9-23.04-13.62-34.52c-0.28-0.71-0.95-1.55-1.63-1.77
		c-6.23-2.04-9.19-7.6-6.04-12.08c3.2-4.56,9.55-8.48,15.09-9.47C443.63,156.3,446.18,160.67,445.31,173.04z"/>
	<path class="st0" d="M323.87,210.68c8.83,12.32,17.33,24.47,26.18,36.35c2.35,3.16,5.79,5.51,8.7,8.27c0.98,0.93,2.09,1.85,2.75,3
		c4.35,7.57,8.11,15.53,13.02,22.71c4.44,6.49,10.58,11.81,15.11,18.25c5.32,7.55,9.32,16.02,14.57,23.63
		c18.98,27.52,38.13,54.92,57.43,82.21c17.1,24.17,34.49,48.13,51.75,72.18c0.97,1.35,2.42,2.63,2.71,4.12
		c0.42,2.18,0,4.53-0.06,6.81c-2.16-0.69-5.16-0.7-6.35-2.18c-7.13-8.82-13.84-17.97-20.7-27c-29.6-38.98-59.15-78.01-88.85-116.91
		c-6.42-8.4-13.68-16.15-20.08-24.56c-3.99-5.25-6.74-11.44-10.68-16.73c-9.2-12.37-18.97-24.31-28.13-36.71
		c-3.68-4.98-6.05-10.92-9.6-16.01c-4.63-6.65-10.57-12.47-14.65-19.41C310.74,218.12,311.21,217.84,323.87,210.68z"/>
	<path class="st0" d="M827.57,446.57c8.17-1.4,15.76-2.06,22.98-4.06c24.52-6.78,48.85-14.23,73.37-21
		c10.1-2.79,15.45,0.9,16.74,11.06c0.21,1.66-2.75,5.14-4.59,5.42c-32.02,4.83-61.54,20.6-94.54,21.35
		c-5.33,0.12-10.51,3.94-15.89,5.68c-12.88,4.17-25.72,8.51-38.77,12.07c-21.05,5.75-42.42,10.37-63.35,16.51
		c-19.32,5.67-38.14,13.05-57.38,19.04c-12.65,3.94-25.6,6.94-38.5,10.01c-4.07,0.97-8.42,0.79-13.22-0.74
		c1.05-0.98,1.95-2.53,3.17-2.84c46.71-12.15,91.25-30.53,136.48-46.95c22.06-8.01,44.93-13.75,67.37-20.74
		C824.41,450.47,830.2,451.45,827.57,446.57z"/>
	<path class="st0" d="M584.94,489.87c1.48-2.73,2.67-5.67,4.47-8.17c40.88-56.83,82.46-113.18,122.48-170.61
		c19.63-28.18,38.25-57.13,57.12-85.88c1.55-2.37,2.46-5.62,2.46-8.46c-0.01-6.32,2.14-7.88,7.4-4.28
		c5.03,3.43,9.97,6.99,14.85,10.62c4.08,3.03,3.81,5.29-0.91,7.83c-3.92,2.1-7.95,4.82-10.66,8.26
		c-15.9,20.19-31.91,40.33-46.91,61.19c-9.89,13.76-21.18,26.38-30.81,40.34c-9.73,14.11-20.42,27.57-30.71,41.3
		c-10.45,13.95-20.9,27.91-31.4,41.83c-10.33,13.7-20.7,27.37-31.09,41.02c-5.7,7.48-11.37,15.01-17.36,22.25
		c-1.72,2.08-4.52,3.28-6.83,4.88C586.34,491.29,585.64,490.58,584.94,489.87z"/>
	<path class="st0" d="M498.8,503.19c-2.75-1.08-5.84-1.67-8.21-3.3C457.27,477,424.08,453.95,390.82,431
		c-41.39-28.57-82.6-57.4-124.36-85.41c-11.56-7.75-24.69-13.23-37.33-19.26c-5.72-2.73-9.62-6.79-8.34-12.72
		c0.92-4.24,4.09-8.99,7.67-11.4c5.24-3.54,10-0.3,14.66,3.67c17.58,14.96,35.27,29.85,53.53,43.96
		c17.91,13.85,36.54,26.79,54.92,40.03c29.64,21.36,59.4,42.55,88.98,64c17.71,12.84,35.12,26.08,52.74,39.05
		c2.83,2.08,6.01,3.68,9.03,5.51C501.14,500.01,499.97,501.6,498.8,503.19z"/>
	<path class="st0" d="M865.82,300.13c8.8,0.35,12.91,3.81,14.55,10.24c1.85,7.24-2.13,11.67-7.72,14.92
		c-8.84,5.14-18.27,9.37-26.74,15.04c-35.13,23.52-70.25,47.09-104.91,71.3c-42.68,29.82-84.89,60.29-127.31,90.48
		c-1.57,1.12-3.1,2.55-4.87,3.08c-1.32,0.39-3-0.44-4.53-0.73c0.3-1.49,0.18-3.31,1.01-4.4c1.12-1.49,2.96-2.44,4.52-3.59
		c66.75-49.47,133.6-98.81,200.18-148.51c13.46-10.05,25.48-22.03,39.05-31.91c4.35-3.17,6.63-6.46,9.15-10.71
		C859.89,302.5,864.16,301.19,865.82,300.13z"/>
	<path class="st0" d="M683.93,176.2c-0.49,1.76-1.09,5.34-2.45,8.61c-28.12,68.04-52.16,137.53-74.64,207.6
		c-8.87,27.64-18.53,55.03-27.83,82.53c-0.53,1.57-0.69,3.5-1.72,4.59c-1.31,1.37-3.35,2.05-5.08,3.03
		c-0.71-1.62-2.16-3.33-1.97-4.84c0.47-3.81,1.42-7.62,2.62-11.29c21.53-66.3,43.26-132.53,64.64-198.87
		c10.09-31.31,19.55-62.82,29.29-94.24c0.25-0.79,0.21-1.76,0.66-2.38c2.5-3.43,5.44-9.82,7.64-9.59
		C681.66,162.06,683.84,167.99,683.93,176.2z"/>
	<path class="st0" d="M791.95,729.75c-12.53,0-25.05,0-39.69,0c10.11-6.84,7.94-15.98,7.95-24.54c0.05-29.35,0.23-58.7-0.15-88.04
		c-0.08-6.12-2.32-12.2-3.64-18.67c10.46,0,22.78,0,37.4,0c-10.15,6.54-8.06,15.2-8.08,23.25c-0.07,28.52-0.06,57.03-0.01,85.55
		C785.75,715.15,783.78,723.64,791.95,729.75z"/>
	<path class="st0" d="M210.53,598.27c10.38,0,22.61,0,37.15,0c-10.47,7.07-8.3,16.28-8.32,24.87c-0.06,27.95-0.05,55.91,0,83.86
		c0.01,7.83-2.14,16.35,6.22,22.55c-12.45,0-24.91,0-39.42,0c10.53-6.74,8.21-16.23,8.23-25.06c0.08-28.78,0.25-57.57-0.14-86.35
		C214.17,611.8,211.94,605.48,210.53,598.27z"/>
	<path class="st0" d="M993.05,929.77c3.46-7.22,6.67-13.89,9.87-20.56c0.77,0.36,1.54,0.72,2.32,1.08c0,8.66,0,17.32,0,25.98
		c-0.75,0.06-1.5,0.12-2.24,0.18c-0.37-4.04-0.75-8.07-1.36-14.72c-2.08,4.7-3.09,7.56-4.57,10.14c-1,1.74-2.66,3.1-4.02,4.64
		c-1.41-1.45-3.15-2.7-4.14-4.39c-1.48-2.52-2.42-5.35-4.45-10.01c-0.65,5.99-1.08,10.01-1.51,14.03c-0.72-0.02-1.43-0.04-2.15-0.06
		c0-8.5,0-17.01,0-27.06C988.64,914.07,987.64,923.38,993.05,929.77z"/>
	<path class="st0" d="M974.63,913.52c-2.23,0.51-4.46,1.01-8.21,1.87c0,7,0,13.99,0,20.98c-0.94-0.02-1.88-0.03-2.83-0.05
		c0-6.82,0-13.63,0-20.75c-3.75-0.9-6.42-1.54-9.09-2.19c0.06-0.7,0.11-1.41,0.17-2.11c6.66,0,13.32,0,19.98,0
		C974.64,912.01,974.63,912.76,974.63,913.52z"/>
	<path class="st0" d="M961.85,834.32c-6.73-35.62-33.39-61.79-72.75-60.19c-26.56,1.08-53.2,0.2-79.8,0.24
		c-2.59,0-5.19,0.29-9.08,0.52c4.29,5.13,7.68,9.19,11.9,14.23c-5.82-0.33-9.98-0.56-15.27-0.86c5.01,9.92,9.35,18.5,14.13,27.97
		c-3.03-0.66-5.22-1.14-8.43-1.84c1.3,3.22,1.89,5.64,3.15,7.65c5.05,8.06,6.22,16.77,6.03,26.17c-0.43,21.33-0.1,42.67-0.15,64.01
		c-0.02,8.36,2.12,17.35-8.61,23.7c3.59,0.5,4.88,0.83,6.18,0.83c26.33,0.03,52.67,0.53,78.97-0.27c8.9-0.27,18.2-2.7,26.47-6.16
		C951.68,914.81,969.86,876.73,961.85,834.32z M907.01,909.27c-10.54,8.88-22.64,13.66-36.56,13.55
		c-10.22-0.08-20.45-0.02-29.6-0.02c0.77-6.19,2.07-11.91,2.1-17.64c0.19-35.47,0.09-70.93,0.09-106.4c0-3.25,0-6.49,0-10.29
		c16.4,0,31.96-1.13,47.22,0.49c7.32,0.78,15.3,5.47,20.89,10.65C934.06,820.8,941.52,880.2,907.01,909.27z"/>
	<path class="st0" d="M680.23,936.07c-14.91-21.16-29.44-42.03-44.28-62.67c-3.86-5.37-8.71-10.02-13.34-15.26
		c8.1-3.73,17.05-7.86,26.77-12.34c-1.52-2.09-2.72-3.73-3.86-5.29c4.47-5.23,8.55-10.01,13.13-15.37
		c-2.87-0.72-4.97-1.24-6.89-1.72c-0.56-32.92-17.17-49.06-49.82-49.07c-11.91-0.01-23.82,0-35.73,0c-8.96,0-17.93,0-26.89,0
		c-0.55,0.54-1.11,1.08-1.66,1.62c9.82,5.15,7.75,13.63,7.76,21.46c0.04,34.89,0.32,69.79-0.15,104.68
		c-0.16,11.51,4.52,24.2-7.38,33.92c16.18,0,30.82,0,43.27,0c-1.49-6.69-3.55-12.91-4.13-19.27c-0.71-7.69-0.17-15.49-0.17-23.25
		c0-10.14,0-20.28,0-32.11c7.12,1.4,15.41,0.53,18.04,3.97c15.39,20.17,29.45,41.34,43.96,62.17c-2.54,3.02-4.61,5.48-7.18,8.53
		C648.55,936.07,664.52,936.07,680.23,936.07z M615.38,834.65c-8.26,16.1-22.98,13.57-38.08,13.04c0-19.9,0-39.15,0-59.01
		c13.87-1.12,27.59-2.59,36.92,10.66C622.2,810.68,621.55,822.64,615.38,834.65z"/>
	<path class="st0" d="M696.92,724.88c-13.87,0-13.87,0.01-17.67,13.24c6.27,1.1,11.58-12.44,20.34,0.22
		c-7.01,3.6-12.9,7.92-19.48,9.78c-23.16,6.53-48.71-2.69-62.55-23.78c-8.58-13.07-14.51-27.86-21.79-41.79
		c-2.58-4.93-5.63-9.62-8.67-14.78c0.24-0.16,2.1-1.32,3.91-2.56c14.87-10.22,21.41-26.49,16.77-41.66
		c-4.74-15.47-19.62-25.64-37.7-25.73c-7.75-0.04-15.51,0-23.26,0c-11.2,0-22.39,0-33.59,0c6.9,6.75,6.29,14.45,6.24,22.23
		c-0.16,28.53-0.03,57.05-0.09,85.58c-0.02,8.35,2.11,17.33-8.85,23.83c15.18,0,27.72,0,40.48,0c-2.51-3.86-6.23-6.97-6.36-10.23
		c-0.64-15.13-0.28-30.3-0.28-45.6c2.58-0.24,4.22-0.26,5.82-0.55c8.05-1.44,11.97,1.43,14.59,9.75c3.38,10.71,8.59,21,14.17,30.82
		c19.74,34.77,49.47,52.08,89.85,49.11c23.72-1.74,40.57-16.48,43.78-37.87C707.29,724.88,702.11,724.88,696.92,724.88z
		 M579.56,648.2c-8.26,13.84-21.48,10.85-34.79,10.38c0-16.14,0-31.24,0-47.13c12.81,0.67,26.44-4,35.23,9.3
		C585.92,629.73,584.97,639.15,579.56,648.2z"/>
	<path class="st0" d="M683.14,597.7c-15.75,0.74-31.56,0.1-47.34,0.16c-1.99,0.01-3.99,0.44-3.95,0.44
		c1.34,6.8,3.47,12.88,3.57,19.01c0.4,24.36,0.4,48.73,0.02,73.09c-0.11,7.27-1.92,14.51-3.07,22.55c19.13,0,39.89,0.39,60.63-0.14
		c13.39-0.34,24.41-6.53,32.92-16.96c8.14-9.97,12.44-21.56,13.56-34.21C742.45,628.02,728.7,595.57,683.14,597.7z M706.69,680.75
		c-5.7,12.04-15.31,18.57-29.1,18.18c-6.62-0.19-13.25-0.03-19.27-0.03c1.08-5.47,2.65-9.82,2.7-14.19
		c0.24-24.05,0.12-48.11,0.12-72.44c9.66,0,18.81-1.01,27.63,0.27c9.68,1.41,16.04,8.42,19.53,17.47
		C714.88,647.09,714.52,664.19,706.69,680.75z"/>
	<path class="st0" d="M461.37,729.62c15.63,0,28.6,0,40.52,0c-3.61-7.79-7.67-15.21-10.59-23.06c-10.71-28.78-21-57.71-31.53-86.55
		c-2.67-7.32-7.46-14.57,2.29-21.47c-15.15,0-28.73,0-44.54,0c9.56,5.93,6.6,11.62,3.67,17.92c-7.34,15.8-14.23,31.82-21.2,47.79
		c-4.01,9.18-6.1,20.51-23.04,15.14c2.98,3.49,3.77,4.98,5.01,5.77c5.8,3.74,5.93,7.95,2.71,13.85
		c-5.46,10.01-10.07,20.48-14.98,30.64c9.04,0,19.22,0,31.53,0c-9.38-6.11-5.99-11.98-3.93-18.86
		c3.95-13.18,11.08-18.13,25.11-16.61c14.04,1.52,28.38,0.33,40.4,0.33c0.96,5.61,1.29,9.55,2.34,13.29
		C467.24,715.19,473.07,722.63,461.37,729.62z M411.44,679.82c7.91-18.01,15.4-35.08,23.63-53.82c6.86,18.84,13.13,36.04,19.6,53.82
		C439.92,679.82,426.3,679.82,411.44,679.82z"/>
</g>
</svg>
