<?xml version="1.0" encoding="utf-8"?>
<!-- Generator: Adobe Illustrator 23.0.6, SVG Export Plug-In . SVG Version: 6.00 Build 0)  -->
<svg version="1.1" id="Layer_1" xmlns="http://www.w3.org/2000/svg" xmlns:xlink="http://www.w3.org/1999/xlink" x="0px" y="0px"
	 viewBox="0 0 1080 1080" style="enable-background:new 0 0 1080 1080;" xml:space="preserve">
<style type="text/css">
	.st0{fill:#FFFFFF;}
</style>
<path class="st0" d="M1073.38,376.09c-25.99-114.09-95.51-191.4-208.26-222.98c-113.36-31.75-212.27-0.14-294.43,83.67
	c-10.94,11.16-20.17,23.99-30.67,36.63c-2.38-3.08-4.58-5.76-6.61-8.58C410.86,94.58,156.26,101.69,46.04,280.04
	c-54.37,87.97-62.98,180.92-12.93,274.9c26.45,49.66,64.44,90.5,104.65,128.99c85.76,82.09,172.37,163.3,258.52,244.99
	c8.09,7.67,16.42,13.05,27.79,8.18c11.39-4.87,13.24-14.58,13.21-25.76c-0.17-64.56-0.62-129.14,0.17-193.69
	c0.64-52.43,44.69-97.35,95.87-99.58c56-2.44,103.02,35.78,108.8,89.92c2.2,20.59,1.47,41.53,1.56,62.31
	c0.19,48.42,0.13,96.85,0.03,145.27c-0.02,9.93,3.48,17.5,12.89,21.51c9.34,3.98,17.48,1.54,24.63-5.23
	c1.3-1.23,2.62-2.45,3.92-3.68c71.39-67.54,142.71-135.16,214.21-202.58c41.51-39.14,82.79-78.41,117.84-123.74
	C1069.11,534.73,1092.5,460.03,1073.38,376.09z M277.2,656.41c-4.75,12.39-21.17,17.38-31.34,8.31
	c-67.72-60.4-122.89-128.5-132.95-223.28c-0.68-6.37-0.09-12.88-0.09-19.32c4.18-76.56,33.73-140.21,96.78-186.34
	c7.94-5.81,16.36-7.36,25.02-1.95c7.81,4.87,11.69,12.68,8.89,21.16c-1.95,5.91-6.72,11.73-11.75,15.65
	c-52.77,41.19-79.75,95.23-77.6,161.92c1.69,52.46,25.21,97.35,57.91,137.1c17.69,21.5,37.93,40.94,57.52,60.82
	C277.12,638.12,281.17,646.08,277.2,656.41z M404.47,586.97c-5.55,9.37-17.11,13.14-27.11,7.7
	c-59.15-32.22-103-100.46-100.34-177.51c4.15-53.59,32-100.3,85.76-130.99c8.28-4.73,16.31-5.14,24.11,0.64
	c7.08,5.24,10.46,13.17,7.24,20.8c-2.66,6.31-8.32,12.44-14.23,16.1c-30.46,18.88-51.39,44.86-58.43,80.07
	c-11.51,57.58,11.3,102.78,53.99,139.72c6.99,6.05,15.36,10.48,22.87,15.95C407.72,566.29,410.08,577.5,404.47,586.97z
	 M540.8,534.57c-49.3,0.13-88.85-39.26-88.9-88.53c-0.05-49.47,39.18-88.76,88.58-88.72c49.15,0.04,88.76,39.8,88.61,88.94
	C628.94,494.74,589.24,534.45,540.8,534.57z M706.69,592.83c-11.88,7.35-23.63,4.88-30.13-5.35c-6.58-10.36-3.18-22.66,9.01-30.08
	c34.04-20.74,58.19-49.42,70.52-87.5c18.35-56.67-3.8-115.19-55.04-145.58c-7.73-4.58-15.65-9.61-15.03-19.11
	c0.42-6.37,3.99-13.72,8.49-18.35c6.34-6.52,14.98-5.4,22.9-1c41.93,23.31,69.35,58.1,81.38,104.48c3.39,13.05,4.3,26.74,6.04,38.15
	C800.08,501.87,766.97,555.55,706.69,592.83z M904.27,591.29c-19.86,24.78-42.94,47.02-65.15,69.83
	c-10.48,10.76-23.76,10.45-32.12,0.91c-8.22-9.37-6.94-21.16,4.09-31.19c36.27-33,68.84-68.93,91.47-112.96
	c38.93-75.73,30.99-154.61-22.89-218.6c-9.12-10.83-20.54-19.87-31.63-28.84c-11.46-9.28-14.99-20.24-8.22-30.52
	c7.09-10.76,19.38-12.49,31.92-3.56c51.36,36.57,80.15,87.53,93.01,148.22c2.73,12.89,3.34,26.23,4.92,39.36
	C967.49,487.58,943.24,542.66,904.27,591.29z"/>
</svg>
