<?xml version="1.0" encoding="utf-8"?>
<!-- Generator: Adobe Illustrator 23.0.6, SVG Export Plug-In . SVG Version: 6.00 Build 0)  -->
<svg version="1.1" id="Layer_1" xmlns="http://www.w3.org/2000/svg" xmlns:xlink="http://www.w3.org/1999/xlink" x="0px" y="0px"
	 viewBox="0 0 1080 1080" style="enable-background:new 0 0 1080 1080;" xml:space="preserve">
<style type="text/css">
	.st0{fill:#FEFEFE;}
	.st1{fill:#B7338F;}
</style>
<g>
	<path class="st0" d="M562.65,1348.08c-264.28,0-528.56-0.02-792.83,0.15c-6,0-7.35-1.35-7.35-7.35
		c0.16-528.56,0.16-1057.11,0-1585.67c0-6,1.35-7.35,7.35-7.35c528.56,0.16,1057.11,0.16,1585.67,0c6,0,7.35,1.35,7.35,7.35
		c-0.16,528.56-0.16,1057.11,0,1585.67c0,6-1.35,7.35-7.35,7.35C1091.21,1348.05,826.93,1348.08,562.65,1348.08z M-166.74,682.44
		c-0.04,62.1-0.23,124.21-0.05,186.31c0.1,35.96,1.5,71.87,6.23,107.59c8.29,62.53,31.76,118.51,73.72,165.76
		c41.14,46.34,92.28,77.05,152.63,92.07c42.13,10.49,85.19,13.32,128.27,13.5c178.33,0.75,356.66,0.94,534.99,0.89
		c72.47-0.02,144.99,2.3,217.41-2.71c24.99-1.73,49.77-4.85,73.95-11.74c43.67-10.18,82.34-30.53,117-58.56
		c33.22-26.87,59.03-59.82,78.09-98.09c25.91-52.03,34.88-107.86,35-165.1c0.45-231.97,0.2-463.93,0.1-695.9
		c-0.01-26.91,0.4-53.81-1.27-80.74c-2.62-42.35-12.37-82.92-28.15-122.11c-11.95-29.68-30.03-55.72-51.22-79.33
		c-48.31-53.86-109.22-84.68-180.26-96.59c-44.97-7.54-90.39-7.53-135.66-7.64c-207.26-0.52-414.53-0.25-621.8-0.09
		c-26.85,0.02-53.67,0.59-80.54,2.59c-26.81,1.99-53.61,3.48-79.68,10.13C-44-127.67-119.04-55.29-151.97,59.89
		c-12.1,42.32-14.27,86.13-14.46,129.84c-0.54,124.78-0.43,249.56-0.52,374.34C-166.98,603.53-166.82,642.99-166.74,682.44z"/>
	<path class="st0" d="M976.96,979.9c-31.42,31.18-68.87,52.06-110.86,65.44c-37.46,11.94-76.08,16.02-115.06,17.74
		c-104.89,4.63-209.85,3.05-314.79,2.89c-44.76-0.07-89.57-0.91-134.23-4.37c-43.79-3.39-86.49-11.8-126.4-31.02
		c-20.49-9.87-39.12-22.84-56.39-37.52c-21.46-18.24-39.37-39.76-55.11-63.08c-6.96-10.31-11.13-22.03-16.75-33
		c-10.38-20.27-14.66-42.31-20.63-63.96c-7.39-26.79-7.2-54.25-9.2-81.52c-3.6-49.11-1.69-98.37-3.2-147.54
		c0.46-77.06,0.88-154.12,1.41-231.18c0.14-19.7,0.28-39.52,1.75-59.05c4.29-57.07,15.09-112.78,45.85-162.46
		c37.6-60.72,91.28-100.37,159.8-120.07c30.03-8.64,60.72-12.86,91.91-14.45c133.5-6.83,267.06-3.98,400.59-2.57
		c44.31,0.47,88.72,2.87,132.04,13.89c38.1,9.69,73.63,25,104.9,49.26c57.65,44.74,91.04,104.11,104.19,175.16
		c9.34,50.47,9.79,101.68,10.32,152.8c1.07,102.12,1.65,204.26-0.81,306.37c-1.15,48.02-2.88,96.16-16.26,142.89
		c-13.52,47.2-35.56,89.42-71.72,123.45C977.77,978.52,977.41,979.26,976.96,979.9z M108.99,583.02c-0.99,30.1-0.21,60.2,0.35,90.3
		c0.76,41.28,0.86,82.61,6.77,123.58c4.85,33.61,14.91,65.44,35.17,93.19c32.28,44.21,77.5,65.97,130.4,73.94
		c42.55,6.41,85.52,6.87,128.36,7.16c115.1,0.78,230.24,2.87,345.3-2.49c45.81-2.13,90.51-9.26,129.99-35.02
		c13.8-9.01,26.81-19.08,36-33.19c19.37-17.97,28.65-41.66,36.49-65.89c12.72-39.32,12.97-80.3,14.35-121.02
		c2.91-86.08,1.52-172.2,1.42-258.3c-0.07-59.15,1.06-118.52-8.02-177.16c-12.49-80.6-56.05-135.47-136.6-157.66
		c-38.16-10.51-77.43-11.03-116.55-12.27c-83.68-2.65-167.4-1.54-251.1-1.36c-59.68,0.13-119.48-0.55-178.8,7.66
		c-36.68,5.07-70.79,17.16-100,41.05c-43.73,35.77-61.93,83.99-68.02,138.2c-3.84,34.21-4.41,68.6-5.11,102.96
		C108.14,458.81,108.3,520.91,108.99,583.02z"/>
	<path class="st1" d="M757.93,258.15c-0.01,32.93,30.69,66.51,63.37,64.71c34.34-1.89,62.36-23.18,63.21-63.95
		c0.73-35.49-27.56-62.93-63.26-63.12C788.24,195.61,759.93,222.56,757.93,258.15z"/>
	<path class="st0" d="M763.81,692.96c-23.12,32.14-51.31,58.89-85.45,79.03c-29.26,17.26-60.62,30.32-94.22,34.76
		c-126.88,16.79-234.57-45.63-286.08-149.63c-13.6-27.45-21.38-56.62-25.52-86.85c-3.97-38.38-0.76-76.28,10.76-112.96
		c9.14-29.09,23.31-55.97,41.91-80.48c32.56-42.92,73.87-74.06,124.47-92.15c39.22-14.02,79.76-18.68,121.43-13.5
		c91,11.31,159.32,57.12,205.43,135.67c28.43,48.42,38.41,101.49,33.77,157.34c-1.54,18.51-4.51,37.09-10.16,54.51
		c-7.68,23.68-17.91,46.67-32.12,67.5C766.53,688.38,765.21,690.7,763.81,692.96z M684.41,641.28
		c12.28-15.35,19.93-33.15,25.35-51.7c6.34-21.7,9.76-43.61,5.67-66.73c-2.78-15.73-3.64-31.78-9.85-46.73
		c-24.19-58.28-66.89-94.2-128.73-108c-26.01-5.8-51.86-5.78-77.22,0.36c-91.78,22.22-147.99,110.01-131.51,203.85
		c2.24,11.2,4.8,22.39,9.32,32.85c32.54,75.13,102.21,117.18,183.75,108.91C612.82,708.84,654,683.6,684.41,641.28z"/>
	<path class="st0" d="M757.93,258.15c2.01-35.6,30.32-62.55,63.31-62.36c35.7,0.2,64,27.63,63.26,63.12
		c-0.84,40.77-28.87,62.06-63.21,63.95C788.61,324.66,757.92,291.08,757.93,258.15z"/>
</g>
</svg>
