<?xml version="1.0" encoding="utf-8"?>
<!-- Generator: Adobe Illustrator 23.0.6, SVG Export Plug-In . SVG Version: 6.00 Build 0)  -->
<svg version="1.1" id="Layer_1" xmlns="http://www.w3.org/2000/svg" xmlns:xlink="http://www.w3.org/1999/xlink" x="0px" y="0px"
	 viewBox="0 0 1080 1080" style="enable-background:new 0 0 1080 1080;" xml:space="preserve">
<style type="text/css">
	.st0{fill:#FFFFFF;}
</style>
<path class="st0" d="M0.82,0c0,360.17,0,720.23,0,1080c360.18,0,720.36,0,1080.27,0c0-360.33,0-720.21,0-1080
	C720.82,0,360.82,0,0.82,0z M768.51,835.07c-66.43,0-133.01,0-200.33,0c0-11.95,0-23.49,0-36.05c6.6-0.56,12.86-0.57,18.91-1.69
	c16.7-3.1,22.49-14.87,14.63-29.95c-3.12-5.97-6.98-11.68-11.22-16.93c-25.56-31.68-51.31-63.2-77.04-94.74
	c-1.38-1.69-3.16-3.05-4.57-4.39c-14.01,13.44-27.81,26.25-40.96,39.7c-2.36,2.41-2.78,7.45-2.82,11.29
	c-0.24,22.61-0.26,45.23-0.06,67.85c0.2,23.15,4.78,27.6,27.85,27.93c4.94,0.07,9.88,0.01,17.04,0.01c0,7.05,0,13.18,0,19.31
	c0,5.82,0,11.65,0,18.09c-62.94,0-124.79,0-187.72,0c0-11.73,0-23.62,0-37.39c12.44,0,24.93,0.09,37.42-0.02
	c24.99-0.22,29.94-5.13,29.96-30.55c0.06-67.85-0.05-135.69-0.08-203.54c-0.05-86.84-0.08-173.69-0.15-260.53
	c-0.02-21.95-3.79-25.83-26.02-26.68c-13.09-0.5-26.2-0.62-39.3-0.95c-0.38-0.01-0.74-0.46-2.09-1.34c0-11.69,0-24.04,0-37.66
	c47.34-3.97,94.39-7.91,143.18-11.99c0,137.59,0,273.83,0,413.9c6.04-4.93,9.52-7.29,12.44-10.21
	c33.57-33.59,67.06-67.26,100.57-100.91c1.6-1.6,3.21-3.19,4.7-4.89c7.05-8.09,14.81-17.97,7.98-27.67
	c-4.54-6.44-15.38-10.68-23.89-11.66c-27.08-3.11-27.17-2.34-25.92-30.33c0.1-2.19,0.44-4.37,0.79-7.65c66.21,0,131.97,0,198.84,0
	c0,11.81,0,23.7,0,37.14c-55.45,2.88-93.43,36.91-129.66,73.71c-13.62,13.83-26.49,28.41-41.02,44.06
	c3.83,4.99,9.16,12.07,14.63,19.04c34.09,43.38,67.87,87.01,102.43,130.01c25.72,32,41.91,41.28,81.48,49.81
	C768.51,810.7,768.51,822.35,768.51,835.07z"/>
</svg>
