<?xml version="1.0" encoding="utf-8"?>
<!-- Generator: Adobe Illustrator 23.0.6, SVG Export Plug-In . SVG Version: 6.00 Build 0)  -->
<svg version="1.1" id="Layer_1" xmlns="http://www.w3.org/2000/svg" xmlns:xlink="http://www.w3.org/1999/xlink" x="0px" y="0px"
	 viewBox="0 0 1080 1080" style="enable-background:new 0 0 1080 1080;" xml:space="preserve">
<style type="text/css">
	.st0{fill:#FFFFFF;}
</style>
<g>
	<path class="st0" d="M218.3,1052.6c-71.1,13.9-100.5-39.8-133.5-84.7C-39.6,798.5-22.9,528.1,107,360.4
		c124.4-160.6,291.8-229.2,490.4-210c247.7,23.9,440.8,202.7,476.5,457c18.6,132.8-4.4,254.7-81.7,365.5
		c-18.8,27-43.4,48.1-66.4,70.7c-18.2,17.9-41.7,7.7-63.1,8.4c6.9-30.1,33.2-46.3,50.3-68.9c33.2-43.9,60.2-90.4,77.6-142.8
		c7.6-23,3.1-38.7-13.4-55.9c-50.6-52.7-106.6-99.7-158.5-151c-32.9-32.5-32.9-34.8-4.7-72.2c37.9-50.3,66.6-105.6,91.6-163.1
		C741.4,719.3,484.5,893.7,116.1,898.2c16.8,43.7,45.4,80.3,77,115.3C203.6,1025,219.8,1033.2,218.3,1052.6z"/>
	<path class="st0" d="M925,267.7c-50.8-42.1-99.2-82.3-157.8-99.3c-54-15.7-71-44.6-61.9-96.3c2.1-12.1,0.3-25,0.3-46.9
		c74.6,54.3,146.7,57.4,219.4,1.2C925,110.4,925,186.1,925,267.7z"/>
	<path class="st0" d="M786.4,849.7c-21.4-43.4-48.8-62.7-90.3-53.2c-19.9,4.6-13.6-10.3-13.4-18c0.9-28.7,17.2-49.1,42.9-57.3
		c29-9.2,57.3-5.1,77.6,22.3c18.8,25.4,17.8,51.5,3.5,77.9C801.9,830.4,794.9,838.1,786.4,849.7z"/>
	<path class="st0" d="M543.4,1052.6c-31.6-4-61.4-11.9-84.3-35.5c-8.1-8.4-16.1-19-8.4-30.8c7.7-11.8,20.1-4.4,28.2-0.6
		c43.9,20.6,86.7,18.5,130.1-1.1c7-3.1,17.6-12.5,24.2-0.5c5.1,9.3,2.9,20.1-4.6,29C606.3,1039.9,575.6,1047.8,543.4,1052.6z"/>
</g>
</svg>
