<?xml version="1.0" encoding="utf-8"?>
<!-- Generator: Adobe Illustrator 23.0.6, SVG Export Plug-In . SVG Version: 6.00 Build 0)  -->
<svg version="1.1" id="Layer_1" xmlns="http://www.w3.org/2000/svg" xmlns:xlink="http://www.w3.org/1999/xlink" x="0px" y="0px"
	 viewBox="0 0 1080 1080" style="enable-background:new 0 0 1080 1080;" xml:space="preserve">
<style type="text/css">
	.st0{fill:#FFFFFF;}
</style>
<g>
	<path class="st0" d="M236.5,439.05c25.65,0,51.16,0.13,76.67-0.1c5.69-0.05,12.27,0.17,16.86-2.48c12.61-7.27,23.82-2.55,35.72,1.3
		c16.72,5.41,33.34,2.79,49.83-0.03c0.19-1.42,0.38-2.83,0.57-4.25c-5.97-1.94-11.94-3.89-18.78-6.11
		c4.82-10.72-0.45-14.94-10.9-16.1c-3.9-0.43-7.77-2.21-11.36-3.98c-12.28-6.04-13.45-20.82-2.9-29.52
		c4.05-3.34,8.05-7.46,10.34-12.09c4.4-8.87,9.96-12.31,20.49-12.27c11.3,0.04,23.17-2.6,33.75-6.73
		c10.18-3.97,18.77-4.13,28.28,0.65c2.55,1.28,6.28,0.19,10.05-2.55c-4.11-1.35-8.23-2.69-13.44-4.4
		c8.65-11.07,14.48-21.87,1.56-33.12c-0.73-0.63,1.06-6.42,2.97-7.47c26.99-14.85,52.16-35.52,86.14-29.57
		c4.73,0.83,12.9,4.93,12.73,6.92c-0.73,8.19,17.5,15.39,0.82,22.87c10.96,15.98,33.06,20.37,48.38,10.69
		c4.15-2.62,8.44-6.12,12.97-6.68c3.92-0.48,9.71,1.5,12.12,4.47c3.53,4.35,4.77,10.54,7.46,17.12c-3.17,3.43-7.24,7.81-12.81,13.82
		c18.8,4.25,35.66,8.06,54.04,12.21c-0.86,6.09-1.56,11.04-2.23,15.84c7.49,3.53,15,6.5,21.87,10.55c3.08,1.82,7.46,6.65,6.81,8.67
		c-3.16,9.72-12.29,16.04-14.82,27.25c-0.85,3.74-15.89,4.99-24.6,6.05c-9.22,1.12-18.69,0.15-27.93,1.16
		c-3.28,0.36-6.22,3.87-11.23,7.22c17.02,6.86,31.48,4.46,45.94,1.64c1.76-0.34,3.46-1.28,5.2-1.32
		c16.02-0.36,30.96-4.37,46.39-8.96c10.69-3.18,24.7,3.04,32.59,15.35c2.05,3.19,7.48,5.8,11.43,5.91
		c21.13,0.58,42.29,0.73,63.41,0.09c10.3-0.31,14.41,2.45,14.04,13.53c-0.78,23.81-0.24,47.67-0.24,71.51
		c0,161.03,0,322.06,0,483.09c0,5.77,0,11.55,0,18.47c-206.64,0-411.9,0-618.19,0C236.5,832.05,236.5,636.24,236.5,439.05z
		 M302.2,561.47c5.52,2.8,11.03,5.59,17.87,9.06c2.96-13.38,14.34-12.17,26.11-13.7c-3.24-5.19-7.16-11.67-11.39-11.88
		c-21.36-1.06-42.8-0.49-65.34-0.49c0.37,6.34,0.61,10.45,0.8,13.73c11.89,1.33,22.09,2.47,32.29,3.61c-10.5,0-21.01,0-32.03,0
		c0,6.27,0,10.8,0,15.17C292.95,580.19,299.42,576.89,302.2,561.47z M496.24,497.48c0.45-8.49,0.91-16.98,1.4-26.18
		c-11.39-0.62-12.6-7.39-8.73-17.02c-0.86-0.8-1.71-1.61-2.57-2.41c-7.27,2.94-14.55,5.88-21.82,8.82
		c3.86,6.48,6.86,13.73,11.8,19.24c5.87,6.54,13.41,11.58,20.22,17.27c-7.04,3.77-14.08,7.54-23.23,12.43
		c5.34,5.08,10.87,14.78,17.58,15.67c10.49,1.4,15.8,6.28,20.52,14.02c3.6,5.91,7.1,11.87,12.14,20.31
		c1.33-10.25,2.49-17.54,3.18-24.87c1.86-19.58,0.28-22.16-17.55-30.64C504.81,502.05,500.54,499.73,496.24,497.48z M729.49,970.43
		c-15.2,0-29.16,1.55-42.6-0.44c-13.08-1.93-22.84-10.23-25-24.74c-2.64-17.77,2.57-28.63,16.62-37.73
		c15.48-10.04,32.25-4.82,48.5-5.03c31.28-0.41,62.58-0.12,95.67-0.12c-1.5-5.13-4.1-9.14-3.01-11.02
		c10.31-17.8-3.16-15.01-12.81-15.01c-174.54-0.06-349.08-0.05-523.61-0.05c-5.2,0-10.4,0-15.6,0c-0.42,1.89-0.84,3.79-1.26,5.68
		c4.48,1.58,8.94,4.42,13.45,4.51c22.45,0.47,44.92,0.21,67.38,0.21c0,0.35,0.01,0.7,0.01,1.05c-26.38,0-52.75,0-80.51,0
		c1.94,17.01-3.26,33.62,4.89,50.2c4.35-16.58,12.98-28.07,28.32-33.86c-0.88-1.33-1.75-2.66-1.97-3c59.49,0,120.37,0,180.33,0
		c-1.67,6.18-3.87,10.93-4.09,15.77c-0.54,12.11-0.67,24.28,0.07,36.37c0.28,4.65,2.84,12.68,5.25,13.03
		c7.39,1.08,15.31-0.37,22.82-1.85c2.22-0.44,3.78-4.26,6.78-7.93c0.15,11.2-3.24,15.7-13.44,15.14
		c-13.4-0.74-26.87-0.18-39.73-0.18c1.87-3.95,5.08-7.72,5.23-11.6c0.6-15.22,0.67-30.5-0.11-45.7c-0.18-3.48-4.08-9.12-7.05-9.68
		c-12.32-2.36-24.93-3.15-37.44-4.52c19.04,18.82,24.29,33.12,17.42,50.74c-5.82,14.93-19.73,22.19-41.12,21.44
		c-18.31-0.64-28.19-9.67-35.5-32.94c-21.62,0-43.45,0-66.32,0c0.16,13.84,6.14,22.94,17.74,28.19c15.68,7.09,26.1-1.59,35.88-14.64
		c0.3,12.74-4.42,17.98-15.4,19.71c-17.06,2.69-31.76-0.42-45.13-11.78c-3.99-3.39-10.28-4.08-15.51-6
		c-1.34,1.07-2.69,2.14-4.03,3.21c2.1,10.5,9.02,23.37,5.26,30.98c-6.94,14.05,0.1,12.61,8.64,12.62
		c175.88,0.22,351.76,0.4,527.64,0.45c4.73,0,9.47-1.5,14.2-2.3c-0.17-1.17-0.33-2.35-0.5-3.52c-38.03,0-76.06,0-114.09,0
		c34.14-1.43,68.29-1.17,102.42-1.76c4.39-0.08,11.88-4.07,12.46-7.25c1.7-9.23-6.7-7.37-12.05-7.44
		c-19.62-0.23-39.24-0.09-58.86-0.09c0-0.34,0-0.68,0-1.02c11.69,0,23.39,0,35.08,0c11.91,0,23.82,0,36.47,0
		c0-10.42-0.47-17.97,0.12-25.44c0.68-8.52-1.89-12.45-11.11-12.04c-8.9,0.4-18.03,3.4-26.77-3.06c-2.3-1.7-12.12,1.44-12.37,3.21
		c-1.02,7.3-1.56,15.86,1.52,22.09c1.75,3.55,11.32,5.68,16.47,4.51c6.92-1.56,12.98-6.93,19.4-10.67c0.82,0.76,1.64,1.53,2.45,2.29
		c-4.38,4.02-8.47,11.02-13.2,11.49c-15.02,1.5-30.28,0.55-41.88,0.55c0.38-9.74,1.34-18.9,0.28-27.82
		c-0.13-1.08-11.61-2.38-17.13-0.93C725.39,946.3,728.53,957.97,729.49,970.43z M723.06,705.34c0.55-1.54,1.09-3.07,1.64-4.61
		c-5.07-1.96-9.99-4.92-15.23-5.67c-10.42-1.49-21.12-1.08-31.5-2.76c-10.12-1.64-19.85-5.76-29.98-7.3
		c-35.6-5.42-69.2,19.04-75.03,54.15c-1.18,7.08-2.36,14.26-2.45,21.42c-0.38,29.19-0.4,58.38-0.43,87.58
		c-0.01,11.23,5.28,15.71,16.92,14.6c10.68-1.02,21.56,0.06,32.35,0.11c65.15,0.3,130.3,0.65,195.45,0.57
		c2.68,0,5.35-4.14,8.03-6.36c-2.65-1.68-5.28-4.76-7.97-4.83c-40.85-0.99-81.7-1.8-122.55-2.22c-32.61-0.33-65.23-0.07-97.84-0.07
		c33.72-1.05,67.43-1.06,101.14-1.05c39.14,0.02,78.28,0.17,117.41-0.12c3.28-0.02,7.86-2.12,9.39-4.7
		c1.23-2.07-0.26-7.96-2.35-9.25c-3.07-1.9-7.73-1.59-11.72-1.6c-62.05-0.08-124.11-0.05-186.16-0.05
		c31.81-0.46,63.63-0.46,95.44-0.45c31.92,0.01,63.85,0.26,95.76-0.28c3.28-0.06,6.48-4.8,9.72-7.38c-3.15-2.57-6.11-7.01-9.48-7.35
		c-9.78-1-19.72-0.35-29.6-0.35c8.95-1.29,17.94-2.47,26.82-1.94c13.48,0.81,13.65-5.95,10.69-16.65c-22.59,0-44.72,0-66.85,0
		c18.88-1.98,37.78-1.58,56.63-2.3c4.01-0.15,10.6-3.77,11.27-6.83c2.05-9.3-5.93-7.56-11.49-7.92c0.22-0.19,0.45-0.39,0.67-0.58
		c12.08-2.65,12.08-2.65,9.64-16.9c-5.06-0.57-10.33-1.16-14.4-1.62c18.38-1.51,18.63-1.78,14.19-17.9c-13.98,0-28.29,0-42.6,0
		c10.77-2.43,21.55-2.79,32.3-2.34c11.99,0.5,15.32-4.44,10.94-16.36c-16.16,0-32.26,0-48.35,0c13.28-1.41,26.55-2.45,39.81-2.49
		c8.36-0.03,10.95-3.4,10.53-11.4c-0.73-14.02-1.29-28.1-0.83-42.12c0.49-14.99-1.53-16.95-18.07-12.11
		c2.27,4.45,3.55,9.53,6.74,12.67c7.35,7.24,3.92,15.61-1.4,18.45c-13.88,7.42-28.77,15.5-43.97,17.3
		c-23.94,2.84-48.46,0.75-72.74,0.75c0-0.58,0.01-1.16,0.01-1.74C703.41,705.34,713.24,705.34,723.06,705.34z M268.11,845.68
		c61.76,0,122.69,0,183.62,0c-57.57,1.55-115.13,1.75-172.7,1.37c-11.4-0.07-14.39,3.93-10.52,15.45c13.85,0,27.7,0,41.56,0
		c62.97,0,125.95,0.14,188.92-0.29c4.67-0.03,12.91-3.53,13.44-6.49c6.99-39.27,10.7-78.33-24.59-107.98
		c-19.58-16.45-35.33-35.34-45.23-59.4c-2.48-6.03-10.92-11.62-17.7-13.52c-33.93-9.48-66.04,6.71-99.26,8.54
		c-0.18,0.01-0.32,0.79-1.02,2.66c15.42,0,30.38,0,45.34,0c-4.07,1.88-8.09,1.91-12.12,1.88c-26.53-0.19-53.06-0.57-79.59-0.38
		c-3.08,0.02-6.14,3.2-9.21,4.92c2.46,3.03,4.35,7.29,7.54,8.76c3.84,1.77,8.77,1.5,13.22,1.52c28.64,0.11,57.29,0.06,85.93,0.06
		c-31.87,0.69-63.74,0.64-95.61,0.73c-5.58,0.02-13.6-1.42-12.05,7.52c0.55,3.18,7.92,7.25,12.26,7.36
		c26.65,0.68,53.33,0.34,80.01,0.34c-26.52,2.35-53.04,2.24-79.56,2.42c-5.85,0.04-13.78-2.01-13.35,8.3
		c0.41,9.86,8.03,7.56,13.99,7.92c0.45,0.03,0.9,0.01,1.35,0.01c41.26,0,82.51,0,123.77,0c-41.81,2.07-83.62,2.47-125.42,1.84
		c-13.19-0.2-15.61,4.83-11.9,17.02c18.93,0,37.63,0,56.33,0c-15.73,2.12-31.46,2.18-47.19,2.09c-5.81-0.03-10.73,0.17-10.85,8.17
		c-0.12,8.29,4.51,9.76,11.21,9.48c3.59-0.15,7.2-0.01,10.79-0.01c57.88,0,115.75,0,173.63,0c-61.15,0.38-122.3,0.38-183.45,0.38
		c-5.89,0-12.38-0.81-12.45,8.03c-0.07,9.19,6.84,7.83,12.5,7.84c31.47,0.08,62.95,0.04,94.42,0.04
		c-31.41,0.29-62.83,0.3-94.24,0.29c-6.4,0-12.95-0.77-12.91,9.03c0.04,9.69,6.4,8.98,12.88,8.98c49.44-0.05,98.89-0.03,148.33-0.03
		c-12.13,1.17-24.26,1.14-36.39,1.18c-38.23,0.11-76.45,0.06-114.67,0.71c-3.35,0.06-6.63,4.77-9.94,7.32
		c3.18,2.53,6,6.13,9.62,7.32c3.9,1.27,8.54,0.29,12.86,0.29C266.42,828.34,266.42,828.34,268.11,845.68z M335.78,525.17
		c10.87-6.86,20.37-19.95,35.81-7.6c0.88,0.7,2.58,0.38,3.89,0.56c16,2.15,31.94,5.1,48.01,6.22c15.21,1.07,30.56,0.23,48.8,0.23
		c-6.94-9.42-11.62-16.39-17.03-22.73c-1.55-1.81-5.17-2.19-7.93-2.55c-5.26-0.68-10.58-1.01-15.88-1.21
		c-3.26-0.13-7.74-1.08-9.61,0.62c-9.03,8.17-18.64,6.88-29.05,3.96c-3.56-1-9.24-1.48-11.33,0.53c-8.82,8.46-17.18,5.7-24.93-0.23
		c-14.37-11-29.44-18.56-48.28-15.6c-4.93,0.78-10.09,0.12-15.15,0.12c0-0.48,0.01-0.97,0.01-1.45c11.06,0,22.12,0,32.71,0
		c-1.73-18.8-13.69-19.5-28.19-19c-27.16,0.92-26.99,0.27-28.01,26.57c-0.32,8.36,1.79,12.36,11.13,12.04
		c17.39-0.59,34.82-0.17,52.23-0.17c-17.03,2.21-34.06,2.55-51.07,2.09c-12.9-0.34-14.01,5.99-10.51,16.95c9.82,0,19.54,0,29.25,0
		c-5.86,1.12-11.74,1.6-17.52,1.02c-13.14-1.32-15.43,4.99-12.25,17.13c22.07,0,43.86,0,67.05,0
		C337.27,537.23,336.63,532.1,335.78,525.17z M643.04,524.66c0.39,1.44,0.77,2.88,1.16,4.32c14.79,2.89,29.52,7.74,44.38,8.15
		c15.79,0.43,31.72-6.05,47.14,3.19c2.57,1.54,7-0.19,10.57-0.16c15.15,0.14,30.42-0.71,45.4,1c8.04,0.91,17.88,2.99,17.97,15.93
		c0.02,3,7.45,5.95,12.98,10.04c0-20.24,0-36.71,0-53.83c-25.03-3.2-50.01,3.97-74.26-3.17c-1.18-0.35-2.67,0.16-3.97,0.48
		c-29.96,7.25-59.76,15.6-91.2,9.07C650.29,519.07,646.45,522.89,643.04,524.66z M504.94,614.47c-0.42,1.13-0.83,2.25-1.25,3.38
		c-8.13,1.13-16.26,3.15-24.4,3.18c-9.93,0.03-15.28,5.72-13.6,15.97c4.4,26.9,19.94,46.75,40.5,63.07
		c3.63,2.88,10.95,4.88,14.43,3.1c3.46-1.76,5.88-8.8,5.88-13.52c-0.01-14.32-0.72-28.73-2.48-42.95
		C522.38,633.49,517.11,621.69,504.94,614.47z M728.47,914.38c-9.61-3.59-18.56-9.54-27.64-9.74
		c-16.82-0.36-27.76,16.15-26.08,35.56c1.43,16.49,15.99,30.64,31.12,29.2c3.49-0.33,9.15-4.18,9.37-6.79
		c0.42-4.92-1.9-10.33-4.05-15.1c-1.01-2.24-4.28-3.47-6.24-4.94c9.18,0,17.22,0.22,25.25-0.09c4.3-0.17,8.72-2.32,12.83-1.74
		c12.56,1.76,17.75-2.57,15.01-15.42c-0.53-2.5,0.14-5.26,0.2-7.9c0.2-9.29-3.93-14.31-13.65-14.02
		c-5.19,0.15-10.39,0.03-16.11,0.03C728.47,909.2,728.47,913.13,728.47,914.38z M421.8,937.73c0.83-12.42-2.75-25.61-16.84-31.39
		c-5.73-2.35-15.6-0.73-20.78,2.99c-11.61,8.35-13.41,21.46-10.46,35.08c3.73,17.24,14.05,26.59,27.82,25.29
		C414.44,968.48,421.86,957.51,421.8,937.73z M779.76,635.71c4.54,0,9.86,0.16,15.18-0.03c8.9-0.32,17.97-0.1,26.51-2.07
		c1.39-0.32-1.11-11.36,0.91-16.34c4.8-11.84-0.09-15.7-12.74-16.14c5.85-0.97,9.82-1.64,13.8-2.3c1.56-11.43,0.1-17.25-12.48-11.28
		c-5.06,2.4-11.22,2.62-16.94,3.42c-8.77,1.23-17.6,2.11-26.4,3.13c9.61,2.62,18.84,4.53,18.13,16.25
		c-0.26,4.26-5.61,8.22-8.48,12.1C777.91,625.95,778.71,630.18,779.76,635.71z M443.43,648.91c0.43-1.08,0.86-2.16,1.29-3.23
		c-8.43-10.15-16.12-21.09-25.63-30.11c-4.45-4.22-14.77-8.45-18.32-6.19c-9.06,5.73-26.96-0.33-26.14,17.57
		c-6.41,1.93-11.95,3.6-20.85,6.27C386.27,638.9,414.85,643.9,443.43,648.91z M361.28,922.35c-8.47-2.81-17.3-3.36-22.58-7.98
		c-11.35-9.91-21.54-13.71-33.65-6.77c-10.75,6.17-15.93,16-13.91,29.5c22.84,0,44.95,0,67.08,0
		C359.41,931.38,360.4,926.62,361.28,922.35z M801.19,916.37c-9.18-10.66-25.32-15.33-28.27-8.97c-3.17,6.83-1.99,16.05-0.94,24
		c0.14,1.05,10.77,1.07,16.44,0.56c0.71-0.06,0.85-6.39,1.41-11.23c9.22,0,20.18,0,30.87,0c0-6.21,0-11.23,0-16.94
		C812.12,905.64,800.1,897.54,801.19,916.37z M609.09,567.88c0.51-1.86,1.01-3.72,1.52-5.58c-3.65-5.79-6.07-14.41-11.25-16.66
		c-6.74-2.93-16.34-2.73-23.48-0.28c-7.18,2.46-14.3,8.57-11.16,19.46C580.01,565.87,594.55,566.87,609.09,567.88z M606.92,398.44
		c-14.97-3.3-26.84-5.91-39.77-8.76c2.19,16.61,4.09,30.98,5.99,45.34c1.85,0.38,3.7,0.75,5.54,1.13c5.5-10.21,11-20.42,16.5-30.63
		c-0.81-0.53-1.61-1.07-2.42-1.6C596.74,402.38,600.73,400.84,606.92,398.44z M789.16,491.21c-1.83,7.01-3.26,12.46-4.92,18.81
		c13.45,0,25.81,0,38.01,0c3.53-18.14,2.86-19.01-13.28-18.82C802.71,491.27,796.47,491.21,789.16,491.21z M766.89,643.56
		c9.34,2.03,14.48,3.02,19.56,4.27c8.87,2.17,17.61,5.29,26.6,6.35c3.25,0.38,9.15-3.28,10.2-6.35c2.39-6.98-2.44-11.11-9.26-11.29
		c-11.62-0.29-23.28-0.16-34.88,0.59C775.86,637.34,772.77,640.35,766.89,643.56z M494.27,392.67c4.74,1.81,11.29,2.24,13.91,5.66
		c14.69,19.19,29.42,0.83,43.96,2.12C523.48,388.58,511.27,379.35,494.27,392.67z M822.86,488.32c0-5.44,0-10.87,0-15.75
		c-13.95,0-26.69,0-39.5,0C785.33,490.68,788.49,490.63,822.86,488.32z M749.25,624.16c-18.1-11.38-61.62-11.17-73.5,0
		C700.38,624.16,723.2,624.16,749.25,624.16z M308.21,685.53c-7.92-15.64-18.42-19.59-38.07-15.05
		c-2.9,15.63-2.25,16.61,12.73,16.37C291.19,686.71,299.5,686,308.21,685.53z M699.79,663.72c0.03-1.12,0.06-2.23,0.09-3.35
		c-27.07-2.09-54.15-4.18-81.22-6.27c-0.07,1.21-0.13,2.41-0.2,3.62C645.05,670.87,672.68,661.86,699.79,663.72z M311.81,655.39
		c-12.72-1.6-24.28-3.6-35.9-4.07c-2.48-0.1-6.57,5.04-7.26,8.33c-0.39,1.86,4.44,6.68,7.24,6.96c5.92,0.59,12.32-0.08,18.03-1.83
		C299.51,663.05,304.5,659.33,311.81,655.39z M339.38,901.29c3.26,7.17,4.43,15.51,8.14,16.85c15.51,5.64,22.83-8.47,36.18-16.85
		C367.95,901.29,355.63,901.29,339.38,901.29z M267.57,612.09c14.57,0,24.5,0,36.23,0c-7.45-14.62-17.57-18.35-29.08-15.08
		C271.43,597.94,270.21,606.17,267.57,612.09z M808.83,946.2c6.02-6.66,11.62-10.08,12.62-14.53c1.97-8.8-4.94-9.64-11.83-9.2
		c-7.04,0.45-16.12-0.67-14.84,9.82C795.28,936.41,802.03,939.77,808.83,946.2z M638.36,583.81c-0.08,1.37-0.15,2.73-0.23,4.1
		c19.59,8.17,38.5,2.73,57.47-1.45c-0.08-1.73-0.15-3.45-0.23-5.18C676.37,582.13,657.36,582.97,638.36,583.81z M288.88,648.09
		c-5.86-11.64-11.08-22-16.29-32.35c-0.89,0.19-1.78,0.39-2.67,0.58c0,10.23,0,20.46,0,31.77
		C276.33,648.09,282.76,648.09,288.88,648.09z M787.97,576.63c-18.7-11.37-34.84-9.93-43.74,3.28
		C760.26,578.71,774.12,577.67,787.97,576.63z M691.23,457.26c0.04,1.55,0.08,3.09,0.12,4.64c15.94,0.74,31.89,1.48,47.83,2.22
		c0-2.29,0-4.58-0.01-6.86C723.19,457.26,707.21,457.26,691.23,457.26z M676.54,491.08c0.15-1.51,0.29-3.02,0.44-4.53
		c-17.12,1.31-33.12-13.22-53.5-1.55C642.82,487.22,659.68,489.15,676.54,491.08z M378.16,654.44c-13.09-8.96-25.51-9.94-33.83-2.68
		C363.45,661.04,365.17,661.18,378.16,654.44z M564.71,641.38c0.03,1.35,0.05,2.69,0.08,4.04c11.87,0,23.74,0,35.61,0
		c-0.03-1.35-0.06-2.69-0.08-4.04C588.45,641.38,576.58,641.38,564.71,641.38z M519.1,578.01c-11.47-4.46-20.14-7.83-30.09-11.7
		c2.24,6.32,4.05,11.43,6.02,16.97C502.81,581.57,509.56,580.09,519.1,578.01z M570.7,622.52c14.13,0,24.46,0,34.78,0
		C594.93,611.02,584.69,615.38,570.7,622.52z M285.16,579.9c-5.59,0.26-10.27,0.47-15.71,0.72c0.31,5.21,0.53,9.02,0.76,13.02
		C281.53,596.33,288.99,595.68,285.16,579.9z M434.04,593.03c-0.08-1.42-0.15-2.83-0.23-4.25c-9.61,0-19.21,0-28.82,0
		C414.49,595.12,423.93,601.42,434.04,593.03z M444.58,601.23c1.55,6.81,2.56,11.27,4.32,19c6.07-5.5,10.14-9.18,17.39-15.75
		C456.84,603.06,451.75,602.3,444.58,601.23z"/>
	<path class="st0" d="M614.3,162.62c-4.88-27.26-8.88-49.57-13-72.58c-15.13,17.56-22.51,50.67-13.19,64.06
		c-9.09-2.59-16.59-4.72-24.1-6.87c18.28-13.74,36.65-72.16,27.88-88.7c13.02-1.43,15.31,0.44,17.56,14.21
		c3.8,23.27,7.62,46.54,11.19,68.32c18.27-16.95,36.55-33.22,53.94-50.38c6.67-6.58,12.18-11.82,21.31-4.94
		c-16.05,9.94-15.57,27.8-19.13,43.37c-3.47,15.18-16.05,29.65-5.18,48.01c-8.26-2.27-16.1-4.43-22.94-6.31
		c14.7-19.2,15.7-42,23.6-66.2C651.93,124.94,634.47,142.43,614.3,162.62z"/>
	<path class="st0" d="M381.89,215.35c-9.59,6.83-17.39,12.4-23.49,16.74c-2.76-7.06-3.88-14-7.67-18.84
		c-13-16.6-26.6-32.77-40.77-48.37c-3.31-3.64-9.81-4.38-15.24-6.63c5.64-4.22,12.31-9.2,16.45-12.29
		c8.43,11.04,15.78,21.11,23.76,30.64c1.19,1.42,6.26,1.5,8.07,0.19c12.63-9.16,24.87-18.85,38.33-29.21
		c-11.5-10.74-15.38-27.92-35.35-28.03c7.44-5.68,14.08-10.75,19.44-14.83c3.28,6.14,5.62,12.75,9.77,17.89
		c12.1,15.01,24.6,29.74,37.65,43.92c4.27,4.64,10.71,7.28,17.09,11.45c-4.95,3.73-11.89,8.96-19.43,14.64
		c-0.36-18.76-15.16-27.02-25.53-40.74c-14.24,10.7-28,21.04-43.3,32.54C354.02,196.53,357.12,216.82,381.89,215.35z"/>
	<path class="st0" d="M833.47,311.28c-11.82,16.22-23.05,31.64-34.29,47.06c-0.86,0.16-1.71,0.32-2.57,0.48
		c1.09-6.93,0.36-14.92,3.67-20.55c5.83-9.93,15.15-17.81,20.95-27.75c3.01-5.16,1.6-12.89,2.18-19.45
		c-5.25,0.15-10.58-0.23-15.71,0.6c-4.81,0.77-9.94,1.98-13.98,4.5c-5,3.12-9.03,7.8-13.91,12.21c-2.27-5.98-5.48-14.43-9.24-24.36
		c19.45,10.24,33.71-4.31,49.28-9.03c15.3-4.65,35.17-3.74,44.48-23.3c4.45,11.33,9.08,22.75,13.4,34.27
		c3.7,9.86,4.25,19.55-4.59,27.2c-9.27,8.02-19.86,6.84-30.46,3.15C840.19,315.45,837.99,313.79,833.47,311.28z M873.05,287.61
		c-0.59-2.23-0.43-7.6-2.94-9.58c-3.29-2.6-10.16-4.9-12.91-3.19c-9.34,5.82-26.9-0.25-28.12,16.56
		c-0.87,11.97,10.77,21.46,21.83,20.82C862.68,311.54,873.11,300.78,873.05,287.61z"/>
	<path class="st0" d="M437.5,99.49c2.26,32.74,13.62,60.98,25.83,66.1c-2.24,1.1-4.09,2.42-6.15,2.96
		c-5.52,1.44-11.14,2.54-14.09,3.2c0-8.75,1.34-17.49-0.3-25.61c-2.74-13.53-8.01-26.53-11.07-40.01
		c-2.73-12.05-8.2-20.67-21.3-23.01c0.41-1.35,0.82-2.7,1.22-4.06c6.25,1.33,13.34,1.19,18.61,4.22
		c27.12,15.56,53.77,31.93,81.11,48.33c1-25.52-16.68-64.69-32.61-68.23c8.76-2.7,15.23-4.7,19.92-6.15
		c8.78,31.31,17.33,61.8,26.63,94.98C494.98,134.01,467.16,117.31,437.5,99.49z"/>
	<path class="st0" d="M336.92,251.56c0.12,25.94-23.6,49.74-49.98,50.12c-28.27,0.41-54.19-22.91-54.37-48.92
		c-0.19-27.75,23.59-53.23,50.86-52.04C308.94,201.84,336.85,217.42,336.92,251.56z M332.67,252.4
		c-0.02-21.09-20.36-38.87-47.11-41.19c-20.96-1.81-43.77,13.19-48.04,31.59c-4.1,17.64,8.02,35.97,29.62,44
		c5.83,2.17,12.07,3.77,18.25,4.34C310.52,293.46,332.69,275.07,332.67,252.4z"/>
	<path class="st0" d="M736.33,104.79c5.11,3.85,11.5,8.67,17.25,13.01c-5.79,4.2-12.16,7.56-16.86,12.49
		c-9.61,10.08-18.47,20.88-27.37,31.61c-10.39,12.53-11.3,25.17-2.96,35.51c12.78,15.83,32.36,23.01,44.78,12.56
		c15.95-13.42,29.14-30.21,42.74-46.21c2.18-2.57,0.31-8.59,0.31-14.31c5.03,3.87,10.39,8.01,13.91,10.72
		c-11.91,13.04-23.6,25.4-34.79,38.2c-12.84,14.68-27.02,25.54-47.97,18.8c-14.9-4.79-25.58-14.91-31.88-28.97
		c-4.65-10.37-1.68-20.33,5.41-28.87c9.76-11.77,20.28-22.96,29.43-35.18C732.27,118.88,733.61,111.64,736.33,104.79z"/>
	<path class="st0" d="M206.93,327.5c0.96-5.65,2.28-13.41,3.14-18.51c11.6,2.56,22.32,5.21,33.16,7.26
		c21.57,4.08,43.67,6.27,64.59,12.47c8.81,2.61,15.64,13.04,22.33,20.81c1.51,1.75-0.94,7.44-2.53,10.86
		c-0.3,0.65-5.14-0.8-8.25-1.35c6.6-14.02,3.82-19.36-10.3-21.73c-26.47-4.44-52.9-9.22-79.48-12.84
		C222.55,323.53,215.01,326.32,206.93,327.5z"/>
	<path class="st0" d="M831.22,195.82c4.72,7.24,9,13.82,12.62,19.37c-6.83,1.98-13.75,2.83-19.52,5.86
		c-17.87,9.38-35.59,19.13-52.73,29.76c-5.02,3.12-7.92,9.66-12.47,15.49c-3.35-5.46-8.19-13.35-13.5-22.01
		C762.67,247.24,827.04,210.8,831.22,195.82z"/>
	<path class="st0" d="M596.88,902.74c13.2,0,27.98,0,43.66,0c0.59,4,1.14,7.77,2,13.7c-10.59-11.27-21.36-18.65-31.07-4.22
		c-3.01,4.47-0.72,15.82,3.28,20.47c2.47,2.88,12.73-0.94,19.92-1.8c0.29,2.54,0.9,8.02,1.52,13.5c-0.61,0.33-1.21,0.65-1.82,0.98
		c-1.14-1.64-2.01-4.38-3.47-4.74c-5.42-1.35-13.39-4.51-16.02-2.14c-3.58,3.23-4.48,11.03-3.97,16.64
		c0.39,4.26,3.94,10.5,7.53,11.77c10.69,3.78,21.22,2.58,28.79-9.86c1.21,10.79-1.7,15.01-11.55,14.56
		c-13.91-0.64-27.87-0.16-41-0.16C601.66,948.85,599.13,926.32,596.88,902.74z"/>
	<path class="st0" d="M578.13,958.93c-1.6,4.78-2.84,8.5-4.09,12.22c-16.67,0-32.8,0-46.88,0c4.14-22.94,4.04-45.61-0.06-68.74
		c5.21,0,12.31,0,18.86,0c-6.62,19.66-4.29,39.92-1.86,59.79c0.31,2.52,12.53,4.98,19.18,4.85
		C567.84,966.96,572.29,962.32,578.13,958.93z"/>
	<path class="st0" d="M441.27,976.47c-34.01,0-68.01,0-102.02,0c0-0.26,0-0.51,0-0.77c33.97,0,67.94,0,101.9,0
		C441.2,975.95,441.24,976.21,441.27,976.47z"/>
	<path class="st0" d="M453.18,887.08c-19.33,0-38.65,0-57.98,0c0-0.08,0-0.15,0-0.23c19.29,0,38.58,0,57.87,0
		C453.11,886.93,453.15,887,453.18,887.08z"/>
	<path class="st0" d="M601.05,778.54c42.09,0,84.19,0,126.28,0c0,0.3,0,0.61,0,0.91c-42.11,0-84.22,0-126.33,0
		C601.01,779.14,601.03,778.84,601.05,778.54z"/>
	<path class="st0" d="M593.53,813.75c24.99,0,49.98,0,74.98,0c0,0.36,0,0.72,0,1.09c-24.94,0-49.87,0-74.81,0
		C593.64,814.47,593.58,814.11,593.53,813.75z"/>
	<ellipse class="st0" cx="660.14" cy="795.29" rx="41.95" ry="0.22"/>
	<path class="st0" d="M339.12,829.61c46.3,0,92.59,0,138.89,0c0,0.29,0,0.58,0,0.87c-46.28,0-92.57,0-138.85,0
		C339.14,830.2,339.13,829.9,339.12,829.61z"/>
	<path class="st0" d="M399.9,759.9c21.12,0,42.25,0,63.37,0c0,0.07,0,0.15,0,0.22c-21.08,0-42.15,0-63.23,0
		C400,760.05,399.95,759.98,399.9,759.9z"/>
</g>
</svg>
