<svg width="21" height="39" viewBox="0 0 21 39" fill="none" xmlns="http://www.w3.org/2000/svg">
<path d="M21 38.9898C20.4458 38.9237 19.8954 38.8552 19.3442 38.793C18.8978 38.7426 18.4509 38.6963 18.0036 38.6542C17.4506 38.6022 16.8973 38.5526 16.3436 38.5092C15.8746 38.4724 15.4051 38.4415 14.9351 38.4164C14.4087 38.3887 13.8818 38.3693 13.355 38.3516C13.2836 38.3492 13.2699 38.3126 13.2512 38.2587C12.769 36.8649 12.2859 35.4714 11.8022 34.0781C10.4553 30.1933 9.10847 26.3085 7.76173 22.4237C7.67949 22.1865 7.5975 21.9493 7.49793 21.7142V38.3519C4.98464 38.4481 2.49208 38.6733 0 39V0.00380672H0.113808C2.53264 0.00380672 4.95149 0.0030334 7.37035 0.00148674C7.40769 -0.00392498 7.44565 0.00555784 7.47631 0.0279642C7.50698 0.0503706 7.52801 0.0839764 7.53502 0.121795C9.21857 4.98631 10.9036 9.85032 12.5902 14.7138C12.8812 15.5533 13.1721 16.3928 13.4631 17.2323C13.4702 17.2561 13.4848 17.2767 13.5046 17.2912V0.0179257H21L21 38.9898Z" fill="white"/>
</svg>
