<?xml version="1.0" encoding="utf-8"?>
<!-- Generator: Adobe Illustrator 23.0.6, SVG Export Plug-In . SVG Version: 6.00 Build 0)  -->
<svg version="1.1" id="Layer_1" xmlns="http://www.w3.org/2000/svg" xmlns:xlink="http://www.w3.org/1999/xlink" x="0px" y="0px"
	 viewBox="0 0 508.2 166.1" style="enable-background:new 0 0 508.2 166.1;" xml:space="preserve">
<style type="text/css">
	.st0{fill:#FFFFFF;}
</style>
<path class="st0" d="M0,0v166.1h169.8V0H0z M123.1,128.1h-20.4v0l0,0h0V77.7c0-7.4-1.4-12.8-4.3-16.3c-2.9-3.4-7.5-5.1-14-5.1
	c-3.4,0.1-6.6,1-9.6,2.5c-3.1,1.4-5.9,3.6-8,6.3v63H46.5V40.7h14.7l3.8,8.2c5.5-6.4,13.7-9.6,24.6-9.6c10.4,0,18.6,3.1,24.6,9.3
	c6,6.2,9,14.9,9,26V128.1z"/>
<g>
	<path class="st0" d="M249,56.6L249,56.6c-4.9,0-9.6,2.1-13,5.7v45.8c3.6,3,8.2,4.5,12.9,4.5c9.4,0,16.1-2.2,20.2-6.7
		s6.2-11.5,6.2-21.2c0-10.3-2-17.6-6.1-21.8C265.1,58.7,258.4,56.6,249,56.6z"/>
	<path class="st0" d="M169.8,0v166.1h170.6V0H169.8z M285.1,118.2c-7.7,7.7-18.2,11.6-31.6,11.6l0,0c-6.1,0.1-12.1-1.2-17.6-3.8
		v25.3h-20.4V40.7H236v5.8c5.1-4.8,11.8-7.5,18.8-7.3c27.9,0,41.8,15.3,41.8,46C296.6,99.5,292.8,110.5,285.1,118.2z"/>
</g>
<path class="st0" d="M340.4,0v166.1h167.8V0H340.4z M448.3,59.8L448.3,59.8c-3.6-2.3-7.7-3.5-11.9-3.5c-4.7,0-8.9,2.1-12.5,6.4
	c-3.7,4.4-5.7,10-5.5,15.7v49.6H398V40.7h20.4V49c5.7-6.5,13.2-9.8,22.7-9.8c6.9,0,12.2,1.1,15.9,3.2L448.3,59.8z"/>
</svg>
