<?xml version="1.0" encoding="utf-8"?>
<!-- Generator: Adobe Illustrator 23.0.6, SVG Export Plug-In . SVG Version: 6.00 Build 0)  -->
<svg version="1.1" id="Layer_1" xmlns="http://www.w3.org/2000/svg" xmlns:xlink="http://www.w3.org/1999/xlink" x="0px" y="0px"
	 viewBox="0 0 1080 1080" style="enable-background:new 0 0 1080 1080;" xml:space="preserve">
<style type="text/css">
	.st0{fill:#FFFFFF;}
</style>
<g>
	<path class="st0" d="M1033.62,388.63c2.94-0.63,5.48-1.38,8.08-1.7c11.19-1.37,21.22,4.22,26.03,14.36
		c5.86,12.37,3.42,27.2-6.03,36.23c-9.61,9.18-21.66,11.64-34.3,11.69c-28.32,0.11-56.65-0.03-84.97-0.21
		c-52.66-0.34-105.36,0.44-157.95-1.69c-25.85-1.05-51.13,2.97-76.73,3.1c-15.54,0.08-30.37-2.75-44.5-9.01
		c-10.86-4.81-13.39-13.21-6.83-23.17c9.85-14.95,24.1-21.9,41.86-20.18c5.01,0.49,7.11-0.78,9.83-4.63
		c7.5-10.62,18.13-16.47,30.99-18.62c2.26-0.38,4.62-2.44,6.18-4.34c5.32-6.45,9.64-13.87,15.57-19.65
		c9.65-9.4,20.84-16.44,35.33-14.73c-0.14-24.03,14.44-35.13,37.73-29.01c13.13,3.45,24.57,9.98,33.91,19.86
		c7.24,7.66,11.87,16.14,6.09,26.26c5.21,3.44,10.08,6.66,15.1,9.98c2.88-13.17,9.77-23.33,24.32-25.05
		c15.22-1.8,24.08,7.62,31.12,20.25c1.9-1.76,3.57-3.35,5.28-4.9c13.1-11.87,30.2-10.67,41.5,2.93c0.99,1.19,2.1,2.35,2.77,3.71
		c4.64,9.54,11.56,14.74,22.77,15.11C1024.78,375.5,1030.14,381.44,1033.62,388.63z M809.17,345.86c-0.48,0.52-0.96,1.05-1.44,1.57
		c-1.91-1.27-4.26-2.17-5.65-3.87c-3.79-4.61-8.79-5.18-13.86-4.16c-20.31,4.07-32.09,18.51-42.37,34.23
		c8.09,2.57,15.47,4.91,22.84,7.25c-0.24,0.71-0.47,1.42-0.71,2.12c-2.03-0.7-4.04-1.44-6.08-2.1c-17.2-5.59-37.65-0.44-47.91,12.43
		c-1.67,2.1-2.2,5.36-2.53,8.16c-0.18,1.56,1.15,3.3,1.79,4.96c-2.03-0.17-4.19,0.04-6.08-0.58c-16.17-5.31-34.55-0.68-43.58,11.12
		c-8.07,10.55-6.07,18.62,6.47,23.06c18.46,6.54,37.66,7.43,57,5.71c14.06-1.25,28.08-4.04,42.13-4.09
		c83.64-0.32,167.28-0.02,250.92,0.03c7.08,0,14.21,0.24,21.22-0.52c21.52-2.34,32.58-23.54,21.55-40.79
		c-7.24-11.32-21.57-12.5-30.72-2.83c-1.48,1.56-4.46,1.71-6.74,2.51c-0.41-2.71-0.16-3.78,0.45-4.58c5.4-7.14,5.35-8.84-2.02-13.18
		c-3.11-1.83-7.08-3.69-10.42-3.34c-10.03,1.05-15.3-3.62-19.66-12.05c-4.87-9.42-12.87-15.79-24.03-16.66
		c-8.5-0.67-15.3,3.06-21.47,8.67c-4.48,4.07,0.22,7.81-0.33,11.66c-0.04,0.29-0.53,0.51-0.4,0.39
		c-3.56-6.35-6.51-13.29-10.93-19.13c-7.41-9.8-18.08-13.04-27.46-9.59c-10.39,3.83-17.29,14.1-17.39,25.87
		c-0.02,1.7-0.16,3.4-0.24,5.1c-0.51,0.16-1.02,0.33-1.52,0.49c-3.29-10.61-10.41-16.46-21.42-17.28c7.22-12.7,7.5-15.66,0.23-23.98
		c-10.63-12.15-23.9-20.33-39.82-23.56c-8.32-1.68-16.38-0.58-23.09,5.33c-9.15,8.06-9.3,19.27-0.53,27.33
		C806.79,342.85,807.91,344.42,809.17,345.86z"/>
	<path class="st0" d="M1010.23,516.45c-6.34,0.77-11.98,1.46-18.05,2.2c-0.62-3.29-0.65-6.5-1.9-9.14c-0.94-1.99-3.5-4.54-5.24-4.47
		c-1.91,0.08-5.33,2.97-5.25,4.48c0.25,4.37,0.79,9.54,3.3,12.79c4.4,5.7,10.37,10.19,15.66,15.21c7.27,6.89,12.54,14.76,13.1,25.22
		c0.76,14.19-7.37,24.52-21.25,26.6c-16.1,2.42-27.61-4.54-30.94-18.89c-0.84-3.6-1.09-7.34-1.69-11.6
		c6.19-0.99,11.79-1.89,17.89-2.87c0.72,3.88,1.14,7.53,2.12,11.03c1.09,3.94,3.51,6.86,8.12,6.09c4.74-0.79,5.34-4.91,4.42-8.23
		c-1.25-4.51-3.11-9.27-6.07-12.79c-4.23-5.03-10.25-8.56-14.44-13.61c-4.4-5.3-9.13-11.22-10.88-17.64
		c-2.71-9.95-1.08-20.27,8.3-26.8c9.58-6.67,20.59-7.39,30.96-2.49C1008.32,496.26,1008.76,506.46,1010.23,516.45z"/>
	<path class="st0" d="M937.71,490.67c0,4.83,0,8.97,0,13.78c-7.18,0-14.16,0-21.72,0c0,8.43,0,16.22,0,24.77c5.23,0,10.43,0,16.11,0
		c0,5.23,0,9.71,0,14.91c-5.36,0-10.57,0-16.23,0c0,10.08,0,19.45,0,29.7c7.29,0,14.45,0,21.94,0c0,5.16,0,9.45,0,14.15
		c-14.41,0-28.49,0-43.25,0c0-32.15,0-64.48,0-97.3C908.63,490.67,922.86,490.67,937.71,490.67z"/>
	<path class="st0" d="M829.62,490.59c13.93,0,27.5,0,41.44,0c0,4.71,0,9.01,0,14.12c-6.84,0-13.34,0-20.16,0c0,8.44,0,16.07,0,24.57
		c5.75,0,11.35,0,17.43,0c0,5.35,0,9.84,0,15.12c-5.6,0-11.22,0-17.51,0c0,14.78,0,28.83,0,43.44c-7.35,0-14.04,0-21.21,0
		C829.62,555.63,829.62,523.48,829.62,490.59z"/>
	<path class="st0" d="M1080,490.56c0,5.13,0,9.9,0,15.23c-4.64,0.21-9.17,0.42-14.37,0.66c0,27.22,0,54.1,0,81.45
		c-7.42,0-14.15,0-21.62,0c0-26.99,0-53.88,0-81.5c-5.23,0-9.75,0-14.75,0c0-5.65,0-10.57,0-15.84
		C1046.26,490.56,1062.95,490.56,1080,490.56z"/>
	<path class="st0" d="M377.76,424.25c-0.1-14.61-2.79-29.57-6.7-43.7c-7.5-27.09-26.11-43.05-54.13-46.99
		c-22.2-3.13-44.01-2.05-62.71,12.25c-16.79,12.84-24.15,31.39-27.39,51.46c-2.04,12.6-3.03,25.51-3.07,38.28
		c-0.1,33.3-0.1,66.6-0.07,99.9l0.73,111.21c0.1,14.61,2.79,29.57,6.7,43.7c7.5,27.09,26.11,43.05,54.13,46.99
		c22.2,3.13,44.01,2.05,62.71-12.25c16.79-12.84,24.15-31.39,27.39-51.46c2.04-12.6,3.03-25.51,3.07-38.28
		c0.1-33.3-0.26-99.9-0.26-99.9C378.16,498.39,378.03,461.32,377.76,424.25z"/>
	<path class="st0" d="M769.19,441.69c-14.05,0.05-28.07,2.84-42.13,4.09c-19.34,1.72-38.54,0.83-57-5.71
		c-12.55-4.44-14.54-12.51-6.47-23.06c9.02-11.8,27.41-16.42,43.58-11.12c1.89,0.62,4.04,0.41,6.08,0.58
		c-0.65-1.66-1.97-3.4-1.79-4.96c0.33-2.81,0.86-6.07,2.53-8.16c10.26-12.88,30.72-18.02,47.91-12.43c2.04,0.66,4.06,1.4,6.08,2.1
		c0.24-0.71,0.47-1.42,0.71-2.12c-7.37-2.34-14.75-4.68-22.84-7.25c5.28-8.07,10.96-15.79,17.98-21.96
		C696.03,222.8,560.84,134.9,405.1,134.9C181.37,134.9,0,316.27,0,540s181.37,405.1,405.1,405.1s405.1-181.37,405.1-405.1
		c0-33.93-4.2-66.88-12.05-98.37C788.5,441.65,778.85,441.65,769.19,441.69z M400.67,641.05c-0.08,20.85-2.79,41.43-10.13,61.22
		c-12.21,32.93-35.62,52.07-70.28,56.88c-24.55,3.4-48.73,1.93-70.89-10.65c-25.32-14.37-37.69-37.89-43.52-65.24
		c-2.48-11.62-4.32-23.63-4.36-35.47c-0.13-37.44-0.23-74.89-0.24-112.33c0.03-35.2,0.12-70.39,0.26-105.59
		c0.08-20.85,2.79-41.43,10.13-61.22c12.21-32.93,35.62-52.07,70.28-56.88c24.55-3.4,48.73-1.93,70.89,10.65
		c25.32,14.37,37.69,37.89,43.52,65.24c2.48,11.62,4.32,23.63,4.36,35.47c0.13,37.44,0.23,74.89,0.24,112.33
		C400.9,570.66,400.81,605.85,400.67,641.05z M607.63,638.55c-0.94,14.75-1.39,29.72-4.34,44.13
		c-5.94,29.02-19.27,53.91-47.06,67.82c-19.94,9.98-41.55,11.65-63.48,9.28c-36.17-3.9-60.81-22.83-74.16-56.76
		c-8.69-22.08-10.35-45.12-10.38-68.43c-0.02-13.58-0.04-27.16-0.06-40.74h-0.02c-0.04-19.44-0.04-38.88-0.04-58.32
		c-0.01-19.44,0-38.88,0.04-58.32h0.02c0.02-13.58,0.04-27.16,0.06-40.74c0.03-23.32,1.69-46.35,10.38-68.43
		c13.36-33.93,37.99-52.86,74.16-56.76c21.94-2.36,43.54-0.7,63.48,9.28c27.8,13.91,41.12,38.8,47.06,67.82
		c2.95,14.41,3.4,29.37,4.34,44.13c0.57,8.98-3.46,12.92-11.33,12.87c-7.77-0.05-11.29-4.01-11.33-13.01
		c-0.09-20.27-2.16-40.21-10.18-59.09c-9.67-22.78-26.45-36.72-51.3-39.84c-23.71-2.98-46.55-1.23-65.74,15.28
		c-14.12,12.15-20.86,28.55-23.82,46.27c-2.32,13.89-3.44,28.12-3.64,42.21v196.67c0.2,14.1,1.31,28.32,3.64,42.21
		c2.96,17.71,9.7,34.12,23.82,46.27c19.18,16.5,42.02,18.26,65.74,15.28c24.85-3.12,41.63-17.06,51.3-39.84
		c8.02-18.88,10.09-38.82,10.18-59.09c0.04-9,3.56-12.95,11.33-13.01C604.17,625.62,608.2,629.57,607.63,638.55z M533.66,517.66
		c-3.18,13.17-6.36,26.33-9.54,39.5c-2.17,9.03-4.16,18.1-6.64,27.04c-0.5,1.79-2.84,3.07-4.33,4.58c-1.39-1.61-3.59-3.01-4.04-4.85
		c-5.08-20.61-9.89-41.28-14.79-61.93c-0.39-1.66-0.85-3.31-1.28-4.96c-0.7,0.03-1.39,0.06-2.09,0.08c0,13.13,0.08,26.26-0.03,39.39
		c-0.07,9.29-0.49,18.58-0.57,27.87c-0.03,3.57-1.89,5.19-4.89,4.23c-1.57-0.5-3.56-3.07-3.53-4.67
		c0.56-29.86,1.44-59.71,2.13-89.56c0.08-3.29,1.01-4.86,4.52-4.88c3.45-0.01,5.62,0.5,6.53,4.62
		c5.43,24.61,11.18,49.15,16.82,73.71c0.24,1.03,0.48,2.05,1.83,3.21c3.21-13.62,6.43-27.23,9.62-40.86
		c2.57-10.97,5.47-21.89,7.51-32.96c1.25-6.77,4.13-9.28,11.17-6.79c0.17,0.78,0.55,1.8,0.58,2.84c0.83,29.63,1.53,59.26,2.51,88.89
		c0.19,5.7-1.53,7.91-9.25,5.52c0-23.12,0-46.48,0-69.84C535.17,517.78,534.41,517.72,533.66,517.66z M622.33,566.77
		c-0.92,8.68-3.22,16.89-12.03,20.64c-9.81,4.17-19.93,4.16-29.27-1.5c-6.45-3.9-8.73-10.85-8.83-17.74
		c-0.38-25.82-0.15-51.65-0.15-77.78c9.14-1.54,9.31-1.45,9.33,6.91c0.04,20.77,0,41.55,0.06,62.32c0.01,3.08,0.11,6.21,0.65,9.23
		c1.6,8.97,6.19,12.87,14.82,12.95c8.91,0.09,14.16-3.93,15.34-13.11c0.92-7.19,0.72-14.54,0.76-21.83
		c0.1-16.58,0.02-33.15,0.08-49.73c0.03-8.06,0.13-8.09,8.98-6.84c0.13,1.96,0.38,4.08,0.38,6.19c0.05,21.66,0.06,43.32,0.06,64.98
		C622.5,563.24,622.52,565.02,622.33,566.77z M678.62,589.12c-11.89,3.03-22.38-0.75-27.57-10.23c-1.57-2.87-2.8-6.04-3.56-9.22
		c-1.7-7.13-1.09-7.73,7.36-8.81c1.2,4.24,1.97,8.15,3.4,11.81c2.82,7.2,8.9,10.24,16.54,8.73c7.18-1.42,10.9-5.7,9.79-13.99
		c-0.69-5.13-2.96-10.78-6.29-14.69c-6.86-8.03-15.27-14.73-22.33-22.62c-3.69-4.12-7.26-9.29-8.45-14.53
		c-3.18-14.09,4.03-24.55,16.89-26.47c15.87-2.36,26.3,5.25,28.3,20.39c0.85,6.46-3.44,5.74-7.66,6.22c-0.6-2.6-1.09-4.93-1.68-7.23
		c-1.43-5.62-3.7-10.59-10.34-11.39c-5.91-0.71-11.88-0.5-15.42,5.14c-3.72,5.93-2.65,12.32,1.78,17.23
		c6.79,7.52,14.44,14.27,21.57,21.49c7.42,7.52,13.66,15.65,13.34,27.1C693.98,579.06,688.53,586.59,678.62,589.12z M728.07,587.64
		c-8.84,2.61-9.81,1.94-9.82-6.77c-0.02-30.05-0.01-60.1-0.01-90.83c3.91,0,6.66,0,9.83,0C728.07,522.89,728.07,555.3,728.07,587.64
		z M795.29,522.71c-0.54-5.37-0.74-10.44-1.62-15.39c-1.31-7.41-4.68-10.04-12.24-10.38c-8.15-0.36-13,2.45-14.83,9.25
		c-0.91,3.37-1.21,6.98-1.24,10.49c-0.12,14.81-0.1,29.63,0.04,44.44c0.03,3.51,0.29,7.11,1.15,10.5c1.87,7.35,6.8,10.53,14.9,10.2
		c7.08-0.29,10.47-3.18,12.13-10.72c0.62-2.78,0.85-5.67,1.04-8.52c0.17-2.57,0.04-5.17,0.04-8.15c3.4,0,5.94,0,9.26,0
		c0.62,9.03,0.36,17.73-3.96,25.78c-4.33,8.07-11.97,10.04-20.32,9.81c-8.53-0.24-16.78-2.24-20.23-11.06
		c-2.36-6.04-3.88-12.73-4.17-19.21c-0.61-13.68-0.22-27.41-0.13-41.11c0.02-2.86,0.4-5.73,0.83-8.56
		c2.66-17.41,13.16-24.24,33.15-20.18c8.33,1.69,12.14,8.35,13.87,16.15c0.71,3.22,0.98,6.56,1.11,9.87
		C804.38,523.72,804.12,523.87,795.29,522.71z"/>
</g>
</svg>
