<?xml version="1.0" encoding="utf-8"?>
<!-- Generator: Adobe Illustrator 23.0.6, SVG Export Plug-In . SVG Version: 6.00 Build 0)  -->
<svg version="1.1" id="Layer_1" xmlns="http://www.w3.org/2000/svg" xmlns:xlink="http://www.w3.org/1999/xlink" x="0px" y="0px"
	 viewBox="0 0 1080 1080" style="enable-background:new 0 0 1080 1080;" xml:space="preserve">
<style type="text/css">
	.st0{fill:#FFFFFF;}
</style>
<path class="st0" d="M516,0c8.33,19.46,15.36,39.61,25.28,58.22c20.28,38.06,50.78,66.84,86.6,90.47
	c16.82,11.1,32.73,23.59,50.47,36.48c-7.64,8.17-13.61,16.76-21.59,22.62c-15.81,11.62-32.07,22.97-49.34,32.17
	c-23.69,12.62-49.95,20.84-67.36,44.77c-11.93-18.84-27.69-31.07-47.58-37.16c-14.03-4.3-28.49-7.22-42.79-10.63
	c-11.15-2.66-22.34-5.13-35.06-8.04c8.45-12.88,16.49-25.01,24.41-37.21c14.4-22.16,30.04-43.64,42.79-66.71
	c19.44-35.19,25.1-74.38,28.28-113.91c0.3-3.7,0.93-7.38,1.4-11.06C513,0,514.5,0,516,0z"/>
<path class="st0" d="M544.5,1080c-5.48-25.68-11.89-51.06-22.93-75.06c-16.65-36.19-40.5-66.85-70.09-93.41
	c-11.78-10.58-22.4-22.45-33.94-34.12c16.45-11.75,33.61-17.02,50.77-22.28c10.49-3.21,21.07-6.17,31.5-9.56
	c19.24-6.25,36.88-15.18,48.98-30.47c6.73,6.12,12.89,12.28,19.62,17.73c15.95,12.9,35.37,18.03,54.53,23.79
	c15.92,4.79,31.66,10.2,49.05,15.85c-10.59,11.06-19.75,21.13-29.45,30.66c-20.72,20.35-40.24,41.6-55.92,66.25
	c-17.76,27.93-26.56,58.98-33.17,90.91c-1.36,6.59-2.97,13.14-4.46,19.71C547.5,1080,546,1080,544.5,1080z"/>
<path class="st0" d="M322.02,191.89c13.55,11.56,26.34,23.43,40.12,34c21.09,16.18,46.59,22.4,71.62,29.27
	c13.21,3.62,26.57,6.83,40,9.55c33.65,6.8,52.23,27.77,59.1,60.7c9.79,46.93-14.36,102.12-56.06,121.24
	c-43.04,19.73-85.58,17.44-124.68-11.4c-27.86-20.55-34.24-48.51-27.11-81.28c5.08-23.35,10.03-46.87,12.65-70.58
	c3.29-29.79-4.76-58.36-14.06-86.44C323.06,195.31,322.57,193.66,322.02,191.89z"/>
<path class="st0" d="M351.57,907.29c2.06-15.65,3.41-30.81,6.15-45.72c5.39-29.3,1.75-57.53-7.53-85.5
	c-5.09-15.36-11.01-30.75-13.5-46.61c-5.15-32.77,8.67-58.88,35.83-75.93c29.46-18.5,62.51-25.62,97-16.68
	c45.03,11.68,68.56,44.06,79,87.26c4.54,18.8,2.8,37.67-4.06,55.96c-7.79,20.76-22.03,34.74-43.15,41.55
	c-20.4,6.58-40.93,12.79-61.27,19.55c-34.59,11.5-61.21,33.93-83.69,61.88c-0.94,1.16-1.84,2.36-2.85,3.46
	C353.23,906.84,352.65,906.88,351.57,907.29z"/>
<path class="st0" d="M754.58,914.97c-6.4-6.77-12.33-12.71-17.89-18.99c-27.85-31.45-63.41-49.21-103.5-59.55
	c-13.69-3.53-27.55-7.71-40.11-14.03c-26.77-13.48-39.77-36.42-39.23-66.34c0.51-28.83,7.3-55.94,25.66-79.06
	c36.31-45.73,95.11-50.02,138.77-27.68c12.64,6.47,23.41,15.09,32.4,26.12c16.09,19.75,20.19,41.8,13.23,66.08
	c-6.18,21.57-13.52,42.86-18.5,64.7c-7.74,33.96-3.26,67.42,7.77,100.15c0.63,1.88,1.35,3.73,1.94,5.62
	C755.24,912.39,754.98,912.9,754.58,914.97z"/>
<path class="st0" d="M129.71,538.66c16.91-4.02,35.59-7.8,53.87-12.99c22.58-6.42,40.56-21.12,58.61-35.33
	c12.16-9.57,24.57-18.94,35.89-29.45c34.22-31.77,78.22-22.02,106.29,1.65c25.58,21.57,40.52,48.86,43.48,82.54
	c2.43,27.66-7.97,50.69-24.51,71.83c-22.6,28.87-50.46,47.41-88.71,45.74c-15.25-0.67-29.12-5.58-39.73-16.74
	c-13.93-14.64-27.3-29.84-40.56-45.1c-27.32-31.44-62.23-50.1-101.73-61.23C130.96,539.11,129.35,538.54,129.71,538.66z"/>
<path class="st0" d="M716.76,168.36c-9.37,52.29,0.61,100.48,26,146.09c4.84,8.7,9.02,17.81,13,26.96
	c8.57,19.71,8.68,39.65-2.07,58.35c-21.4,37.22-53.7,58.66-97.01,58.49c-46.97-0.18-79.74-24.95-101.03-65.82
	c-9.66-18.54-14.83-38.12-11.89-59.23c4.12-29.65,21.47-48.96,47.72-61.64c17.96-8.68,35.8-17.64,53.37-27.08
	c27.34-14.68,47.31-37.04,63.69-62.92C711.3,177.17,714.02,172.76,716.76,168.36z"/>
<path class="st0" d="M957.42,565.03c-56.35,1.98-102.11,24.75-142.23,60.59c-10.65,9.51-21.34,19.03-35.24,23.52
	c-27.52,8.88-52.38,2.63-74.6-14.7c-33.75-26.32-50.42-60.99-46.36-103.88c1.16-12.26,5.47-25.21,11.76-35.8
	c17.25-29.04,40.24-52.4,74.49-60.91c31.74-7.88,58.81,0.23,79.81,25.88c13.13,16.03,25.48,32.71,38.94,48.44
	c19.42,22.69,44.54,37.39,71.83,48.65C942.47,559.56,949.27,561.95,957.42,565.03z"/>
<path class="st0" d="M881.75,496.1c-11.34-14.4-22.25-27.74-32.6-41.5c-17.96-23.87-39.9-41.14-70.65-44.66
	c-1.46-0.17-2.88-0.68-4.66-1.11c0.32-1.3,0.42-2.55,0.92-3.59c12.23-25.41,10.87-50.95-0.24-76.1
	c-9.48-21.47-19.93-42.5-29.94-63.73c-0.61-1.3-1.11-2.66-1.89-4.55c17.59-7.15,35.11-9.5,52.82-3.25
	c17.87,6.3,35.74,12.79,52.98,20.61c53.28,24.15,108.44,29.17,165.5,18.26c6.26-1.2,12.63-1.77,19.61-0.95
	c-6.91,4.68-13.7,9.55-20.75,14.02c-50.69,32.14-84.22,77.76-105.82,133.11c-6.61,16.93-14.91,33.2-22.49,49.76
	C884.07,493.46,883.13,494.3,881.75,496.1z"/>
<path class="st0" d="M1013.91,826.83c-10.29-3.56-20.58-7.13-30.89-10.67c-52.41-18.01-105.24-18.38-158.6-4.36
	c-16.88,4.44-34.06,7.75-51.16,11.36c-7.58,1.6-8.78,0.43-6.86-6.91c6.18-23.65,12.23-47.34,19.06-70.8
	c6.7-23.01,4.83-44.89-6.12-66.1c-0.89-1.72-1.58-3.55-2.74-6.2c27.29-6.92,46.56-25.82,67.44-42.3
	c18.73-14.78,38.64-27.5,63.53-33.88c3.92,17.15,8.24,34.2,11.66,51.43c5.51,27.68,10.55,55.45,22.13,81.47
	c14.68,32.98,36.89,60.36,63.06,84.79c3.61,3.37,7.56,6.35,11.36,9.52C1015.17,825.07,1014.54,825.95,1013.91,826.83z"/>
<path class="st0" d="M59.77,800.34c5.01-3.54,9.96-7.16,15.02-10.62c41.63-28.42,73.74-65.14,94-111.33
	c10.91-24.88,19.43-50.81,29.04-76.26c0.59-1.57,1.38-3.06,2.51-5.55c13.02,14.79,25.51,29.02,38.05,43.2
	c4.63,5.24,9.2,10.54,14.09,15.53c15.72,16.04,34.46,26.19,57.03,28.7c3.17,0.35,6.28,1.18,10.36,1.97
	c-13.9,31.59-1.79,60.76,6.27,90.29c3.68,13.48,7.17,27.03,10.47,40.61c2,8.25,0.35,10.26-8.18,11.01
	c-14.67,1.29-28.9-0.93-42.78-5.6c-20.58-6.92-41.22-13.68-61.67-20.99c-46.59-16.64-93.61-15.23-140.97-4.13
	c-7.46,1.75-14.97,3.32-22.46,4.97C60.3,801.54,60.04,800.94,59.77,800.34z"/>
<path class="st0" d="M71.08,274.47c7.26,2.32,14.51,4.67,21.78,6.97c38.13,12.04,76.96,18.39,116.52,9.25
	c27.66-6.39,54.77-15.12,82.15-22.73c7.41-2.06,14.9-3.83,23.11-5.93c1.83,18.76,0.17,36.5-3.38,54.11
	c-3.25,16.13-6.92,32.17-10.04,48.32c-3.33,17.26-0.08,33.75,6.81,49.68c0.68,1.58,1.3,3.2,2.26,5.59
	c-34.1,7.39-55.13,34.22-81.25,53.4c-11.23,8.25-22.03,17.08-34.68,26.93c-6.55-19.51-13.19-37.71-18.75-56.24
	c-8.76-29.15-16.06-58.78-31.8-85.3c-17.43-29.36-40.74-53.53-66.7-75.32c-2.61-2.19-5.94-3.52-8.93-5.25
	C69.14,276.78,70.11,275.63,71.08,274.47z"/>
</svg>
