<?xml version="1.0" encoding="utf-8"?>
<!-- Generator: Adobe Illustrator 23.0.6, SVG Export Plug-In . SVG Version: 6.00 Build 0)  -->
<svg version="1.1" id="Layer_1" xmlns="http://www.w3.org/2000/svg" xmlns:xlink="http://www.w3.org/1999/xlink" x="0px" y="0px"
	 viewBox="0 0 1080 1080" style="enable-background:new 0 0 1080 1080;" xml:space="preserve">
<style type="text/css">
	.st0{fill:#FFFFFF;}
</style>
<path class="st0" d="M424.4,865.8c-23.7,0.2-23.7,0.2-23.7-23.9c0-12.3,0.2-24.6-0.1-36.9c-0.2-6.7,2.4-9.3,9.1-9.1
	c9.9,0.3,19.9,0,29.8,0.2c2.7,0,6,0.1,6,4.1c0,3.9-3.3,4-6,4c-7.5,0.1-15.1,0.3-22.6,0.1c-8.2-0.2-7.2,5.5-7.2,10.7
	c0,5.2-0.8,10.8,7.3,10.6c6.7-0.2,13.5,0,20.3,0.1c2.8,0.1,6,0.2,5.7,4.2c-0.3,3.1-3,3.3-5.4,3.4c-6.8,0.1-13.5,0.3-20.3,0.1
	c-9-0.3-7.8,6.1-7.6,11.4c0.2,5.4-2.6,12.9,7.3,13c8.3,0,16.7,0,25,0.2c2.8,0.1,5.9,0.5,5.6,4.4c-0.3,3.1-2.9,3.5-5.3,3.5
	C436.3,865.8,430.3,865.8,424.4,865.8z"/>
<path class="st0" d="M467.1,832.5c0-10.7,0.1-19.4,0-28.2c-0.1-5,1.2-8.6,7.1-8.5c10.7,0.1,21.5,0,32.2,0.2c2.8,0,6,0.3,5.7,4.3
	c-0.3,3.8-3.6,3.7-6.3,3.8c-6.8,0.1-13.5,0.5-20.3,0c-7.5-0.5-9.7,2.8-9.4,9.9c0.2,6.4-0.1,12.1,9.1,11.5c6.3-0.5,12.7-0.1,19.1,0.1
	c2.4,0,5.1,0.3,5.4,3.4c0.4,4-2.8,4.2-5.6,4.3c-6.8,0.1-13.5,0.3-20.3,0.1c-9.1-0.3-7.7,6.2-7.5,11.5c0.2,5.4-2.5,12.9,7.5,12.8
	c7.2-0.1,14.3-0.1,21.5,0.1c3.3,0.1,8.2-1.3,8.6,3.8c0.3,5.4-4.7,4-8,4.4c-0.8,0.1-1.6,0.1-2.4,0c-11.4-0.7-25.7,4.7-33.5-2.2
	C461.7,856.5,468.6,841.9,467.1,832.5z"/>
<path class="st0" d="M784.5,832.4c0-10.6,0.2-19.3-0.1-28.1c-0.2-6.1,2.2-8.7,8.3-8.6c9.5,0.2,19.1-0.1,28.6,0.1
	c3.2,0.1,8.3-1.1,7.9,4.4c-0.4,5.2-5.3,3.6-8.6,3.7c-5.5,0.3-11.2,0.5-16.7,0c-8.8-0.9-10.5,3.4-10.6,11.2
	c-0.1,8,2.9,10.7,10.5,10.1c4.3-0.4,8.8-0.3,13.1,0c3.6,0.3,9.5-1.8,9.8,3.7c0.3,6.1-5.7,3.8-9.2,4.1c-4.3,0.4-8.8,0.6-13.1,0
	c-9.6-1.2-11.2,3.7-11.1,11.9c0.2,7.6,0.4,13.4,10.5,12.5c7.1-0.6,14.3-0.1,21.4,0c2.8,0.1,6,0.2,6.1,4c0.1,3.9-3.1,4-5.9,4.2
	c-1.6,0.1-3.2,0.2-4.8,0.1c-11.4-0.7-25.7,4.7-33.5-2.2C779.2,856.5,786.1,841.9,784.5,832.4z"/>
<path class="st0" d="M645.5,830.2c0-7.2,0.7-14.4-0.2-21.4c-1.3-11,3.5-13.9,13.6-13.1c8.7,0.7,17.5,0.2,26.2,0.3
	c2.9,0,5.8,0.8,5.5,4.6c-0.2,3.2-2.9,3.4-5.3,3.5c-6.8,0.1-13.5,0.5-20.3,0c-7.5-0.5-10.7,2-10.6,10c0.1,7.7,1.7,12.1,10.6,11.3
	c5.5-0.5,11.1-0.1,16.7,0c2.7,0.1,6.1,0,6.3,3.8c0.2,3.9-3.3,3.9-6,4c-6,0.1-12,0.5-17.9,0c-9.9-0.8-9.6,5.4-9.6,12.2
	c0,6.7-0.5,13,9.5,12.3c7.1-0.5,14.3-0.2,21.4,0c3.1,0.1,7-0.3,6.9,4.3c-0.1,3.7-3.4,3.8-6.2,3.9c-11.1,0-22.3-0.1-33.4,0.1
	c-5.9,0.1-7.4-3.1-7.3-8.2C645.6,848.5,645.5,839.4,645.5,830.2z"/>
<path class="st0" d="M376.9,823.6c0,6,0.3,11.9-0.1,17.9c-1.1,17-10.1,25.8-26.4,25.9c-17.1,0.1-26.6-8.6-27.4-26.1
	c-0.6-11.9-0.3-23.8-0.1-35.8c0-3.3-1.1-8.3,4-8.4c6.2-0.1,4.4,5.6,4.5,9.1c0.3,10.7-0.2,21.5,0.2,32.2c0.5,14.3,7,21.3,18.8,21.2
	c11.1-0.1,17.5-7.1,18-20.8c0.5-11.5,0.1-23,0.2-34.6c0-3-0.8-7.2,3.7-7.4c5.6-0.3,4.5,4.5,4.6,7.8c0.2,6.3,0.1,12.7,0.1,19.1
	C377,823.6,377,823.6,376.9,823.6z"/>
<path class="st0" d="M766.2,799.5c-0.6,1.1-1.4,2.4-2.3,3.7c-3.3,5-6.2,10.2-10,14.8c-9.1,11.2-14.4,23.3-12.3,38.2
	c0.5,3.4,1.8,9.1-4.4,9c-5.1,0-4.7-5.1-4.1-8.3c3.9-21-9.7-34.8-19.8-50.2c-1.9-2.9-7.5-6.4-3.3-9.7c4.7-3.6,8.4,0.9,11.4,5.1
	c5.4,7.5,8.2,21,16.6,21c6.8-0.1,10.6-13.4,15.8-20.9c2.3-3.3,4.5-6.7,9.3-6C764.9,796.4,766.1,797.1,766.2,799.5z"/>
<path class="st0" d="M1079.7,484.6c-1.1-7-1.2-14.3-1.6-21.4c-5.8-120.4-86.9-217.3-204.1-243.8c-176.8-40.1-342.4,117-310,295.5
	c18.5,101.8,78,172.2,176.6,203.5c100.9,32,190.9,7.2,266.1-67.6c27.5-27.3,46.1-60.6,58.7-97.3c2.8-8.1,3.2-12.7-7.8-11.8
	c-10.3,0.8-20.7,0.6-31,0c-7.2-0.4-10.5,2.4-13,9c-8.7,22.4-21,43-37.4,60.5c-58.5,62.3-130.2,85.5-212.5,62.7
	c-82.2-22.8-131.9-79.4-150.4-162.8c-3.2-14.3-2.5-14.6,12.3-14.6c73.2,0,146.4,0,219.6,0c1.6,0,3.2,0,4.8,0
	c72.8,0,145.6-0.2,218.4,0.2C1077.5,496.7,1081.2,494.3,1079.7,484.6z M1011.9,444.3c-64.4,0-128.9,0-193.3,0c0,0,0,0,0,0
	c-64.8,0-129.7-0.2-194.5,0.2c-10.4,0.1-12.9-2.7-10.9-13c19.2-97.2,105.1-168.1,205.1-168.8c98.9-0.7,185.7,69.4,205.8,166.2
	C1027.4,444.2,1027.4,444.3,1011.9,444.3z"/>
<path class="st0" d="M527.3,688.9c-17.2-15.9-33.6-32.8-51.2-48.3c-8.4-7.4-8.1-12.1-2-21.3c56.4-86.2,63.4-176.9,15.5-267.9
	C441.9,261,363.1,217.3,261.8,213.2c-21,0.4-41.4,2.7-61.7,7.5C10.3,265.6-62.5,502.5,69.3,646.1c92.6,100.9,241.2,113.9,350.9,30.3
	c8.3-6.3,12.5-5.8,19.5,1.3c16.4,16.8,34,32.3,50.6,48.9c6.1,6.1,9.9,5.6,15.2-0.4c7.1-8.1,14.5-15.8,22.4-23.1
	C534,697.5,532.7,693.9,527.3,688.9z M261.7,682C145.8,682.5,52,588.5,51.6,471.6c-0.4-114.5,93.7-208.4,209.2-208.9
	c115-0.5,209.8,93.4,210,208C471.1,587.6,378.2,681.5,261.7,682z"/>
<path class="st0" d="M579.7,856.7c-2.4-4.5-5.3-8.8-8.2-13.1c-3.6-5.3-7-9.5,2.4-13.2c8-3.1,9.7-11,8.5-19.1
	c-1.2-8.2-6.7-12.5-14.3-13.9c-5.8-1-11.8-0.8-17.7-1.6c-11-1.5-16.3,2.1-14.8,14.1c0.8,6.6,0.2,13.5,0.2,20.2
	c0,5.6-0.8,11.3,0.2,16.6c1.2,6.2-4.9,17.4,4.6,17.5c8,0.1,2.5-11.2,4.1-17.2c1.1-4.2-2.5-10.3,4.3-12c6.6-1.7,8.8,3.9,11.6,8.1
	c3.9,6,7.6,12.1,11.5,18.1c2.4,3.7,6,6.4,9.8,3.4C585.3,862,581,859.1,579.7,856.7z M553.5,826.3c-9.1,1.7-8.7-4.8-9.2-11.7
	c-0.7-9.9,4.5-11.2,12.4-10.6c7.8,0.6,15.8,0.9,16.7,11.1C573.9,822.7,567,826.5,553.5,826.3z"/>
<path class="st0" d="M302.5,860.1c-7-5.1-3.7-10.6-1.5-16.7c5.1-13.9,0.9-29.7-10.1-39c-11.6-9.8-24.8-12.2-38.8-5.7
	c-14,6.4-20.6,17.9-21.4,31.4c0.1,27,25.8,44.5,49.4,35.2c5.8-2.3,11.2-6.9,16.9,0.1c1.4,1.7,3.5,1.4,5.3-0.2
	C304.1,863.6,304.3,861.4,302.5,860.1z M266.9,860c-15.4,0-28.1-12.6-28.4-27.9c-0.3-15.4,12-28.4,27.4-28.9
	c16.2-0.5,29.2,11.8,29.4,27.9C295.5,847.3,283,860.1,266.9,860z"/>
</svg>
