<?xml version="1.0" encoding="utf-8"?>
<!-- Generator: Adobe Illustrator 23.0.6, SVG Export Plug-In . SVG Version: 6.00 Build 0)  -->
<svg version="1.1" id="Layer_1" xmlns="http://www.w3.org/2000/svg" xmlns:xlink="http://www.w3.org/1999/xlink" x="0px" y="0px"
	 viewBox="0 0 1080 1080" style="enable-background:new 0 0 1080 1080;" xml:space="preserve">
<style type="text/css">
	.st0{fill:#FFFFFF;}
</style>
<path class="st0" d="M541.1,1073.99C245.48,1071.81,8.47,836.71,8.49,540.96C8.51,245.07,245.67,8.37,541.16,8.47
	c295.42,0.1,532.2,236.71,532.35,532.28C1073.67,836.09,837.14,1071.65,541.1,1073.99z M994.35,540.94
	c-0.01-249.9-202.96-453.18-452.59-453.31C291.06,87.5,87.73,290.27,87.65,540.49C87.56,791.06,290.48,994.3,540.77,994.34
	C791.22,994.38,994.36,791.32,994.35,540.94z"/>
<path class="st0" d="M316.26,540.72c74.89-74.92,150.02-150.07,224.86-224.93c74.92,74.92,150.05,150.05,224.78,224.79
	c-74.78,74.74-150.06,149.99-224.95,224.84C466.44,690.9,391.2,615.66,316.26,540.72z M541.28,692.61c1.2-1.01,2.07-1.63,2.81-2.37
	c48.44-48.44,96.84-96.92,145.34-145.3c3.35-3.34,2.4-5.48-0.47-8.35c-48.07-47.97-96.11-95.98-144.04-144.09
	c-3.01-3.03-4.76-2.94-7.7,0.01c-47.65,47.8-95.41,95.49-143.14,143.22c-4.92,4.93-4.9,4.98,0.07,9.95
	c47.64,47.65,95.29,95.29,142.94,142.93C538.34,689.87,539.64,691.06,541.28,692.61z"/>
<path class="st0" d="M540.05,252.29c-29.98,30.07-59.36,59.54-88.35,88.64c-12.55-12.52-25.2-25.15-37.5-37.43
	c41.78-41.81,84.06-84.12,125.99-126.09c42.39,42.34,84.94,84.83,127.38,127.21c-12.41,12.37-25.06,24.96-37.66,37.52
	C600.45,312.68,570.69,282.93,540.05,252.29z"/>
<path class="st0" d="M539.6,905.29c-41.48-41.52-83.64-83.72-125.36-125.49c12.27-12.3,24.87-24.94,37.35-37.45
	c28.83,28.97,58.28,58.58,87.79,88.24c30.72-30.74,60.44-60.49,90.04-90.12c12.85,12.95,25.39,25.59,37.58,37.87
	C624.92,820.28,582.34,862.7,539.6,905.29z"/>
<path class="st0" d="M142.29,518.21c0-17.71,0-35.05,0-52.68c53.12,0,106.01,0,159.33,0c0,17.35,0,34.82,0,52.68
	C248.76,518.21,195.74,518.21,142.29,518.21z"/>
<path class="st0" d="M780.18,518.21c0-17.71,0-35.06,0-52.68c53.13,0,106.01,0,159.33,0c0,17.36,0,34.83,0,52.68
	C886.65,518.21,833.63,518.21,780.18,518.21z"/>
<path class="st0" d="M301.82,564.83c0,17.71,0,35.05,0,52.68c-53.12,0-106.01,0-159.33,0c0-17.35,0-34.82,0-52.68
	C195.35,564.83,248.36,564.83,301.82,564.83z"/>
<path class="st0" d="M939.72,564.83c0,17.69,0,35.04,0,52.67c-53.12,0-106.01,0-159.33,0c0-17.34,0-34.81,0-52.67
	C833.23,564.83,886.25,564.83,939.72,564.83z"/>
<path class="st0" d="M541.62,468.04c23.97,23.97,48.44,48.43,73.26,73.25c-9.71,9.67-19.82,19.69-29.89,29.75
	c-13.72,13.71-27.45,27.41-41.08,41.19c-1.77,1.79-3.01,2.74-5.17,0.56c-23.7-23.78-47.44-47.51-70.98-71.07
	C492.61,516.93,517.22,492.39,541.62,468.04z"/>
</svg>
