<?xml version="1.0" encoding="utf-8"?>
<!-- Generator: Adobe Illustrator 23.0.6, SVG Export Plug-In . SVG Version: 6.00 Build 0)  -->
<svg version="1.1" id="Layer_1" xmlns="http://www.w3.org/2000/svg" xmlns:xlink="http://www.w3.org/1999/xlink" x="0px" y="0px"
	 viewBox="0 0 1080 1080" style="enable-background:new 0 0 1080 1080;" xml:space="preserve">
<style type="text/css">
	.st0{fill:#FFFFFF;}
</style>
<g>
	<path class="st0" d="M507.74,105.54c17.23-1.46,33.12,1.34,45.47,14.42c14.61,15.47,18.12,33.6,10.65,53.41
		c-7.19,19.05-25.22,30.68-46.98,30.86c-49.16,0.39-94.58,13.51-136.23,39.66c-1.48,0.93-2.95,1.89-4.44,2.8
		c-25.21,15.45-41.62,36.17-52.17,65.11C249.28,516.87,172.81,721.33,96.83,925.96c-8.95,24.12-28.4,36.62-52.72,34.35
		c-22.24-2.08-39.53-18.7-43.54-41.89c-1.73-10.02,0.71-19.44,4.16-28.72C57.89,746.37,111.04,603.03,164.2,459.71
		c25.67-69.2,52-138.17,76.66-207.73c7.66-21.61,19.52-38.7,36.32-53.76C342.91,139.27,419.85,108.8,507.74,105.54z"/>
	<path class="st0" d="M1030.92,657.29c-29.57-29.3-65.36-49.01-103.67-64.31c-63.02-25.17-128.85-36.97-196.37-40.7
		c-93.5-5.17-185.15,3.7-273.95,35.08c-2.81,0.99-6.16,3.83-8.68,1.48c-2.64-2.47,0.22-5.94,1.16-8.73
		c14.5-43.09,29.41-86.05,43.58-129.25c3.33-10.16,9-17.68,16.96-24.4c99.65-84.16,241.12-83.15,339.47,2.62
		c5.86,5.11,12.04,9.59,19.46,12.12c22.54,7.7,47.3-1.53,58.99-21.97c12.36-21.6,7.49-46.48-12.59-64.28
		c-141.22-125.24-356.22-118.63-490.46,14.89c-9.42,9.37-15.69,19.8-19.95,32.47c-34.95,104.11-69.85,208.24-105.98,311.94
		c-17.08,49.02-9.66,93,21.58,133.33c31.87,41.15,75.38,66.14,122.73,85.09c77.49,31.02,158.71,41.13,238.64,42.13
		c62.53-0.49,121.6-6.13,179.52-21.05c58.84-15.16,114.33-37.44,161.15-77.64C1095.87,813.13,1099.39,725.14,1030.92,657.29z
		 M615.2,872.21c-60.93-6.86-120.12-19.64-174.27-49.99c-14.41-8.08-27.82-17.59-38.8-30.1c-17.7-20.17-17.92-37.65-0.62-58.02
		c12.68-14.92,28.76-25.52,45.88-34.5c53.23-27.9,110.7-40.43,169.96-46.49c7.97-0.81,8.49,3.03,8.46,9.09
		c-0.14,33.59-0.07,67.19-0.07,100.79c0,32.9-0.17,65.79,0.12,98.68C625.93,869.62,623.99,873.2,615.2,872.21z M969.77,789.29
		c-20.56,24.77-48.46,38.76-77.42,50.57c-50.37,20.54-103.33,29.73-157.28,34.22c-8.51,0.71-10.83-2.32-10.75-10.5
		c0.35-33.59,0.15-67.19,0.15-100.79c0-33.6,0.11-67.19-0.09-100.79c-0.04-7,0.97-11.28,9.67-10.57
		c67.49,5.48,133.13,17.95,193.3,50.98c16.32,8.96,31.58,19.52,43.14,34.52C984.56,755.22,984.51,771.54,969.77,789.29z"/>
</g>
</svg>
