<?xml version="1.0" encoding="utf-8"?>
<!-- Generator: Adobe Illustrator 23.0.6, SVG Export Plug-In . SVG Version: 6.00 Build 0)  -->
<svg version="1.1" id="Layer_1" xmlns="http://www.w3.org/2000/svg" xmlns:xlink="http://www.w3.org/1999/xlink" x="0px" y="0px"
	 viewBox="0 0 1080 1080" style="enable-background:new 0 0 1080 1080;" xml:space="preserve">
<style type="text/css">
	.st0{fill:#FFFFFF;}
</style>
<path class="st0" d="M933.05,581.92c-143.85,0-287.23,0-431.51,0C645.89,437.97,789.61,294.66,933,151.66
	C882.72,101.43,832.8,51.57,782.69,1.51C639.6,144.19,496.25,287.12,352.91,430.05c-0.32-0.15-0.64-0.3-0.96-0.45
	c0-142.8,0-285.61,0-428.37c-67.84,0-135.17,0-202.59,0c0,261.33,0,522.42,0,783.6c261.35,0,522.43,0,783.68,0
	C933.05,717.22,933.05,649.9,933.05,581.92z M851.21,992.47c-0.44-0.03-0.89-0.05-1.33-0.08c-0.28-1.51-0.61-3.01-0.84-4.52
	c-6.99-47.2-14-94.39-20.89-141.6c-0.38-2.58-1.39-3.11-3.71-3.1c-13.94,0.08-27.88,0.04-41.82,0.04c-2.57,0-5.13,0-8.06,0
	c-7.41,49.9-14.78,99.55-22.15,149.2c-0.48-0.02-0.97-0.04-1.45-0.06c-8.1-49.65-16.2-99.3-24.3-148.92c-19.42,0-38.35,0-57.74,0
	c0.26,1.76,0.43,3.26,0.71,4.75c5.28,28.26,10.58,56.51,15.87,84.77c8.66,46.25,17.35,92.49,25.92,138.76
	c0.55,2.98,1.55,3.94,4.66,3.91c18.97-0.16,37.95-0.08,56.93-0.08c1.25,0,2.49,0,3.78,0c7.31-49.96,14.54-99.39,21.78-148.83
	c0.47,0.03,0.94,0.05,1.41,0.08c7.24,49.52,14.48,99.04,21.69,148.33c0.82,0.23,1.07,0.36,1.31,0.36c20.27,0.03,40.53,0,60.8,0.11
	c2.93,0.02,2.85-1.81,3.21-3.73c13.32-71.08,26.66-142.16,39.99-213.24c0.94-4.99,1.78-10,2.69-15.17c-18.36,0-36.12,0-54.13,0
	C867.41,893.23,859.31,942.85,851.21,992.47z M405.31,1004.55c12.49,22.95,24.68,45.23,36.72,67.58c1.33,2.46,2.71,3.49,5.6,3.47
	c18.07-0.14,36.15-0.07,54.22-0.08c1.24,0,2.47-0.11,4.17-0.19c-0.84-1.62-1.44-2.86-2.12-4.06
	c-21.41-37.67-42.8-75.34-64.31-112.96c-1.39-2.43-1.44-4.14-0.02-6.59c20-34.61,39.88-69.29,59.78-103.96
	c0.74-1.29,1.4-2.62,2.31-4.34c-1.7-0.09-2.81-0.2-3.93-0.2c-17.3-0.01-34.6,0.07-51.89-0.08c-2.92-0.03-4.29,1.05-5.56,3.52
	c-9.88,19.27-19.91,38.47-29.89,57.69c-0.61,1.17-1.29,2.3-2.18,3.88c-1.02-1.88-1.71-3.11-2.35-4.36
	c-9.93-19.1-19.91-38.18-29.73-57.34c-1.31-2.55-2.82-3.41-5.65-3.38c-18.07,0.13-36.15,0.06-54.22,0.08
	c-1.22,0-2.44,0.14-4.12,0.23c0.92,1.69,1.58,2.92,2.26,4.14c19.76,35.19,39.49,70.4,59.34,105.54c1.5,2.65,1.61,4.56,0.04,7.27
	c-21.51,37.02-42.89,74.11-64.29,111.19c-0.66,1.15-1.28,2.31-2.18,3.94c19.35,0,37.94-0.06,56.52,0.07
	c2.72,0.02,4.08-0.9,5.32-3.25c9.61-18.25,19.36-36.43,29.07-54.63C400.46,1013.52,402.72,1009.35,405.31,1004.55z M917.92,1076.44
	c7.07-0.04,12.44-5.56,12.3-12.63c-0.14-6.85-5.61-12.24-12.41-12.21c-6.96,0.03-12.41,5.67-12.28,12.71
	C905.65,1071.24,911,1076.48,917.92,1076.44z"/>
<path class="st0" d="M573.19,1080c-6.95-1.25-14.01-2.1-20.84-3.81c-33.14-8.28-52.91-32.13-55.13-66.2
	c-0.35-5.37-0.5-10.76-0.75-16.43c17.6,0,34.68,0,51.79,0c0.54,5.33,0.7,10.62,1.66,15.76c2.94,15.71,13.78,25.21,29.83,25.66
	c5.94,0.17,12.13-0.57,17.83-2.21c7.13-2.05,11.15-7.65,12.04-15.12c0.98-8.25-0.82-15.62-8.32-20.22
	c-3.91-2.4-8.27-4.21-12.64-5.65c-13.08-4.33-26.32-8.22-39.4-12.56c-5.12-1.7-10.13-3.85-14.95-6.28
	c-21.93-11.09-33.28-29.17-35.12-53.56c-2.29-30.26,9.74-58.26,38.8-72.1c10.5-5,21.63-7.56,33.2-8.17
	c13.88-0.74,27.61,0.18,40.91,4.56c28.76,9.47,44.66,29.79,49.28,59.25c1.17,7.46,1.15,15.11,1.7,23.02c-17.67,0-34.62,0-51.5,0
	c-0.63-5.82-0.82-11.64-1.95-17.27c-4.09-20.43-25.27-30.98-44.31-22.32c-13.04,5.93-15.75,24.93-4.56,33.96
	c3.42,2.76,7.69,4.75,11.87,6.25c14.91,5.34,30.03,10.11,44.92,15.52c5.9,2.14,11.59,5.05,17.04,8.19
	c17.87,10.3,28.92,25.43,31.12,46.25c2.17,20.57-0.95,39.98-14.44,56.53c-12.2,14.96-28.74,22.17-47.32,25.4
	c-3.02,0.52-6.04,1.03-9.06,1.55C587.65,1080,580.42,1080,573.19,1080z"/>
<path class="st0" d="M147.95,993.25c17.14,0,34.28,0,51.61,0c0.35,4.65,0.53,8.99,1.03,13.29c2,17.1,13.41,27.95,30.6,28.48
	c5.7,0.17,11.64-0.45,17.11-2c7.44-2.11,11.71-7.83,12.6-15.59c0.94-8.24-1.03-15.59-8.58-20.1c-3.94-2.35-8.3-4.15-12.66-5.6
	c-12.96-4.29-26.07-8.12-39.02-12.46c-5.59-1.88-11.08-4.25-16.32-6.98c-21.58-11.24-32.4-29.48-33.96-53.48
	c-0.68-10.5,0.02-20.91,3.31-30.98c7.83-23.92,24.55-38.65,48.37-45.27c20.88-5.81,41.97-5.3,62.52,1.61
	c28.89,9.72,44.14,30.86,48.27,60.48c0.97,6.97,0.9,14.09,1.32,21.39c-17.54,0-34.41,0-51.75,0c-0.07-1.34-0.05-2.71-0.23-4.06
	c-0.81-5.98-0.98-12.15-2.65-17.88c-3.62-12.39-12.69-18.89-25.31-19.86c-5.16-0.4-10.61,0.18-15.63,1.49
	c-7.52,1.96-11.9,7.54-13.1,15.2c-1.26,8.03,0.43,15.34,7.47,20.24c3.33,2.32,7.16,4.1,11.01,5.47
	c15.53,5.52,31.22,10.59,46.7,16.25c5.65,2.06,11.06,4.98,16.23,8.08c17.74,10.61,28.22,26.02,30.15,46.87
	c1.92,20.82-1.68,40.18-15.66,56.51c-12.15,14.2-28.32,21.05-46.35,24.14c-3.16,0.54-6.33,1.03-9.5,1.54c-6.97,0-13.94,0-20.91,0
	c-6.2-1.03-12.47-1.73-18.58-3.14c-27.43-6.34-46.75-21.81-54.59-49.66c-1.62-5.77-2.37-11.78-3.51-17.68
	C147.95,1004.09,147.95,998.67,147.95,993.25z"/>
<path class="st0" d="M933.05,581.92c0,67.97,0,135.3,0,202.91c-261.25,0-522.33,0-783.68,0c0-261.17,0-522.27,0-783.6
	c67.42,0,134.75,0,202.59,0c0,142.76,0,285.56,0,428.37c0.32,0.15,0.64,0.3,0.96,0.45C496.25,287.12,639.6,144.19,782.69,1.51
	C832.8,51.57,882.72,101.43,933,151.66c-143.4,143-287.11,286.31-431.46,430.26C645.82,581.92,789.2,581.92,933.05,581.92z"/>
<path class="st0" d="M851.21,992.47c8.1-49.62,16.19-99.24,24.32-149.04c18,0,35.77,0,54.13,0c-0.91,5.17-1.76,10.18-2.69,15.17
	c-13.33,71.08-26.67,142.16-39.99,213.24c-0.36,1.92-0.28,3.75-3.21,3.73c-20.27-0.11-40.53-0.08-60.8-0.11
	c-0.24,0-0.49-0.13-1.31-0.36c-7.21-49.29-14.45-98.81-21.69-148.33c-0.47-0.03-0.94-0.05-1.41-0.08
	c-7.23,49.44-14.47,98.87-21.78,148.83c-1.28,0-2.53,0-3.78,0c-18.98,0-37.95-0.08-56.93,0.08c-3.11,0.03-4.1-0.94-4.66-3.91
	c-8.57-46.27-17.26-92.51-25.92-138.76c-5.29-28.26-10.59-56.51-15.87-84.77c-0.28-1.48-0.45-2.98-0.71-4.75
	c19.38,0,38.32,0,57.74,0c8.1,49.63,16.2,99.28,24.3,148.92c0.48,0.02,0.97,0.04,1.45,0.06c7.37-49.65,14.74-99.3,22.15-149.2
	c2.93,0,5.5,0,8.06,0c13.94,0,27.88,0.04,41.82-0.04c2.32-0.01,3.34,0.52,3.71,3.1c6.89,47.21,13.9,94.41,20.89,141.6
	c0.22,1.52,0.55,3.02,0.84,4.52C850.33,992.42,850.77,992.45,851.21,992.47z"/>
<path class="st0" d="M405.31,1004.55c-2.59,4.81-4.86,8.98-7.09,13.17c-9.71,18.2-19.46,36.38-29.07,54.63
	c-1.24,2.35-2.61,3.27-5.32,3.25c-18.58-0.13-37.16-0.07-56.52-0.07c0.9-1.62,1.52-2.79,2.18-3.94
	c21.41-37.08,42.78-74.17,64.29-111.19c1.57-2.71,1.46-4.62-0.04-7.27c-19.85-35.14-39.58-70.35-59.34-105.54
	c-0.68-1.22-1.34-2.45-2.26-4.14c1.68-0.1,2.9-0.23,4.12-0.23c18.07-0.01,36.15,0.05,54.22-0.08c2.83-0.02,4.34,0.83,5.65,3.38
	c9.82,19.16,19.8,38.24,29.73,57.34c0.65,1.25,1.34,2.48,2.35,4.36c0.89-1.58,1.57-2.71,2.18-3.88
	c9.99-19.22,20.01-38.42,29.89-57.69c1.27-2.48,2.64-3.55,5.56-3.52c17.3,0.15,34.6,0.07,51.89,0.08c1.12,0,2.23,0.11,3.93,0.2
	c-0.91,1.72-1.57,3.06-2.31,4.34c-19.9,34.67-39.78,69.35-59.78,103.96c-1.42,2.45-1.37,4.16,0.02,6.59
	c21.5,37.61,42.9,75.29,64.31,112.96c0.68,1.19,1.27,2.44,2.12,4.06c-1.7,0.08-2.93,0.19-4.17,0.19
	c-18.07,0.01-36.15-0.06-54.22,0.08c-2.89,0.02-4.28-1.01-5.6-3.47C430,1049.77,417.81,1027.49,405.31,1004.55z"/>
<g>
	<path class="st0" d="M905.52,1064.01c0.01-6.84,5.54-12.36,12.39-12.35c6.8,0.01,12.32,5.55,12.32,12.35
		c-0.01,6.83-5.54,12.36-12.37,12.35C911.04,1076.36,905.52,1070.82,905.52,1064.01z M908.03,1064.02c0,5.43,4.41,9.84,9.84,9.84
		c5.44,0,9.85-4.41,9.85-9.85c0-5.45-4.43-9.85-9.87-9.84C912.43,1054.18,908.03,1058.59,908.03,1064.02z"/>
	<path class="st0" d="M920.02,1064.15c0.24,0.07,0.47,0.17,0.68,0.3c0.38,0.24,0.69,0.56,0.95,0.93c0.29,0.41,0.52,0.85,0.74,1.3
		c0.57,1.15,1.14,2.3,1.71,3.45c0.01,0.02,0.02,0.04,0.03,0.07c-0.03,0-0.05,0-0.07,0c-1.14,0-2.27,0-3.41,0
		c-0.05,0-0.07-0.01-0.09-0.06c-0.53-1.08-1.06-2.15-1.59-3.23c-0.16-0.32-0.34-0.63-0.57-0.91c-0.33-0.4-0.75-0.62-1.26-0.67
		c-0.32-0.03-0.64-0.02-0.96-0.03c-0.12,0-0.24,0-0.37,0c0,1.63,0,3.26,0,4.89c-1.11,0-2.22,0-3.33,0c0-4.3,0-8.61,0-12.92
		c0.02,0,0.03,0,0.05,0c1.77,0,3.54,0,5.32,0c0.75,0,1.49,0.08,2.21,0.28c0.53,0.15,1.02,0.37,1.44,0.73
		c0.44,0.38,0.72,0.86,0.86,1.42c0.19,0.79,0.19,1.59-0.04,2.38c-0.19,0.64-0.58,1.13-1.12,1.51c-0.33,0.23-0.7,0.4-1.09,0.53
		C920.07,1064.13,920.04,1064.14,920.02,1064.15z M915.8,1059.69c0,1.11,0,2.22,0,3.32c0.02,0,0.04,0,0.05,0c0.48,0,0.96,0,1.44,0
		c0.3,0,0.59-0.04,0.87-0.12c0.45-0.14,0.76-0.41,0.9-0.86c0.12-0.43,0.13-0.86,0.02-1.29c-0.12-0.48-0.42-0.79-0.9-0.93
		c-0.3-0.08-0.6-0.12-0.9-0.12c-0.42,0-0.83,0-1.25,0C915.96,1059.69,915.88,1059.69,915.8,1059.69z"/>
</g>
</svg>
