<?xml version="1.0" encoding="utf-8"?>
<!-- Generator: Adobe Illustrator 23.0.6, SVG Export Plug-In . SVG Version: 6.00 Build 0)  -->
<svg version="1.1" id="Layer_1" xmlns="http://www.w3.org/2000/svg" xmlns:xlink="http://www.w3.org/1999/xlink" x="0px" y="0px"
	 viewBox="0 0 1080 1080" style="enable-background:new 0 0 1080 1080;" xml:space="preserve">
<style type="text/css">
	.st0{fill:#FFFFFF;}
</style>
<g>
	<path class="st0" d="M1019.71,134.78c-19.16-27.14-46.17-46.69-68.22-70.87c-10.87-11.92-11.18,7.05-18.98,3.08
		c-3.74-1.9-11.63,8.16-16.25-0.31c-3.32-6.08,0.18-11.93,5.64-16.78c12.36-10.98,24.05-22.27,33.03-36.83
		c4.75-7.7,17.7-13.54,26.79-7.45c9.86,6.61,2.28,13.7-4.13,20.19c-2.77,2.81-2.81,9.6,1.39,13.77
		c32.25,32.04,64.53,64.06,96.91,95.96c0.63,0.62,2.72-0.23,4.12-0.39c0,2.88,0,5.76,0,8.64c-3.72-0.58-6.37,0.06-8.66,3.86
		c-9.31,15.4-20.78,17.55-34.07,4.54C1029.36,148.45,1023.55,142.61,1019.71,134.78z"/>
	<path class="st0" d="M42.43,532.37c0.02,26.06,0.05,52.12,0.07,78.18c-16.15-15.2-6.03-34.68-7.84-52.09
		C33.76,549.81,29.15,537.76,42.43,532.37z"/>
	<path class="st0" d="M794.84,515.95c0.19-3.2,0.38-6.4,0.57-9.59c12.97,7.28,9.34,16.87,3.7,26.73
		C793.99,528.3,794.37,522.13,794.84,515.95z"/>
	<path class="st0" d="M726.12,247.65c6.05,0.26,11.43-1.36,17.22,4.64c27.72,28.66,58.46,54.7,83.73,85.3
		c9.22,11.16,13.51,5.85,19.36,3.05c5.33-2.55,8.51-9.25,13.46-13.02c5.73-4.37,12.54-4.23,17.46,1.39
		c5.09,5.8,3.7,10.02-2.95,15.48c-12.7,10.43-24.49,22.23-35.16,34.74c-5.98,7.01-11.99,8.98-17.44,3.04
		c-36.59-39.84-79.23-73.82-112.8-116.56C712.22,257.33,718.2,251.57,726.12,247.65z"/>
	<path class="st0" d="M984.93,204.32c-0.01-6.93-6.79-8.81-10.36-12.74c-14.24-15.7-34.67-27.37-21.33-55.07
		c3.87-8.04-9.4-15.24-15.12-8.22c-20.04,24.61-24.75-1.21-34.74-9.12c-8.07-6.39-7.13-13.22,1.53-17.94
		c11.59-6.32,6.15-12.21,0.05-17.82c-6.23-5.74-10.88-7.12-16.38,2.76c-4.82,8.67-12.98,16.28-21.26,22.07
		c-14,9.79-10.54,17.59-0.38,27.42c29.87,28.9,59.19,58.37,89.01,87.32c6.05,5.88,8.26,17.2,20.22,15.46
		c12.97-0.55,17.11-12.42,23.22-20.38C1001.14,215.81,993.57,205.33,984.93,204.32z"/>
	<path class="st0" d="M738.77,446.78c-0.53,10.9-12.51,8.57-15.82,16.43c-2.18,5.17-9.66,7.82-13.23,12.73
		c-8.82,12.14-16.33,12.97-26.81,1.2c-7.55-8.49-14.09-18.2-25.37-23.6c-7.64-3.66-8.32-12.29,0.87-15.62
		c6.03-2.18,8.2-7.36,12.5-10.61c9.46-7.16,17.54-24.98,26.94-21.58c13.86,5.01,24.38,19.63,35.82,30.67
		C736.49,439.13,737.39,443.84,738.77,446.78z"/>
	<path class="st0" d="M677.69,383.96c0.68,7.63-1.95,9.35-5.04,11.65c-7.28,5.41-14.09,11.5-20.75,17.68
		c-16.11,14.94-23.69,14.57-35.55-2.95c-3.57-5.28-5.09-10.57,0.63-17.04c7.71-8.74,18-14.78,23.6-26.07
		c3.73-7.51,11.33-0.41,17.05,1.31C667.46,371.5,672.82,379.4,677.69,383.96z"/>
	<path class="st0" d="M933.55,242.44c-25.89-25.78-51.73-51.62-77.74-77.27c-5.31-5.23-9.88-12.49-18.43-12.34
		c-21.52,0.38-37.23,12.77-47.87,29.29c-9.37,14.56-3.9,31.93,6.93,43.34c27.15,28.59,56.32,55.27,84.68,82.72
		c8.75,5.58,17.57,5.32,26.43,0.3c2.75-0.19,5.5-0.39,8.25-0.58c4.7-0.99,7.55-4.12,9.55-8.24c3.45-5.25,6.34-10.98,10.44-15.65
		C948.81,269.21,946.79,255.62,933.55,242.44z M901.95,287.16c-27.54-29.72-52.11-56.56-77.12-82.97c-4.77-5.04-6.3-10.88-2.3-14.88
		c5.54-5.54,8.55,2.7,11.35,5.41c22.85,22.12,44.84,45.13,67.9,67.02C908.51,268.14,907.66,273.08,901.95,287.16z"/>
	<path class="st0" d="M852.63,600.43c3.49-15.69,3.52-30.85,0.25-46.33c-4.5-9.39-10.09-18.44-8.51-29.54
		c-5.54-28.09-13.28-55.63-25.48-81.46c-24.23-51.29-63.04-90.88-105.49-127.26c-1.64-1.36-3.36-2.57-5.28-3.51
		c-17.5-5.25-27.79-23.96-47.39-25.24c-7.57-1.92-15.64-2.74-22.62-5.95c-54.34-24.97-111.75-33.57-171-34.57
		c-46.48-0.79-92.57,1.59-138.32,9.94c-7.51,7.19-19.12,0.59-26.6,7.9c-52.56,11.64-99.92,35.91-147.12,60.57
		c-7.91,6.63-21.59,4.62-25.63,17.07c-4.43,3.27-9.11,6.25-13.26,9.84c-50.65,43.73-94.91,91.78-108.85,160.5
		c-0.57,2.79-4.81,4.83-7.34,7.22c0,27.36,0,54.72,0,82.08c7.32,8.02,3.19,17.88,4.32,26.88c-1.19,20.57,4.55,39.62,11.81,58.61
		c16.8,43.93,40.77,83.43,69.03,120.97c35.38,46.98,71.57,93.11,112.33,135.61c14.57,15.19,33.61,24.27,48.55,39.13
		c27.12,26.96,59.83,46.58,93.27,64.84c25.12,13.72,50.74,26.01,79.72,29.17c61.92,0,123.84,0,185.76,0
		c3.4-11.52,14.63-6.4,21.6-10.21c56.56-30.94,101.98-73.69,134.51-129.46c20.68-35.46,36.67-73,50.85-111.67
		c13.2-36,21.19-72.73,27.21-110.22c3.54-7.88,5.53-16.65,12.81-22.36c5.02-10.77,2.43-22.41,3.9-33.57
		C858.29,639.43,848.27,620.05,852.63,600.43z M786.54,774.82c-13.1,52.21-33.24,101.79-61.51,147.37
		c-34.4,55.45-80.59,98.17-143.85,119.53c-3.28,1.11-7.12,0.58-10.69,0.82c-10.36,8.77-24.71-0.32-35.2,7.87
		c-76.39,4.27-144.2-21.59-206.41-62.46c-76.22-50.07-138.66-115.2-193.38-187.74c-35.74-47.38-68.1-96.79-85.68-154.4
		c-3.54-11.61-6.88-23.08-7.32-35.26c-5.83-26.06-5.73-52.12-0.07-78.18c11.86-66.31,51.2-114.8,103.11-153.66
		c36.8-27.54,77.53-48.93,121.92-62.41c7.27-7.49,19.19-0.39,26.3-8.39c25.62-6.71,49.86-19.35,77.36-17.96
		c13.61-8.7,30.53,1.7,44.04-7.6c22.75,0.02,45.5,0.03,68.25,0.05c13.59,9.17,30.47-1.05,44.16,7.49
		c104.33,13.19,183.42,65.78,239.67,153.8c1.78,2.78,1.53,6.87,2.22,10.34c3.76,5.97,1.08,10.18-3.72,13.84
		c-4.89,2.02-8.66,5.67-12.63,9.01c-0.42,0.4-0.83,0.81-1.25,1.2c-0.21-2.3-0.4-4.61-0.57-6.93c-21.44,11-34.31,31.44-51.36,47.24
		c-9.31,8.63-15.58,11.01-25.25,1.17c-30.68-31.22-61.98-61.84-92.88-92.85c-8.6-8.63-11.46-19.66-1.96-28.16
		c14.23-12.73,24.87-29.32,41.83-39.05c7.5-10.91-4.36-11.88-8.61-16.75c-11.33-3.07-22.66-6.14-33.98-9.21
		c-7.68-7.23-19.1-1.07-27-7.52c-23.64,0.38-47.73-2.04-70.82,1.69c-52.07,8.41-98.51,32.77-145.4,55.77
		c-9.98,4.9-19.72,14.66-33.06,11.33c-7.57,7.09-19.1,0.58-26.66,7.74c-78.31,12.41-149.48,87.79-155.95,163.91
		c-7.86,10.88,0.83,25.08-7.21,35.92c-0.84,25.73,7.05,50.11,11.98,74.89c9.42,47.37,38.85,84.4,65.32,122.88
		c4.71,9.41,11.86,15.16,22.8,15.23c0.17-0.05,0.31-0.13,0.48-0.19c0.37,0.18,0.74,0.37,1.09,0.56
		c39.15,33.4,77.15,68.41,123.04,92.7c58.32,30.87,119.51,51.57,186.65,49.26c6.91-1.51,15.83,6.34,20.76-4.54
		c18.14-12.6,40.77-16.43,58.19-30.66c7.75-6.33,15.91-12.1,22.58-19.62c0.97-0.04,1.93-0.08,2.9-0.12
		c0.59,0.34,1.18,0.68,1.77,1.03c8.97-8.4,17.94-16.8,26.91-25.2c-1.9-1.4-2.82-2.87-3.17-4.36c0.11-0.05,0.21-0.12,0.31-0.17
		c45.76-24.32,82.65-58.46,112.06-100.95c3.3-4.77,7.15-9.03,13.46-9.84C787,764.47,790.33,767.65,786.54,774.82z M588.23,540.9
		c13.05,6.66,21.39,18.85,31.04,28.96c4.48,4.7,12.18,14.33,3.44,24.65c-8.52,10.05-14.64,16.36-26.83,3.59
		c-28.05-29.38-57.44-57.49-85.84-86.55c-2.74-2.8-5.03-4.47-8.55-5.05c-2.16-8.48-12.94-14.34-7.62-25.09c0,0,0,0,0,0
		c13.55-15.09,27.18-13.21,40.87-0.19c1.57,10.96,12.17,14.53,18.12,21.92c5.13,6.36,8,0.71,11.39-3.02c2.91-3.2,7.51-5.89,1.89-9.9
		c-7.72-5.51-10.94-16.47-21.91-17.93c-1.02-3.39-4.28-6.09-5.19-8.51c-2.19-5.84-16.25-7.57-6.89-17.46
		c8.36-8.83,16.92-16.59,30.32-8.31c10.29,6.36,17.18,16.02,25.54,24.28c24.31,24.01,48.68,47.95,73.27,71.67
		c9.02,8.7,8.46,15.69-1.03,23.8c-8.36,7.14-14.57,15.34-25.64,2.62c-11.43-13.14-25.58-23.91-37.18-36.92
		c-5.46-6.13-10.64-8.83-18.28-8.03C568.16,528.91,576.81,535.4,588.23,540.9z M436.52,934.35c-9.37-4.69-19.66-4.02-29.65-5.14
		c0,0,0,0,0,0c0,0,0,0,0,0c-7.38-3.08-15.64-4.97-21.91-9.57c-6.38-4.68,1.27-5.66,3.96-7.64c6.35,1.91,16.33-2.97,17.19,9.19
		c11.42,0.36,22.84,0.73,34.27,1.09c31.81-0.17,63.63-0.34,95.44-0.51c8.05-0.46,16.11-0.92,24.16-1.38c0,0,0,0,0,0
		c2.75-10.68,12.25-6.39,18.87-8.49c2.8,1.36,8.55,1.15,7.05,5.35c-2.16,6.06-8.65,4.83-13.95,4.62
		c-9.76,10.73-20.99,18.16-36.4,16.11C502.39,940.65,469.22,943.91,436.52,934.35C436.52,934.35,436.52,934.35,436.52,934.35
		C436.52,934.35,436.52,934.35,436.52,934.35z M484.47,524.09c-12.18,9.62-7.94,17.22,1.6,26.43
		c25.71,24.81,49.83,51.31,76.07,75.53c12.73,11.74,9.36,18.23-0.24,29.47c-12.18,14.26-19.12,2.74-25.63-3.57
		c-25.52-24.69-50.32-50.14-75.02-75.66c-8.79-9.08-17.06-15.83-28.13-3.69c-5.13,5.63-11.42,4.27-15.09,0.16
		c-4.49-5.02-3.4-10.21,2.36-16.31c15.5-16.4,33.85-30.21,46.32-49.44h0l0,0C480.66,504.35,486.15,510.5,484.47,524.09z
		 M164.66,602.41c0.01,28.31,0.03,56.62,0.04,84.93c10.56,19.18,16.96,39.49,16.86,61.58c-15.04-10.78-18.69-28.2-25.51-43.77
		c-18.81-40.37-21.61-83.12-17.82-126.55c4.75-54.4,51.95-131.77,112.32-145.28c3.19,16.53-12.31,22.99-19.78,32.4
		c-26.39,33.27-47.03,68.95-58.37,109.91C171.93,585.17,176.23,596.09,164.66,602.41z"/>
</g>
</svg>
