<?xml version="1.0" encoding="utf-8"?>
<!-- Generator: Adobe Illustrator 23.0.6, SVG Export Plug-In . SVG Version: 6.00 Build 0)  -->
<svg version="1.1" id="Layer_1" xmlns="http://www.w3.org/2000/svg" xmlns:xlink="http://www.w3.org/1999/xlink" x="0px" y="0px"
	 viewBox="0 0 1080 1080" style="enable-background:new 0 0 1080 1080;" xml:space="preserve">
<style type="text/css">
	.st0{fill:#FFFFFF;}
</style>
<path class="st0" d="M406.06,1080c-23.09-3.52-46.61-5.32-69.19-10.9c-69.02-17.03-128.17-51.51-175.75-104.8
	c-65.34-73.17-88.09-160.03-79.95-255.92c6.86-80.83,36.86-152.45,91.76-212.64c51.9-56.91,116.6-89.64,193.17-98.77
	c31.22-3.72,62.25-1.94,93.27,2.41c4.96,0.69,7.09,2.1,7.08,7.34c-0.14,61.54-0.12,123.09-0.18,184.63c0,1.19-0.43,2.39-0.51,2.79
	c-15.9,0-31.36-0.48-46.78,0.08c-76.38,2.81-134.55,47.72-147.29,123.68c-9.46,56.4,8.39,115.3,57.51,147.33
	c77.35,50.44,185.98,19.97,222.54-64.77c8.14-18.87,8.35-41.29,11.4-62.19c1.3-8.89,0.66-18.08,0.66-27.14
	c0.03-232.43,0.02-464.87,0.02-697.3c0-13.82,0.01-13.83,13.41-13.83c39.36,0,78.73-0.08,118.09,0.04
	c12.47,0.04,24.94,0.71,37.42,0.88c13.39,0.18,13.41,0.06,14.14,13.09c2.05,36.48,10.06,71.68,24.79,105.03
	c33.97,76.95,92.26,124.94,174.48,143.03c17.81,3.92,36.16,5.35,54.26,7.92c0,61.25,0,122.5,0,183.74
	c-92.74-4.54-178.58-29.11-255.08-89.3c0,20.47,0,38.77,0,57.07c0,102.77-0.09,205.54,0.03,308.3c0.06,53.42-9.57,105-30.53,154.06
	c-40.2,94.1-106.95,159.23-207.81,185.24c-20.71,5.34-42.29,7.32-63.48,10.85C431.06,1080,418.56,1080,406.06,1080z"/>
</svg>
