<svg width="44" height="44" viewBox="0 0 44 44" fill="none" xmlns="http://www.w3.org/2000/svg">
<path d="M13.8236 34.8369C10.6256 37.9222 7.45784 40.9782 4.32565 44C2.87163 42.5472 1.45667 41.1334 0 39.6779C3.02576 36.548 6.08459 33.3839 9.33343 30.0231C9.14433 29.941 8.95198 29.9054 8.82494 29.795C6.69585 27.9449 4.52148 26.1549 2.05456 24.7614C1.61196 24.5115 1.7562 24.2789 1.9414 23.9718C4.02845 20.5118 6.11284 17.0501 8.19241 13.5856C10.7777 9.27852 13.3572 4.96807 15.9418 0.660606C16.0696 0.447569 16.2213 0.248889 16.4716 0.0603342C16.9775 6.17077 17.3837 12.2655 17.7442 18.3633C17.6933 18.3915 17.6423 18.4197 17.5915 18.4479C16.3119 17.6824 15.0322 16.9169 13.7083 16.1248C13.5921 16.2982 13.4835 16.4467 13.389 16.6035C12.3548 18.319 11.334 20.0427 10.2813 21.7468C10.0573 22.1095 10.1125 22.2942 10.4294 22.5506C11.4369 23.3656 12.4269 24.2032 13.4011 25.0578C13.6894 25.3107 13.8642 25.3585 14.1555 25.0554C16.7066 22.4008 19.2735 19.7612 21.8337 17.1153C23.9251 14.9538 26.0137 12.7898 28.1032 10.6266C28.1985 10.528 28.2905 10.4263 28.4277 10.2792C28.2235 10.0615 28.033 9.84834 27.8317 9.64592C27.1611 8.97154 26.4852 8.30247 25.8143 7.62842C25.3764 7.18857 25.3977 7.09056 25.9842 6.86557C30.5896 5.09903 35.1956 3.33398 39.8014 1.56861C41.0897 1.07481 42.378 0.581018 43.6669 0.088883C43.7423 0.0600853 43.8234 0.0464748 43.9998 0C43.9635 0.220589 43.9639 0.382753 43.9096 0.524003C41.6559 6.39593 39.3983 12.2664 37.1375 18.1355C36.9432 18.6399 36.8556 18.6551 36.4676 18.2677C35.5877 17.3891 34.7142 16.5041 33.7875 15.5707C28.7217 20.4587 23.6924 25.3114 18.6306 30.1955C19.3324 31.0154 20.0055 31.7965 20.6722 32.5829C20.9851 32.9519 21.2681 33.3481 21.6029 33.6952C21.7052 33.8012 21.988 33.8755 22.0979 33.8109C23.9751 32.7088 25.8381 31.5827 27.7038 30.4612C27.7628 30.4258 27.8178 30.3836 27.9159 30.3161C27.4579 29.5571 27.0222 28.8363 26.5877 28.1147C26.3117 27.6561 26.041 27.1945 25.7615 26.738C25.5652 26.4176 25.6303 26.2378 26.0234 26.2641C28.3151 26.4173 30.6061 26.5823 32.8979 26.7341C34.7595 26.8574 36.622 26.9682 38.4841 27.0835C40.1909 27.1892 41.8979 27.2908 43.6042 27.4045C43.7212 27.4123 43.8323 27.5068 43.9462 27.561C43.8591 27.6738 43.795 27.8245 43.6813 27.8939C42.4139 28.6681 41.1398 29.4314 39.8656 30.1947C33.2857 34.1364 26.7051 38.0772 20.1249 42.0184C19.5183 42.3818 19.5281 42.3767 19.1634 41.7582C17.7173 39.3056 15.9238 37.1147 14.0362 34.9955C13.9927 34.9465 13.9294 34.9148 13.8236 34.8369ZM19.4959 39.0532C19.6666 39.3477 19.8175 39.5578 19.9168 39.7899C20.1205 40.2658 20.3597 40.3053 20.8174 40.0387C26.3634 36.8087 31.9222 33.6005 37.4767 30.3851C37.6055 30.3106 37.7234 30.2173 37.8464 30.1328C37.8195 30.091 37.7927 30.0492 37.7659 30.0074C31.7019 33.0098 25.6379 36.0121 19.4959 39.0532ZM36.2925 16.3277C36.3609 16.2873 36.4293 16.2468 36.4977 16.2064C38.0022 12.503 39.5067 8.7995 41.0111 5.09604C40.8835 5.07654 40.8501 5.09388 40.8349 5.12136C39.0299 8.37783 37.2245 11.6341 35.4302 14.8965C35.3718 15.0027 35.3731 15.2126 35.441 15.3046C35.7041 15.661 36.0054 15.9891 36.2925 16.3277ZM16.0693 7.12907C16.0219 7.13504 15.9746 7.1411 15.9273 7.14707C15.6958 9.94552 15.4627 12.7438 15.2391 15.5428C15.2309 15.6457 15.2842 15.8031 15.3623 15.8547C15.6994 16.0781 16.0565 16.2717 16.5178 16.5412C16.3639 13.312 16.2166 10.2206 16.0693 7.12907Z" fill="white"/>
</svg>
