<?xml version="1.0" encoding="utf-8"?>
<!-- Generator: Adobe Illustrator 23.0.6, SVG Export Plug-In . SVG Version: 6.00 Build 0)  -->
<svg version="1.1" id="Layer_1" xmlns="http://www.w3.org/2000/svg" xmlns:xlink="http://www.w3.org/1999/xlink" x="0px" y="0px"
	 viewBox="0 0 1080 833.5" style="enable-background:new 0 0 1080 833.5;" xml:space="preserve">
<style type="text/css">
	.st0{fill:#FFFFFF;}
</style>
<g>
	<path class="st0" d="M334.52,89.36c-3.2-5.72-6.33-11.32-9.75-17.44c52.1-22.33,103.48-44.35,156.31-66.99
		c-1.13,9.28-2.79,17.13-2.92,25.01c-0.8,48.58-1.64,97.17-1.74,145.76c-0.21,97.85,0.06,195.7,0.1,293.56
		c0.01,29.95,1.43,31.43,31.58,31.98c1.53,0.03,3.05,0.16,6.06,0.33c0,6.54,0,12.93,0,19.32c0,6.51,0,13.01,0,20.21
		c-48.92,0-97.04,0-146.34,0c0-17.83,0-35.63,0-55.32c-8.21,7.39-14.47,13.79-21.49,19.21c-58.64,45.32-123.24,53.29-190.95,25.81
		c-48.27-19.6-71.73-60.4-81.25-110.06c-7.37-38.47-2.04-77.07-0.84-115.6c2.08-67.26,4.73-134.5,6.94-201.76
		c0.21-6.48-0.2-13.16-1.57-19.48c-5.69-26.16-30.58-35.17-52.35-19.23C19.5,69.66,12.72,74.69,5.77,79.82
		C0.7,73.87-2.89,64.04,3.21,51.5c7.82-16.09,19.7-27.88,35.14-36.26C62.21,2.26,87.97-1.35,114.43,2.8
		c39.16,6.14,64.15,32.72,71.98,74.37c6.37,33.84,2.14,67.76,0.83,101.61c-2.24,58.21-5.92,116.38-7.36,174.61
		c-0.47,19.05,2.32,38.65,6.78,57.24c8.52,35.58,32.24,53.42,68.55,57.04c42.86,4.28,78.06-11.09,108.62-39.61
		c2.12-1.98,3.46-5.87,3.47-8.87c0.17-107.2,0.19-214.4,0.09-321.61c-0.01-15.11-5.97-18.86-20.21-13.45
		C343.13,85.66,339.18,87.43,334.52,89.36z"/>
	<path class="st0" d="M1054.98,3.27c23.71,12.88,28.83,25.82,22.56,59.31c-9.21,49.2-45.29,82.6-95.2,89.17
		c-25.76,3.39-50.93,0.67-76.07-4.5c-2.95-0.61-5.91-1.14-10.28-1.98c0,5.33,0,9.6,0,13.86c0,105.33,0,210.65,0,315.98
		c0,22.5,3.49,26.01,25.88,26.11c3.4,0.02,6.81,0,11.49,0c0,6.94,0,13.38,0,19.82c0,6.5,0,12.99,0,20.11c-61.74,0-122.61,0-184.11,0
		c0-13.04,0-25.7,0-40.03c5.86,0,11.93,0.26,17.97-0.05c12.73-0.67,17.93-5.84,18.94-18.44c0.2-2.48,0.11-4.98,0.11-7.48
		c0.01-118.42-0.08-236.83,0.21-355.25c0.02-8.05-2.67-11.06-10-13.53c-24.26-8.15-48.31-17.24-74.5-14.46
		c-11.35,1.2-22.84,3.25-33.64,6.82c-13.18,4.36-21.91,13.83-24.08,28.32c-2.26,15.07,4.2,25.91,16.17,34.19
		c4.28,2.96,8.6,5.87,13.36,9.11c-15.25,8.37-29.52,11.4-44.74,1.2c-18.1-12.12-27.34-28.93-27.27-50.27
		c0.13-36.42,15.87-65.58,44.53-87.44c40.24-30.69,85.88-38.93,135.2-31.04c45.27,7.24,87,25.45,129.57,41.11
		c27.77,10.21,55.66,19.84,85.39,22.87c28.87,2.94,52.6-10.53,58.15-35.1C1056.73,22.45,1054.98,12.36,1054.98,3.27z"/>
	<path class="st0" d="M627.32,740.4c-18.68,13.64-38.48,28.1-58.68,42.85c-11.54-12.41-25.54-20.88-43.53-21.14
		c-17.78-0.25-32.33,6.88-44.08,20.55c-0.64-0.69-1.27-1.39-1.91-2.08c1.71-2.55,3.07-5.46,5.2-7.58
		c15.73-15.67,22.86-34.04,20.5-56.55c-1.33-12.63,0.4-25.55-0.38-38.27c-1.11-18.07,6.3-31.24,20.91-41.02
		c5.55-3.72,11.09-7.45,17.46-10.55c-17.07,24.58-7.35,51.95-9.34,77.84c-0.95,12.43,0.37,25.01-9.6,35.96
		c10.39-1.13,19.25-2.1,29.08-3.17c0-38.31,0-77.24,0-116.7c-12.06,1.02-23.76,2.46-35.49,2.91c-22.62,0.88-35.28-12.43-31.99-32.98
		c1.86-11.61,12.79-20.71,24.53-19.98c2.04,0.13,3.96,2.07,8.04,4.35c-7.25,1.49-12.16,1.58-16.05,3.62
		c-2.66,1.4-5.22,5.46-5.32,8.42c-0.07,2.01,4.26,6.01,6.54,5.95c15.16-0.42,30.28-1.76,45.43-2.66
		c10.54-0.63,21.16-2.04,31.63-1.34c29.63,2,43.75,17.57,43.8,47.06c0.05,28.96-0.16,57.93,0.16,86.89
		C624.28,728.57,626.21,734.36,627.32,740.4z M589.95,752.52c0-16.3,0-32.46,0-48.63c0-14.15-1.55-15.75-15.93-15.62
		c-3.38,0.03-7.11,0.11-10.01,1.52c-2.44,1.18-5.46,4.28-5.56,6.64c-0.55,12.44-0.45,24.92-0.09,37.37
		c0.06,2.15,1.95,5.23,3.84,6.17C570.96,744.34,580.02,748.11,589.95,752.52z M558.67,619.35c-0.19,3.12-0.45,5.53-0.46,7.94
		c-0.04,10.56-0.1,21.13,0.09,31.69c0.03,1.58,1.27,4.47,2.07,4.51c8.8,0.44,17.75,1.22,26.34-0.11c1.75-0.27,2.51-8.89,3.16-13.73
		c0.45-3.34,0.13-6.84-0.23-10.22c-1.79-16.8-6.39-20.8-23.34-20.5C564.14,618.96,561.98,619.16,558.67,619.35z M558.76,668.72
		c0,5.32,0,11.35,0,16.79c10.54,0,20.54,0,30.61,0c0-5.85,0-11.59,0-16.79C579.29,668.72,569.78,668.72,558.76,668.72z"/>
	<path class="st0" d="M128.71,674.92c12.89,5.24,23.47,8.35,32.85,13.62c20.15,11.31,21.47,34.32,2.89,49.94
		c-0.92-15-10.82-21.57-23.2-25.76c-3.53-1.2-7.15-2.14-10.64-3.46c-11.85-4.46-21.98-5.68-29.16,8.52
		c-2.32,4.58-9.64,7.79-15.26,9.1c-3.33,0.78-8.99-2.49-11.34-5.63c-1.5-2,0.05-9.21,2.2-10.34c3.41-1.8,8.56-0.97,12.81-0.27
		c2.5,0.41,4.68,2.73,7.74,4.66c2.72-3.84,5.16-7.27,7.69-10.83c-40.96-17.05-51.05-34.34-33.41-57.96
		c10.15,21.62,31.71,22.56,50.59,28.27c1.55,0.47,3.88-1.66,7.77-3.47c-12.34-4.1-22.73-6.8-32.48-10.97
		c-18.13-7.75-25.3-21.56-21.6-40.65c2.78-14.38,12.08-23.77,25.36-28.82c26.92-10.24,53.08-7.5,78.43,5.89
		c2.3-1.43,4.64-2.89,6.99-4.35c0.57,0.55,1.15,1.09,1.72,1.64c-11.39,15.95-22.79,31.91-34.5,48.3c7.64,2.84,14.68,5.12,21.45,8.01
		c26.05,11.13,36.82,32.97,25.78,59.08c-6.49,15.36-17.29,29.36-28.15,42.28c-10.54,12.53-23.63,22.91-36.01,34.61
		c-12.78-11.58-26.32-20.34-43.27-21.14c-17.03-0.81-31.83,4.58-43.55,18.1c3.53-16.64,11.46-30.25,26.68-37.66
		c28.71-13.98,54.31-4.28,79.87,13.25c7.67-9.55,16.44-18.55,22.92-28.97c10.73-17.25,5.83-35.67-11.91-45.53
		c-9.4-5.22-20.01-8.35-30.25-11.94C135.91,671.8,133.26,673.58,128.71,674.92z M164.24,619.56c-17.88-17.27-38.31-23.3-61.97-16.83
		c-6.21,1.7-12.77,5.47-11.46,12.6c0.88,4.82,5.39,10.59,9.84,12.78c7.95,3.91,16.99,5.8,25.73,7.88
		C150.2,641.65,150.23,641.52,164.24,619.56z"/>
	<path class="st0" d="M728.94,272.89c11.54,4.27,11.23,11.66,8.6,20.76c-14.15,48.98-73.23,76.01-121.62,55.05
		c-11.11-4.81-21.65-10.95-32.42-16.54c-26.86-13.93-35.08-12.08-53.65,12.09c-2.24,2.92-4.55,5.8-6.76,8.62
		c-13.7-8.02-13.7-8.02-9.51-21.91c13.61-45.12,68.08-73.69,113.28-58.45c14.33,4.83,27.87,12.23,41.41,19.17
		c27.17,13.94,35.82,12.27,54.87-11.74C725.04,277.55,727.04,275.2,728.94,272.89z"/>
	<path class="st0" d="M848.38,833.5c-15.56-16.47-33.16-16.43-52.44-5.48c8.44-26.66,42.5-42.24,72.67-17.38
		c19.46-16.13-0.94-29.26-2.61-45.57c-6.75,5.49-11.95,10.22-17.71,14.13c-1.9,1.29-5.97,1.59-7.8,0.41
		c-13.02-8.4-25.72-17.3-38.53-26.03c6.93-11.19,7.45-67.8,1.16-78.59c18.15-13.18,36.23-26.31,54.54-39.62
		c13.85,7.89,28.4,16.16,41.75,23.76c-0.88,6.21-2.3,11.83-2.36,17.46c-0.26,23.98-0.45,47.97,0.11,71.93
		c0.15,6.54,2.01,13.48,4.79,19.44c6.18,13.28,5.94,20.28-5.59,29.59C881.13,809.87,865.04,821.11,848.38,833.5z M838.47,657.18
		c0,28.21-0.04,55.12,0.1,82.04c0.01,1.59,1.08,3.72,2.36,4.65c7.63,5.6,15.47,10.92,24.5,17.22c0-29.1,0.05-56.65-0.12-84.19
		c-0.01-1.81-1.25-4.35-2.72-5.3C855.11,666.81,847.37,662.44,838.47,657.18z"/>
	<path class="st0" d="M432.44,755.69c-7.12,8.15-14.06,16.46-21.52,24.29c-1.34,1.41-5.13,1.71-7.23,0.96
		c-12.91-4.62-21.1-16.17-21.23-30.01c-0.19-21.8-0.44-43.61,0.15-65.4c0.21-7.77-1.73-12.77-8.66-16.59
		c-6.15-3.38-11.59-8.05-18.97-13.3c0,14.31,0,26.9,0,39.5c0,14.33-0.02,28.65,0,42.98c0.02,14.5,7.19,19.04,21.48,14.04
		c-9.32,9.85-18.63,19.7-28.56,30.2c-9.74-7.44-19.25-14.7-27.64-21.1c1.29-7.38,3.29-13.86,3.42-20.38
		c0.42-21.79,0.23-43.6,0.14-65.4c-0.05-11.87-4.16-15.08-16.32-11.98c10.27-9.25,19.85-17.86,29.84-26.86
		c4.2,3.86,10.36,9.52,17.4,15.99c7.3-6.05,14.36-11.9,21.24-17.6c14.31,9.41,28.32,18.64,41.04,27
		c-1.21,7.88-3.12,15.15-3.29,22.46c-0.46,19.3-0.27,38.62-0.14,57.93C413.68,756.94,419.28,760.63,432.44,755.69z"/>
	<path class="st0" d="M917.9,674.22c17.02-12.33,35.11-25.44,53.6-38.82c13.68,7.77,28.2,16.02,42.72,24.28
		c-4.43,9.88-4.9,81.95-1.32,89.75c-17.1,10.37-33.96,20.69-50.99,30.75c-1.77,1.05-4.79,1.26-6.74,0.54
		c-23.45-8.65-34.22-24.46-34.23-49.71c0-13.39,0.29-26.78-0.14-40.16C920.62,685.25,918.9,679.69,917.9,674.22z M979.34,762.71
		c0-29.14,0.05-57.36-0.11-85.58c-0.01-1.85-1.11-4.46-2.56-5.39c-7.49-4.8-15.26-9.17-24.54-14.63c0,4.4,0,7.36,0,10.32
		c-0.01,18.95-0.01,37.89-0.03,56.84C952.08,745.44,957.71,753.7,979.34,762.71z"/>
	<path class="st0" d="M285.02,782.4c-8.1-6.31-15.64-12.18-23.97-18.67c-4.7,4.87-9.34,9.01-13.15,13.81
		c-3.75,4.73-7.88,5.03-13.16,3.54c-25.02-7.07-37.59-33.59-24.84-57.21c5.78-10.7,16.54-18.82,25.51-27.64
		c2.98-2.93,7.43-4.37,12.31-7.1c-5.79-6.26-10.94-12.34-16.65-17.85c-5.54-5.35-11.66-10.1-17.14-14.77
		c6.75-7.31,13.24-14.35,19.62-21.27c19.3,13.56,21.81,13.54,38.33,0.3c0.57,0.24,1.26,0.36,1.69,0.75
		c8.25,7.57,16.46,15.17,23.04,21.24c-1.57,8.84-3.82,16.31-4.04,23.83c-0.55,18.68-0.2,37.38-0.17,56.07
		c0.02,15.39,6.24,19.55,21.37,14.64C304.24,762.13,294.71,772.18,285.02,782.4z M253,693.32c-19.58,11.85-26.01,38.97-14.39,55.19
		c3.06,4.27,8.01,7.81,12.85,10.02c5.76,2.63,10.08,1.06,9.69-6.99c-0.49-10.22,0.88-20.62-0.44-30.7
		C259.52,711.7,255.79,702.9,253,693.32z M234.49,665.4c8.61,10.02,17.1,19.9,25.6,29.78c-1.83-12.47,6.34-26.22-3.49-36.67
		C248.38,661.07,241.68,663.16,234.49,665.4z"/>
	<path class="st0" d="M706.49,674.19c17.87-12.25,37.08-25.43,57.05-39.12c10.86,11.55,21.99,23.38,32.92,35
		c-13.27,9.98-26.11,19.73-39.06,29.36c-12.4,9.21-16.91,21.29-15.28,36.63c1.19,11.2,8.45,15.89,17.23,19.85
		c8.19,3.69,16.05,4.95,23.02-2.63c1.87-2.04,4.22-3.64,6.34-5.44c0.73,0.81,1.45,1.61,2.18,2.42c-1.66,1.78-3.24,3.64-4.99,5.32
		c-6.73,6.47-14.16,12.34-20.11,19.45c-6.42,7.66-13.08,7.41-21.45,4.4c-24.41-8.75-33.08-20.6-33.09-46.38
		c-0.01-13.69,0.41-27.4-0.22-41.07C710.78,686.36,708.27,680.84,706.49,674.19z M743.18,656.35c0,16.69,0,31.63,0,47.26
		c8.2-7.27,15.55-13.78,23.34-20.68C759.03,674.4,751.6,665.94,743.18,656.35z"/>
	<path class="st0" d="M687.96,660.69c-1.11,4.49-3.55,10.06-3.68,15.69c-0.48,20.84-0.25,41.7-0.2,62.55
		c0.03,13.68,7.65,18.18,21.37,13.31c-9.43,9.98-18.87,19.96-28.59,30.25c-9.9-7.7-19.16-14.9-27.27-21.2
		c1.21-7.79,3.05-14.62,3.19-21.48c0.41-20.53,0.16-41.08,0.15-61.62c0-15.56-2.9-17.98-18.02-15.26
		c9.78-9.23,19.55-18.46,30.22-28.53C673.22,643.71,680.92,652.58,687.96,660.69z"/>
	<path class="st0" d="M636.08,609.82c7.84-8.13,15.68-16.26,23.54-24.41c8.96,4.93,13.71,18.12,22.35,13.88
		c-4.74,4.87-12.64,12.97-21.52,22.09C654.64,618.42,650.14,604.08,636.08,609.82z"/>
</g>
</svg>
