<?xml version="1.0" encoding="utf-8"?>
<!-- Generator: Adobe Illustrator 23.0.6, SVG Export Plug-In . SVG Version: 6.00 Build 0)  -->
<svg version="1.1" id="Layer_1" xmlns="http://www.w3.org/2000/svg" xmlns:xlink="http://www.w3.org/1999/xlink" x="0px" y="0px"
	 viewBox="0 0 1080 1080" style="enable-background:new 0 0 1080 1080;" xml:space="preserve">
<style type="text/css">
	.st0{fill:#FFFFFF;}
</style>
<path class="st0" d="M656.04,490.04c-74.93-49.24-161.2-28.23-204.81,49.95c-9.12,16.35-16.85,33.4-21.21,51.66
	c-18.54,77.72-12.51,150.4,47.37,210.06c32.17,32.06,71.66,36.36,107.35,8.82c71.84-55.45,109.95-130.52,119.24-204.59
	C704.13,543.2,689.03,511.72,656.04,490.04z"/>
<path class="st0" d="M283.29,747.62c32.74-4.86,58.78-14.23,86.39-13.53c25.4,0.64,42.06,12.54,46.31,33.52
	c4.05,20.04-5.6,36.59-28.61,47.55c-20.38,9.71-42.39,13.8-64.62,15.88c-43.8,4.11-87.65,5.95-130.65-6.26
	c-49.33-14.01-63.86-49.63-38.89-94.68c12.11-21.84,30.56-37.95,49.31-53.72c10.46-8.8,21.25-17.22,31.46-26.3
	c3.32-2.96,10.67-4.35,8.24-10.67c-2.6-6.79-8.56-2.81-13.15-1.89c-17.43,3.53-34.47,0.9-51.19-3.74
	c-23.31-6.47-37.84-22.59-38.97-43.67c-1.23-22.93,12.58-36.52,32.17-43.4c65.44-23,131.46-23.47,195.99,2.3
	c35.54,14.19,43.57,45.24,23.34,80.25c-22.55,39.02-53.15,71.46-86.85,101.06C298.24,734.98,292.8,739.51,283.29,747.62z"/>
<path class="st0" d="M846.62,578.05c14.63-0.65,27.38,0.78,39.98,4.46c35.21,10.28,53.73,34.31,54.4,71.14
	c1.41,78.02-60.77,158.86-136.38,176.78c-25.06,5.94-49.87,4.69-74.16-4.69c-30.59-11.81-46.11-33-41.43-64.94
	c9.29-63.43,38.68-117.04,87.18-159.1C796.34,584.25,820.86,575.67,846.62,578.05z"/>
<path class="st0" d="M321.93,334.33c-5.18,17.51-9.3,32.73-14.25,47.67c-2.28,6.88-6.41,13.93-14.93,13.26
	c-8.2-0.64-12.25-7.36-13.39-14.89c-5.93-39.3-0.46-77.45,15.17-113.61c6.29-14.55,19.78-11.91,31.44-4.94
	c15.73,9.41,27.26,23.24,37.79,37.92c7.01,9.77,13.67,19.79,21.59,31.32c5.81-21.03,10.36-40.11,16.5-58.67
	c3.34-10.1,8.7-21.72,22.41-18.44c12.21,2.92,12.09,14.9,12.32,24.91c0.72,31.25-4.83,61.7-15.75,90.77
	c-9.57,25.47-28.51,30.75-51.77,16.03C349.29,373.15,335.59,354.68,321.93,334.33z"/>
<path class="st0" d="M685.55,330.81c1.38-74.29,25.2-82.02,99.58-77.09c9.66,0.64,19.01,5.03,18.44,17.05
	c-0.51,10.8-8.16,16.76-18.22,18.31c-9.88,1.52-20.01,2.27-29.99,2c-6.32-0.17-11.48-1.48-11.73,7.38
	c-0.23,8.34,3.59,12.15,11.66,11.43c10.73-0.96,21.47-2.65,31.94,1.32c6.94,2.63,13.89,6.18,13.35,14.83
	c-0.5,8.01-6.32,12.72-13.86,14.67c-10.53,2.74-21.26,4.34-32.01,1.41c-10.57-2.88-14.92,2.41-15.4,11.78
	c-0.63,12.12,8.13,6.74,13.61,6.41c11.57-0.68,23.22-1.39,34.05,3.35c14.38,6.28,15.82,18.73,3.83,28.65
	c-15.64,12.93-76.23,11.89-91.22-1.67c-5.01-4.54-7.39-10.69-8.36-17.13C689.08,359.31,687.41,345.04,685.55,330.81z"/>
<path class="st0" d="M811.33,353.87c-0.44-18.94,5.11-36.85,8.81-55.16c7.78-38.4,33.61-51.91,75.7-50.63
	c8.81,0.27,17.94,2.77,19.43,13.5c1.55,11.19-5.67,17.02-15.31,20.47c-0.68,0.24-1.31,0.6-1.98,0.85
	c-13.14,4.99-37.28-2.2-38.91,9.64c-3.16,22.91-3.49,47.06-3.77,70.73c-0.03,2.95,0.62,6.49,4.32,5.45
	c10.31-2.89,21.92-4.45,30.11-10.49c6.23-4.59-3.69-11.87-5.06-18.4c-1.02-4.88-3.3-9.47-4.55-14.32
	c-1.82-7.06-3.57-14.66,4.48-19.09c6.99-3.86,14.43-2.09,20.35,2.38c18.57,14.03,30.14,33.17,33.96,55.73
	c2.5,14.75-8.73,23.77-20.62,29.89c-23.87,12.29-49.49,15.25-75.48,9.54C816.76,398.26,810.5,387.18,811.33,353.87z"/>
<path class="st0" d="M60.44,303.2c11.53,10.35,23.24,20.5,34.53,31.1c8.49,7.97,14.49,17.85,18.61,28.7
	c8.36,22.01-1.36,39.54-24.69,42.14c-25.34,2.82-50.11-1.36-73.67-11.37c-8.01-3.4-16.86-7.48-14.96-18.27
	c1.94-11.01,12.67-10.9,20.63-11.75c11.88-1.27,24-0.33,41.17-0.33c-15.04-13.67-27.05-23.37-37.62-34.45
	c-26.28-27.55-21.07-53.65,13.14-70.2c20.9-10.11,43-11.3,65.27-7.94c10.66,1.61,21.47,6.16,22.53,19.52
	c1.08,13.63-9.31,18.5-19.65,22.17C92.34,297.26,78.11,298,60.44,303.2z"/>
<path class="st0" d="M672.63,345.19c-0.92,9.7-1.5,19.7-2.91,29.58c-1.57,11.03-4.66,21.92-18.47,22.38
	c-12.9,0.44-18.61-8.67-22.16-19.63c-9.14-28.23-3.27-56.64-0.84-84.95c0.66-7.75,3.12-15.37,5.02-22.98
	c2.01-8.07,5.41-15.26,15.38-14.86c9.76,0.39,12.93,8.01,15.1,15.75C670.58,294.8,669.78,320.02,672.63,345.19z"/>
<path class="st0" d="M1027.19,245.85c-85.99,5.5-95.9,46.1-81.17,102.53c1.45,5.56,2.74,11.22,4.88,16.52
	c8.29,20.55,18.05,40.09,43.88,42.04c27.23,2.06,49.48-6.02,62.65-32.19c11.76-23.36,20.61-47.62,22.29-73.79
	C1082.3,260.86,1067.34,245.62,1027.19,245.85z M1024.41,360.62c-2,9.91-7.14,10.83-15.03,9.95c-7.36-0.82-16.53,2.62-19.07-8.68
	c-0.31-1.39-0.49-2.82-0.85-4.2c-14.53-56.21-14.53-56.21,52.01-67.91C1035.28,315.01,1029.05,337.66,1024.41,360.62z"/>
<path class="st0" d="M271.66,373.85c-10.54-34.24-18.47-69.62-38.1-100.29c-17.87-27.92-41.26-31.2-64.4-8.48
	c-29.04,28.51-42.56,64.55-44.58,104.57c-1.6,31.82,21.46,45.61,49.4,29.64c20.06-11.46,38.02-25.95,47.43-49.34
	c9.99,13.54,18.07,25.45,27.21,36.48c4.75,5.72,12.32,8.83,19.48,4.98C275.13,387.61,273.43,379.58,271.66,373.85z M172.41,354.41
	c5.92-21.89,10.72-39.6,16.97-62.72c10.8,19,19.19,33.77,29.85,52.52C200.48,338.47,188.65,347.87,172.41,354.41z"/>
<path class="st0" d="M602.9,297.53c-15.33-18.19-33.57-33.38-55.61-43.11c-22.72-10.03-36.36-4.76-42.35,19.13
	c-7.82,31.17-13.01,63-17.15,83.69c-1.97,39.54,17.96,58.41,41.24,48.16c26.86-11.83,52.1-27.65,71.11-50.77
	C615.97,335.38,616.98,314.25,602.9,297.53z M535.26,354.5c7.07-20.85,2.07-39.36,9.59-56.4
	C569.5,314.38,567.29,333.96,535.26,354.5z"/>
</svg>
