<?xml version="1.0" encoding="utf-8"?>
<!-- Generator: Adobe Illustrator 23.0.6, SVG Export Plug-In . SVG Version: 6.00 Build 0)  -->
<svg version="1.1" id="Layer_1" xmlns="http://www.w3.org/2000/svg" xmlns:xlink="http://www.w3.org/1999/xlink" x="0px" y="0px"
	 viewBox="0 0 1080 1080" style="enable-background:new 0 0 1080 1080;" xml:space="preserve">
<style type="text/css">
	.st0{fill:#FFFFFF;}
</style>
<g>
	<path class="st0" d="M2.11,542.11c0-92.76,0.02-185.52-0.01-278.29C2.07,119.22,119.3,1.99,263.9,2.03
		c185.5,0.06,370.99,0.06,556.49,0c144.6-0.05,261.84,117.19,261.79,261.79c-0.06,185.52-0.06,371.04,0,556.56
		c0.05,144.6-117.19,261.84-261.79,261.79c-185.5-0.06-370.99-0.06-556.49,0C119.3,1082.23,2.07,965,2.1,820.4
		C2.12,727.63,2.11,634.87,2.11,542.11z M550.54,392.64c-91.72-0.12-183.43-0.13-275.15-0.57c-8.72-0.04-7.56,4.74-7.56,10.01
		c0.02,54.47,0.06,108.94-0.03,163.42c-0.02,14.42,0.37,28.75,2.27,43.09c5.22,39.42,35.17,72.66,71.7,80.25
		c3.76,0.78,7.53,1.52,11.26,2.42c8.56,2.07,17.31,2.7,26.13,2.7c92.09-0.01,184.18-0.1,276.27,0.14c7.55,0.02,10.25-1.39,10.2-9.67
		c-0.37-59.75-0.16-119.5-0.18-179.26c0-12.69-1.26-25.28-4.37-37.6C648.9,419.26,605.3,389.75,550.54,392.64z M816.3,543.79
		c0-43.57,0.01-87.13-0.01-130.7c0-6.24,1.22-13.21-6.08-16.53c-6.81-3.1-12.18,0.84-17.25,4.75
		c-31.44,24.21-62.78,48.56-94.35,72.62c-4.42,3.37-6.01,6.92-5.98,12.36c0.2,37.94,0.18,75.89,0.04,113.84
		c-0.02,4.92,1.06,8.45,5.26,11.65c32.4,24.7,64.57,49.7,96.91,74.48c4.67,3.58,9.77,7.88,16.19,4.32
		c5.86-3.25,5.27-9.37,5.27-15.02C816.28,631.63,816.28,587.71,816.3,543.79z"/>
</g>
</svg>
